SplineFontDB: 3.2
FontName: Kilroy2-24ptRegular
FullName: Kilroy2 24pt Regular
FamilyName: Kilroy2 24pt
Weight: Regular
Copyright: Copyright 2020 The Roboto Serif Project Authors (https://github.com/googlefonts/RobotoSerif) OFL
Version: 1.008
ItalicAngle: 0
UnderlinePosition: -200
UnderlineWidth: 100
Ascent: 800
Descent: 200
InvalidEm: 0
sfntRevision: 0x0001020c
LayerCount: 2
Layer: 0 1 "Back" 1
Layer: 1 1 "Fore" 0
XUID: [1021 1018 -1064020043 16461]
StyleMap: 0x0040
FSType: 0
OS2Version: 4
OS2_WeightWidthSlopeOnly: 0
OS2_UseTypoMetrics: 1
CreationTime: 1586430965
ModificationTime: 1751691244
PfmFamily: 81
TTFWeight: 400
TTFWidth: 5
LineGap: 0
VLineGap: 0
Panose: 0 0 0 0 0 0 0 0 0 0
OS2TypoAscent: 927
OS2TypoAOffset: 0
OS2TypoDescent: -244
OS2TypoDOffset: 0
OS2TypoLinegap: 0
OS2WinAscent: 1048
OS2WinAOffset: 0
OS2WinDescent: 251
OS2WinDOffset: 0
HheadAscent: 927
HheadAOffset: 0
HheadDescent: -244
HheadDOffset: 0
OS2SubXSize: 650
OS2SubYSize: 600
OS2SubXOff: 0
OS2SubYOff: 75
OS2SupXSize: 650
OS2SupYSize: 600
OS2SupXOff: 0
OS2SupYOff: 350
OS2StrikeYSize: 100
OS2StrikeYPos: 311
OS2CapHeight: 710
OS2XHeight: 518
OS2Vendor: 'COMM'
OS2CodePages: 20000193.00000000
OS2UnicodeRanges: a10000ef.4000267a.00000000.00000000
Lookup: 5 0 0 "'locl' Localized Forms in Latin lookup 0" { "'locl' Localized Forms in Latin lookup 0 subtable"  } ['locl' ('latn' <'AZE ' 'CRT ' 'TRK ' > ) ]
Lookup: 1 0 0 "Single Substitution lookup 1" { "Single Substitution lookup 1 subtable"  } []
Lookup: 5 0 0 "'locl' Localized Forms in Latin lookup 2" { "'locl' Localized Forms in Latin lookup 2 subtable"  } ['locl' ('latn' <'PLK ' > ) ]
Lookup: 1 0 0 "Single Substitution lookup 3" { "Single Substitution lookup 3 subtable"  } []
Lookup: 6 0 0 "'locl' Localized Forms in Latin lookup 4" { "'locl' Localized Forms in Latin lookup 4 subtable"  } ['locl' ('latn' <'CAT ' > ) ]
Lookup: 4 0 0 "Ligature Substitution lookup 5" { "Ligature Substitution lookup 5 subtable"  } []

StartChar: .notdef
Encoding: 65536 -1 0
Width: 400
GlyphClass: 1
Flags: W
LayerCount: 2
Fore
SplineSet
0 0 m 1,0,-1
 0 700 l 1,1,-1
 400 700 l 1,2,-1
 400 0 l 1,3,-1
 0 0 l 1,0,-1
50 650 m 1,4,-1
 50 50 l 1,5,-1
 350 50 l 1,6,-1
 350 650 l 1,7,-1
 50 650 l 1,4,-1
EndSplineSet
EndChar

StartChar: A
Encoding: 65 65 6
Width: 698
GlyphClass: 2
Flags: W
AnchorPoint: "Anchor-2" 553 0 basechar 0
AnchorPoint: "Anchor-1" 349 0 basechar 0
AnchorPoint: "Anchor-0" 349 721 basechar 0
LayerCount: 2
Fore
SplineSet
186 300 m 1,0,-1
 486 300 l 1,1,-1
 487 244 l 1,2,-1
 179 244 l 1,3,-1
 186 300 l 1,0,-1
321 672 m 1,4,-1
 338 643 l 1,5,-1
 139 65 l 2,6,7
 139 60 139 60 152 55.5 c 128,-1,8
 165 51 165 51 184 48.5 c 128,-1,9
 203 46 203 46 223 46 c 2,10,-1
 238 46 l 1,11,-1
 238 0 l 1,12,-1
 8 0 l 1,13,-1
 8 46 l 1,14,-1
 13 46 l 2,15,16
 41 46 41 46 57 54 c 128,-1,17
 73 62 73 62 83 90 c 2,18,-1
 297 710 l 1,19,-1
 398 710 l 1,20,-1
 621 75 l 2,21,22
 628 56 628 56 644.5 51 c 128,-1,23
 661 46 661 46 685 46 c 2,24,-1
 690 46 l 1,25,-1
 690 0 l 1,26,-1
 431 0 l 1,27,-1
 431 46 l 1,28,-1
 448 46 l 2,29,30
 467 46 467 46 487 47 c 128,-1,31
 507 48 507 48 520.5 50.5 c 128,-1,32
 534 53 534 53 534 56 c 2,33,-1
 321 672 l 1,4,-1
EndSplineSet
EndChar

StartChar: Aogonek
Encoding: 260 260 15
Width: 698
GlyphClass: 1
Flags: W
LayerCount: 2
Fore
SplineSet
186 300 m 1,0,-1
 486 300 l 1,1,-1
 487 244 l 1,2,-1
 179 244 l 1,3,-1
 186 300 l 1,0,-1
566 41 m 1,4,-1
 596 8 l 1,5,6
 549 -18 549 -18 524 -43.5 c 128,-1,7
 499 -69 499 -69 489 -92 c 128,-1,8
 479 -115 479 -115 479 -136 c 0,9,10
 479 -161 479 -161 490.5 -173 c 128,-1,11
 502 -185 502 -185 519 -185 c 256,12,13
 536 -185 536 -185 549 -175.5 c 128,-1,14
 562 -166 562 -166 572 -156 c 1,15,-1
 601 -190 l 1,16,17
 582 -210 582 -210 559 -223 c 128,-1,18
 536 -236 536 -236 497 -236 c 0,19,20
 450 -236 450 -236 419.5 -212 c 128,-1,21
 389 -188 389 -188 389 -145 c 0,22,23
 389 -119 389 -119 401.5 -95.5 c 128,-1,24
 414 -72 414 -72 437 -49.5 c 128,-1,25
 460 -27 460 -27 493 -4.5 c 128,-1,26
 526 18 526 18 566 41 c 1,4,-1
690 0 m 1,27,-1
 551 0 l 1,28,-1
 321 672 l 1,29,-1
 342 664 l 1,30,-1
 136 65 l 2,31,32
 136 60 136 60 149 55.5 c 128,-1,33
 162 51 162 51 181 48.5 c 128,-1,34
 200 46 200 46 220 46 c 2,35,-1
 235 46 l 1,36,-1
 235 0 l 1,37,-1
 8 0 l 1,38,-1
 8 46 l 1,39,-1
 13 46 l 2,40,41
 41 46 41 46 57 54 c 128,-1,42
 73 62 73 62 83 90 c 2,43,-1
 297 710 l 1,44,-1
 398 710 l 1,45,-1
 621 75 l 2,46,47
 628 56 628 56 644.5 51 c 128,-1,48
 661 46 661 46 685 46 c 2,49,-1
 690 46 l 1,50,-1
 690 0 l 1,27,-1
EndSplineSet
EndChar

StartChar: Acaron
Encoding: 461 461 16
Width: 698
GlyphClass: 1
Flags: W
LayerCount: 2
Fore
SplineSet
304 758 m 1,0,-1
 394 758 l 1,1,-1
 502 892 l 1,2,-1
 502 905 l 1,3,-1
 462 905 l 1,4,-1
 349 816 l 1,5,-1
 359 816 l 1,6,-1
 245 905 l 1,7,-1
 196 905 l 1,8,-1
 196 892 l 1,9,-1
 304 758 l 1,0,-1
186 300 m 1,10,-1
 486 300 l 1,11,-1
 487 244 l 1,12,-1
 179 244 l 1,13,-1
 186 300 l 1,10,-1
321 672 m 1,14,-1
 338 643 l 1,15,-1
 139 65 l 2,16,17
 139 60 139 60 152 55.5 c 128,-1,18
 165 51 165 51 184 48.5 c 128,-1,19
 203 46 203 46 223 46 c 2,20,-1
 238 46 l 1,21,-1
 238 0 l 1,22,-1
 8 0 l 1,23,-1
 8 46 l 1,24,-1
 13 46 l 2,25,26
 41 46 41 46 57 54 c 128,-1,27
 73 62 73 62 83 90 c 2,28,-1
 297 710 l 1,29,-1
 398 710 l 1,30,-1
 621 75 l 2,31,32
 628 56 628 56 644.5 51 c 128,-1,33
 661 46 661 46 685 46 c 2,34,-1
 690 46 l 1,35,-1
 690 0 l 1,36,-1
 431 0 l 1,37,-1
 431 46 l 1,38,-1
 448 46 l 2,39,40
 467 46 467 46 487 47 c 128,-1,41
 507 48 507 48 520.5 50.5 c 128,-1,42
 534 53 534 53 534 56 c 2,43,-1
 321 672 l 1,14,-1
EndSplineSet
EndChar

StartChar: Adblgrave
Encoding: 512 512 18
Width: 698
GlyphClass: 1
Flags: W
LayerCount: 2
Fore
SplineSet
426 854 m 2,0,-1
 446 781 l 1,1,-1
 446 758 l 1,2,-1
 415 758 l 1,3,-1
 371 802 l 2,4,5
 351 822 351 822 338.5 837 c 128,-1,6
 326 852 326 852 326 871 c 256,7,8
 326 890 326 890 339 901 c 128,-1,9
 352 912 352 912 371 912 c 0,10,11
 384 912 384 912 394 906.5 c 128,-1,12
 404 901 404 901 412 888.5 c 128,-1,13
 420 876 420 876 426 854 c 2,0,-1
262 854 m 2,14,-1
 282 781 l 1,15,-1
 282 758 l 1,16,-1
 251 758 l 1,17,-1
 207 802 l 2,18,19
 187 822 187 822 174.5 837 c 128,-1,20
 162 852 162 852 162 871 c 256,21,22
 162 890 162 890 175 901 c 128,-1,23
 188 912 188 912 207 912 c 0,24,25
 220 912 220 912 230 906.5 c 128,-1,26
 240 901 240 901 248 888.5 c 128,-1,27
 256 876 256 876 262 854 c 2,14,-1
186 300 m 1,28,-1
 486 300 l 1,29,-1
 487 244 l 1,30,-1
 179 244 l 1,31,-1
 186 300 l 1,28,-1
321 672 m 1,32,-1
 338 643 l 1,33,-1
 139 65 l 2,34,35
 139 60 139 60 152 55.5 c 128,-1,36
 165 51 165 51 184 48.5 c 128,-1,37
 203 46 203 46 223 46 c 2,38,-1
 238 46 l 1,39,-1
 238 0 l 1,40,-1
 8 0 l 1,41,-1
 8 46 l 1,42,-1
 13 46 l 2,43,44
 41 46 41 46 57 54 c 128,-1,45
 73 62 73 62 83 90 c 2,46,-1
 297 710 l 1,47,-1
 398 710 l 1,48,-1
 621 75 l 2,49,50
 628 56 628 56 644.5 51 c 128,-1,51
 661 46 661 46 685 46 c 2,52,-1
 690 46 l 1,53,-1
 690 0 l 1,54,-1
 431 0 l 1,55,-1
 431 46 l 1,56,-1
 448 46 l 2,57,58
 467 46 467 46 487 47 c 128,-1,59
 507 48 507 48 520.5 50.5 c 128,-1,60
 534 53 534 53 534 56 c 2,61,-1
 321 672 l 1,32,-1
EndSplineSet
EndChar

StartChar: Ainvertedbreve
Encoding: 514 514 19
Width: 698
GlyphClass: 1
Flags: W
LayerCount: 2
Fore
SplineSet
357 899 m 256,0,1
 315 899 315 899 284 883 c 128,-1,2
 253 867 253 867 235 836 c 128,-1,3
 217 805 217 805 213 759 c 1,4,-1
 270 759 l 1,5,6
 275 785 275 785 285.5 800.5 c 128,-1,7
 296 816 296 816 312.5 822.5 c 128,-1,8
 329 829 329 829 354 829 c 0,9,10
 378 829 378 829 395 822.5 c 128,-1,11
 412 816 412 816 423 800.5 c 128,-1,12
 434 785 434 785 440 759 c 1,13,-1
 502 759 l 1,14,15
 498 805 498 805 479.5 836 c 128,-1,16
 461 867 461 867 430 883 c 128,-1,17
 399 899 399 899 357 899 c 256,0,1
186 300 m 1,18,-1
 486 300 l 1,19,-1
 487 244 l 1,20,-1
 179 244 l 1,21,-1
 186 300 l 1,18,-1
321 672 m 1,22,-1
 338 643 l 1,23,-1
 139 65 l 2,24,25
 139 60 139 60 152 55.5 c 128,-1,26
 165 51 165 51 184 48.5 c 128,-1,27
 203 46 203 46 223 46 c 2,28,-1
 238 46 l 1,29,-1
 238 0 l 1,30,-1
 8 0 l 1,31,-1
 8 46 l 1,32,-1
 13 46 l 2,33,34
 41 46 41 46 57 54 c 128,-1,35
 73 62 73 62 83 90 c 2,36,-1
 297 710 l 1,37,-1
 398 710 l 1,38,-1
 621 75 l 2,39,40
 628 56 628 56 644.5 51 c 128,-1,41
 661 46 661 46 685 46 c 2,42,-1
 690 46 l 1,43,-1
 690 0 l 1,44,-1
 431 0 l 1,45,-1
 431 46 l 1,46,-1
 448 46 l 2,47,48
 467 46 467 46 487 47 c 128,-1,49
 507 48 507 48 520.5 50.5 c 128,-1,50
 534 53 534 53 534 56 c 2,51,-1
 321 672 l 1,22,-1
EndSplineSet
EndChar

StartChar: B
Encoding: 66 66 32
Width: 668
GlyphClass: 2
Flags: W
AnchorPoint: "Anchor-0" 319 741 basechar 0
LayerCount: 2
Fore
SplineSet
345 710 m 2,0,1
 402 710 402 710 446.5 697.5 c 128,-1,2
 491 685 491 685 521.5 661.5 c 128,-1,3
 552 638 552 638 568 604.5 c 128,-1,4
 584 571 584 571 584 530 c 0,5,6
 584 480 584 480 556 441.5 c 128,-1,7
 528 403 528 403 473 382 c 128,-1,8
 418 361 418 361 337 361 c 1,9,-1
 416 399 l 1,10,-1
 416 351 l 1,11,-1
 346 387 l 1,12,13
 433 387 433 387 493 364 c 128,-1,14
 553 341 553 341 584 298.5 c 128,-1,15
 615 256 615 256 615 199 c 0,16,17
 615 153 615 153 597.5 116 c 128,-1,18
 580 79 580 79 546.5 53 c 128,-1,19
 513 27 513 27 465 13.5 c 128,-1,20
 417 0 417 0 355 0 c 2,21,-1
 45 0 l 1,22,-1
 45 46 l 1,23,-1
 56 46 l 2,24,25
 92 46 92 46 116 53 c 128,-1,26
 140 60 140 60 140 82 c 2,27,-1
 140 628 l 2,28,29
 140 650 140 650 116 657 c 128,-1,30
 92 664 92 664 56 664 c 2,31,-1
 45 664 l 1,32,-1
 45 710 l 1,33,-1
 345 710 l 2,0,1
213 400 m 1,34,-1
 345 400 l 2,35,36
 398 400 398 400 430 416 c 128,-1,37
 462 432 462 432 476 461.5 c 128,-1,38
 490 491 490 491 490 529 c 0,39,40
 490 569 490 569 474.5 597 c 128,-1,41
 459 625 459 625 427 639.5 c 128,-1,42
 395 654 395 654 344 654 c 2,43,-1
 233 654 l 1,44,-1
 233 56 l 1,45,-1
 353 56 l 2,46,47
 410 56 410 56 447 72.5 c 128,-1,48
 484 89 484 89 501.5 121.5 c 128,-1,49
 519 154 519 154 519 200 c 0,50,51
 519 242 519 242 502 274.5 c 128,-1,52
 485 307 485 307 448.5 325.5 c 128,-1,53
 412 344 412 344 353 344 c 2,54,-1
 213 344 l 1,55,-1
 213 400 l 1,34,-1
EndSplineSet
EndChar

StartChar: C
Encoding: 67 67 33
Width: 717
GlyphClass: 2
Flags: W
AnchorPoint: "Anchor-1" 379 0 basechar 0
AnchorPoint: "Anchor-0" 379 741 basechar 0
LayerCount: 2
Fore
SplineSet
380 659 m 0,0,1
 332 659 332 659 289.5 637.5 c 128,-1,2
 247 616 247 616 215 576 c 128,-1,3
 183 536 183 536 165 480 c 128,-1,4
 147 424 147 424 147 355 c 256,5,6
 147 286 147 286 164.5 230 c 128,-1,7
 182 174 182 174 214 134 c 128,-1,8
 246 94 246 94 292 72.5 c 128,-1,9
 338 51 338 51 395 51 c 0,10,11
 454 51 454 51 499.5 78 c 128,-1,12
 545 105 545 105 575.5 151.5 c 128,-1,13
 606 198 606 198 620 255 c 1,14,-1
 680 233 l 1,15,16
 663 162 663 162 623.5 107 c 128,-1,17
 584 52 584 52 524.5 21 c 128,-1,18
 465 -10 465 -10 389 -10 c 0,19,20
 314 -10 314 -10 251.5 16.5 c 128,-1,21
 189 43 189 43 143 91.5 c 128,-1,22
 97 140 97 140 72 207 c 128,-1,23
 47 274 47 274 47 355 c 0,24,25
 47 435 47 435 73 502 c 128,-1,26
 99 569 99 569 145 618 c 128,-1,27
 191 667 191 667 251 693.5 c 128,-1,28
 311 720 311 720 379 720 c 0,29,30
 448 720 448 720 497 699.5 c 128,-1,31
 546 679 546 679 578 641.5 c 128,-1,32
 610 604 610 604 626 552 c 1,33,-1
 590 553 l 1,34,-1
 606 710 l 1,35,-1
 665 710 l 1,36,-1
 665 496 l 1,37,-1
 599 496 l 1,38,39
 583 545 583 545 554 581.5 c 128,-1,40
 525 618 525 618 482.5 638.5 c 128,-1,41
 440 659 440 659 380 659 c 0,0,1
EndSplineSet
EndChar

StartChar: Ccaron
Encoding: 268 268 38
Width: 717
GlyphClass: 1
Flags: W
LayerCount: 2
Fore
SplineSet
335 758 m 1,0,-1
 425 758 l 1,1,-1
 533 892 l 1,2,-1
 533 905 l 1,3,-1
 494 905 l 1,4,-1
 380 816 l 1,5,-1
 390 816 l 1,6,-1
 276 905 l 1,7,-1
 227 905 l 1,8,-1
 227 892 l 1,9,-1
 335 758 l 1,0,-1
380 659 m 0,10,11
 332 659 332 659 289.5 637.5 c 128,-1,12
 247 616 247 616 215 576 c 128,-1,13
 183 536 183 536 165 480 c 128,-1,14
 147 424 147 424 147 355 c 256,15,16
 147 286 147 286 164.5 230 c 128,-1,17
 182 174 182 174 214 134 c 128,-1,18
 246 94 246 94 292 72.5 c 128,-1,19
 338 51 338 51 395 51 c 0,20,21
 454 51 454 51 499.5 78 c 128,-1,22
 545 105 545 105 575.5 151.5 c 128,-1,23
 606 198 606 198 620 255 c 1,24,-1
 680 233 l 1,25,26
 663 162 663 162 623.5 107 c 128,-1,27
 584 52 584 52 524.5 21 c 128,-1,28
 465 -10 465 -10 389 -10 c 0,29,30
 314 -10 314 -10 251.5 16.5 c 128,-1,31
 189 43 189 43 143 91.5 c 128,-1,32
 97 140 97 140 72 207 c 128,-1,33
 47 274 47 274 47 355 c 0,34,35
 47 435 47 435 73 502 c 128,-1,36
 99 569 99 569 145 618 c 128,-1,37
 191 667 191 667 251 693.5 c 128,-1,38
 311 720 311 720 379 720 c 0,39,40
 448 720 448 720 497 699.5 c 128,-1,41
 546 679 546 679 578 641.5 c 128,-1,42
 610 604 610 604 626 552 c 1,43,-1
 590 553 l 1,44,-1
 606 710 l 1,45,-1
 665 710 l 1,46,-1
 665 496 l 1,47,-1
 599 496 l 1,48,49
 583 545 583 545 554 581.5 c 128,-1,50
 525 618 525 618 482.5 638.5 c 128,-1,51
 440 659 440 659 380 659 c 0,10,11
EndSplineSet
EndChar

StartChar: D
Encoding: 68 68 40
Width: 772
GlyphClass: 2
Flags: W
AnchorPoint: "Anchor-1" 389 0 basechar 0
AnchorPoint: "Anchor-0" 389 741 basechar 0
LayerCount: 2
Fore
SplineSet
45 664 m 1,0,-1
 45 710 l 1,1,-1
 350 710 l 2,2,3
 434 710 434 710 502.5 685.5 c 128,-1,4
 571 661 571 661 621.5 615 c 128,-1,5
 672 569 672 569 699 503.5 c 128,-1,6
 726 438 726 438 726 357 c 256,7,8
 726 276 726 276 699 210.5 c 128,-1,9
 672 145 672 145 621.5 97.5 c 128,-1,10
 571 50 571 50 502.5 25 c 128,-1,11
 434 0 434 0 350 0 c 2,12,-1
 45 0 l 1,13,-1
 45 46 l 1,14,-1
 57 46 l 2,15,16
 93 46 93 46 117 53 c 128,-1,17
 141 60 141 60 141 82 c 2,18,-1
 141 628 l 2,19,20
 141 648 141 648 117 656 c 128,-1,21
 93 664 93 664 57 664 c 2,22,-1
 45 664 l 1,0,-1
350 652 m 2,23,-1
 233 652 l 1,24,-1
 233 58 l 1,25,-1
 350 58 l 2,26,27
 414 58 414 58 464.5 78 c 128,-1,28
 515 98 515 98 551.5 137 c 128,-1,29
 588 176 588 176 607 231.5 c 128,-1,30
 626 287 626 287 626 357 c 256,31,32
 626 427 626 427 607 482 c 128,-1,33
 588 537 588 537 551.5 575 c 128,-1,34
 515 613 515 613 464.5 632.5 c 128,-1,35
 414 652 414 652 350 652 c 2,23,-1
EndSplineSet
EndChar

StartChar: Dcaron
Encoding: 270 270 41
Width: 772
GlyphClass: 1
Flags: W
LayerCount: 2
Fore
SplineSet
335 758 m 1,0,-1
 425 758 l 1,1,-1
 533 892 l 1,2,-1
 533 905 l 1,3,-1
 494 905 l 1,4,-1
 380 816 l 1,5,-1
 390 816 l 1,6,-1
 276 905 l 1,7,-1
 227 905 l 1,8,-1
 227 892 l 1,9,-1
 335 758 l 1,0,-1
45 664 m 1,10,-1
 45 710 l 1,11,-1
 350 710 l 2,12,13
 434 710 434 710 502.5 685.5 c 128,-1,14
 571 661 571 661 621.5 615 c 128,-1,15
 672 569 672 569 699 503.5 c 128,-1,16
 726 438 726 438 726 357 c 256,17,18
 726 276 726 276 699 210.5 c 128,-1,19
 672 145 672 145 621.5 97.5 c 128,-1,20
 571 50 571 50 502.5 25 c 128,-1,21
 434 0 434 0 350 0 c 2,22,-1
 45 0 l 1,23,-1
 45 46 l 1,24,-1
 57 46 l 2,25,26
 93 46 93 46 117 53 c 128,-1,27
 141 60 141 60 141 82 c 2,28,-1
 141 628 l 2,29,30
 141 648 141 648 117 656 c 128,-1,31
 93 664 93 664 57 664 c 2,32,-1
 45 664 l 1,10,-1
350 652 m 2,33,-1
 233 652 l 1,34,-1
 233 58 l 1,35,-1
 350 58 l 2,36,37
 414 58 414 58 464.5 78 c 128,-1,38
 515 98 515 98 551.5 137 c 128,-1,39
 588 176 588 176 607 231.5 c 128,-1,40
 626 287 626 287 626 357 c 256,41,42
 626 427 626 427 607 482 c 128,-1,43
 588 537 588 537 551.5 575 c 128,-1,44
 515 613 515 613 464.5 632.5 c 128,-1,45
 414 652 414 652 350 652 c 2,33,-1
EndSplineSet
EndChar

StartChar: E
Encoding: 69 69 44
Width: 640
GlyphClass: 2
Flags: W
AnchorPoint: "Anchor-2" 442 0 basechar 0
AnchorPoint: "Anchor-1" 378 0 basechar 0
AnchorPoint: "Anchor-0" 330 741 basechar 0
LayerCount: 2
Fore
SplineSet
580 217 m 1,0,-1
 580 0 l 1,1,-1
 45 0 l 1,2,-1
 45 46 l 1,3,-1
 56 46 l 2,4,5
 92 46 92 46 116 53 c 128,-1,6
 140 60 140 60 140 82 c 2,7,-1
 140 628 l 2,8,9
 140 650 140 650 116 657 c 128,-1,10
 92 664 92 664 56 664 c 2,11,-1
 45 664 l 1,12,-1
 45 710 l 1,13,-1
 551 710 l 1,14,-1
 551 518 l 1,15,-1
 495 518 l 1,16,-1
 486 608 l 2,17,18
 484 626 484 626 471 636 c 128,-1,19
 458 646 458 646 431 649 c 128,-1,20
 404 652 404 652 361 652 c 2,21,-1
 232 652 l 1,22,-1
 232 58 l 1,23,-1
 390 58 l 2,24,25
 422 58 422 58 445.5 59.5 c 128,-1,26
 469 61 469 61 484 66 c 128,-1,27
 499 71 499 71 506.5 80 c 128,-1,28
 514 89 514 89 515 102 c 2,29,-1
 524 217 l 1,30,-1
 580 217 l 1,0,-1
203 390 m 1,31,32
 246 392 246 392 287.5 393 c 128,-1,33
 329 394 329 394 370 395.5 c 128,-1,34
 411 397 411 397 452 398 c 1,35,-1
 452 328 l 1,36,37
 411 330 411 330 370 331.5 c 128,-1,38
 329 333 329 333 287.5 334.5 c 128,-1,39
 246 336 246 336 203 337 c 1,40,-1
 203 390 l 1,31,32
EndSplineSet
Substitution2: "'ss01' Style Set 1 lookup 61 subtable" E.alt
EndChar

StartChar: Ecaron
Encoding: 282 282 53
Width: 640
GlyphClass: 1
Flags: W
LayerCount: 2
Fore
SplineSet
263 758 m 1,0,-1
 353 758 l 1,1,-1
 461 892 l 1,2,-1
 461 905 l 1,3,-1
 422 905 l 1,4,-1
 308 816 l 1,5,-1
 318 816 l 1,6,-1
 204 905 l 1,7,-1
 155 905 l 1,8,-1
 155 892 l 1,9,-1
 263 758 l 1,0,-1
580 217 m 1,10,-1
 580 0 l 1,11,-1
 45 0 l 1,12,-1
 45 46 l 1,13,-1
 56 46 l 2,14,15
 92 46 92 46 116 53 c 128,-1,16
 140 60 140 60 140 82 c 2,17,-1
 140 628 l 2,18,19
 140 650 140 650 116 657 c 128,-1,20
 92 664 92 664 56 664 c 2,21,-1
 45 664 l 1,22,-1
 45 710 l 1,23,-1
 551 710 l 1,24,-1
 551 518 l 1,25,-1
 495 518 l 1,26,-1
 486 608 l 2,27,28
 484 626 484 626 471 636 c 128,-1,29
 458 646 458 646 431 649 c 128,-1,30
 404 652 404 652 361 652 c 2,31,-1
 232 652 l 1,32,-1
 232 58 l 1,33,-1
 390 58 l 2,34,35
 422 58 422 58 445.5 59.5 c 128,-1,36
 469 61 469 61 484 66 c 128,-1,37
 499 71 499 71 506.5 80 c 128,-1,38
 514 89 514 89 515 102 c 2,39,-1
 524 217 l 1,40,-1
 580 217 l 1,10,-1
203 390 m 1,41,42
 246 392 246 392 287.5 393 c 128,-1,43
 329 394 329 394 370 395.5 c 128,-1,44
 411 397 411 397 452 398 c 1,45,-1
 452 328 l 1,46,47
 411 330 411 330 370 331.5 c 128,-1,48
 329 333 329 333 287.5 334.5 c 128,-1,49
 246 336 246 336 203 337 c 1,50,-1
 203 390 l 1,41,42
EndSplineSet
Substitution2: "'ss01' Style Set 1 lookup 61 subtable" Ecaron.alt
EndChar

StartChar: Edblgrave
Encoding: 516 516 54
Width: 640
GlyphClass: 1
Flags: W
LayerCount: 2
Fore
SplineSet
430 854 m 2,0,-1
 450 781 l 1,1,-1
 450 758 l 1,2,-1
 419 758 l 1,3,-1
 375 802 l 2,4,5
 355 822 355 822 342.5 837 c 128,-1,6
 330 852 330 852 330 871 c 256,7,8
 330 890 330 890 343 901 c 128,-1,9
 356 912 356 912 375 912 c 0,10,11
 388 912 388 912 398 906.5 c 128,-1,12
 408 901 408 901 416 888.5 c 128,-1,13
 424 876 424 876 430 854 c 2,0,-1
266 854 m 2,14,-1
 286 781 l 1,15,-1
 286 758 l 1,16,-1
 255 758 l 1,17,-1
 211 802 l 2,18,19
 191 822 191 822 178.5 837 c 128,-1,20
 166 852 166 852 166 871 c 256,21,22
 166 890 166 890 179 901 c 128,-1,23
 192 912 192 912 211 912 c 0,24,25
 224 912 224 912 234 906.5 c 128,-1,26
 244 901 244 901 252 888.5 c 128,-1,27
 260 876 260 876 266 854 c 2,14,-1
580 217 m 1,28,-1
 580 0 l 1,29,-1
 45 0 l 1,30,-1
 45 46 l 1,31,-1
 56 46 l 2,32,33
 92 46 92 46 116 53 c 128,-1,34
 140 60 140 60 140 82 c 2,35,-1
 140 628 l 2,36,37
 140 650 140 650 116 657 c 128,-1,38
 92 664 92 664 56 664 c 2,39,-1
 45 664 l 1,40,-1
 45 710 l 1,41,-1
 551 710 l 1,42,-1
 551 518 l 1,43,-1
 495 518 l 1,44,-1
 486 608 l 2,45,46
 484 626 484 626 471 636 c 128,-1,47
 458 646 458 646 431 649 c 128,-1,48
 404 652 404 652 361 652 c 2,49,-1
 232 652 l 1,50,-1
 232 58 l 1,51,-1
 390 58 l 2,52,53
 422 58 422 58 445.5 59.5 c 128,-1,54
 469 61 469 61 484 66 c 128,-1,55
 499 71 499 71 506.5 80 c 128,-1,56
 514 89 514 89 515 102 c 2,57,-1
 524 217 l 1,58,-1
 580 217 l 1,28,-1
203 390 m 1,59,60
 246 392 246 392 287.5 393 c 128,-1,61
 329 394 329 394 370 395.5 c 128,-1,62
 411 397 411 397 452 398 c 1,63,-1
 452 328 l 1,64,65
 411 330 411 330 370 331.5 c 128,-1,66
 329 333 329 333 287.5 334.5 c 128,-1,67
 246 336 246 336 203 337 c 1,68,-1
 203 390 l 1,59,60
EndSplineSet
Substitution2: "'ss01' Style Set 1 lookup 61 subtable" Edblgrave.alt
EndChar

StartChar: Einvertedbreve
Encoding: 518 518 55
Width: 640
GlyphClass: 1
Flags: W
LayerCount: 2
Fore
SplineSet
321 899 m 256,0,1
 279 899 279 899 248 883 c 128,-1,2
 217 867 217 867 199 836 c 128,-1,3
 181 805 181 805 177 759 c 1,4,-1
 234 759 l 1,5,6
 239 785 239 785 249.5 800.5 c 128,-1,7
 260 816 260 816 277 822.5 c 128,-1,8
 294 829 294 829 318 829 c 256,9,10
 342 829 342 829 359.5 822.5 c 128,-1,11
 377 816 377 816 388 800.5 c 128,-1,12
 399 785 399 785 404 759 c 1,13,-1
 466 759 l 1,14,15
 462 805 462 805 443.5 836 c 128,-1,16
 425 867 425 867 394 883 c 128,-1,17
 363 899 363 899 321 899 c 256,0,1
580 217 m 1,18,-1
 580 0 l 1,19,-1
 45 0 l 1,20,-1
 45 46 l 1,21,-1
 56 46 l 2,22,23
 92 46 92 46 116 53 c 128,-1,24
 140 60 140 60 140 82 c 2,25,-1
 140 628 l 2,26,27
 140 650 140 650 116 657 c 128,-1,28
 92 664 92 664 56 664 c 2,29,-1
 45 664 l 1,30,-1
 45 710 l 1,31,-1
 551 710 l 1,32,-1
 551 518 l 1,33,-1
 495 518 l 1,34,-1
 486 608 l 2,35,36
 484 626 484 626 471 636 c 128,-1,37
 458 646 458 646 431 649 c 128,-1,38
 404 652 404 652 361 652 c 2,39,-1
 232 652 l 1,40,-1
 232 58 l 1,41,-1
 390 58 l 2,42,43
 422 58 422 58 445.5 59.5 c 128,-1,44
 469 61 469 61 484 66 c 128,-1,45
 499 71 499 71 506.5 80 c 128,-1,46
 514 89 514 89 515 102 c 2,47,-1
 524 217 l 1,48,-1
 580 217 l 1,18,-1
203 390 m 1,49,50
 246 392 246 392 287.5 393 c 128,-1,51
 329 394 329 394 370 395.5 c 128,-1,52
 411 397 411 397 452 398 c 1,53,-1
 452 328 l 1,54,55
 411 330 411 330 370 331.5 c 128,-1,56
 329 333 329 333 287.5 334.5 c 128,-1,57
 246 336 246 336 203 337 c 1,58,-1
 203 390 l 1,49,50
EndSplineSet
Substitution2: "'ss01' Style Set 1 lookup 61 subtable" Einvertedbreve.alt
EndChar

StartChar: F
Encoding: 70 70 67
Width: 599
GlyphClass: 2
Flags: W
AnchorPoint: "Anchor-0" 312 741 basechar 0
LayerCount: 2
Fore
SplineSet
232 652 m 1,0,-1
 232 82 l 2,1,2
 232 69 232 69 240.5 61.5 c 128,-1,3
 249 54 249 54 263 51 c 128,-1,4
 277 48 277 48 294 47 c 128,-1,5
 311 46 311 46 327 46 c 2,6,-1
 344 46 l 1,7,-1
 344 0 l 1,8,-1
 45 0 l 1,9,-1
 45 46 l 1,10,-1
 56 46 l 2,11,12
 92 46 92 46 116 53 c 128,-1,13
 140 60 140 60 140 82 c 2,14,-1
 140 628 l 2,15,16
 140 650 140 650 116 657 c 128,-1,17
 92 664 92 664 56 664 c 2,18,-1
 45 664 l 1,19,-1
 45 710 l 1,20,-1
 556 710 l 1,21,-1
 556 518 l 1,22,-1
 501 518 l 1,23,-1
 492 608 l 2,24,25
 490 626 490 626 477 636 c 128,-1,26
 464 646 464 646 437 649 c 128,-1,27
 410 652 410 652 367 652 c 2,28,-1
 232 652 l 1,0,-1
203 383 m 1,29,30
 248 385 248 385 292.5 386 c 128,-1,31
 337 387 337 387 381.5 388.5 c 128,-1,32
 426 390 426 390 470 391 c 1,33,-1
 470 321 l 1,34,35
 426 323 426 323 381.5 325 c 128,-1,36
 337 327 337 327 292.5 328.5 c 128,-1,37
 248 330 248 330 203 331 c 1,38,-1
 203 383 l 1,29,30
EndSplineSet
Substitution2: "'ss01' Style Set 1 lookup 61 subtable" F.alt
EndChar

StartChar: G
Encoding: 71 71 68
Width: 773
GlyphClass: 2
Flags: W
AnchorPoint: "Anchor-1" 394 0 basechar 0
AnchorPoint: "Anchor-0" 394 741 basechar 0
LayerCount: 2
Fore
SplineSet
679 271 m 2,0,-1
 679 104 l 1,1,2
 664 85 664 85 637.5 65 c 128,-1,3
 611 45 611 45 574.5 28 c 128,-1,4
 538 11 538 11 495.5 0.5 c 128,-1,5
 453 -10 453 -10 406 -10 c 0,6,7
 325 -10 325 -10 259 16 c 128,-1,8
 193 42 193 42 145.5 90.5 c 128,-1,9
 98 139 98 139 72.5 206 c 128,-1,10
 47 273 47 273 47 355 c 0,11,12
 47 435 47 435 73.5 502 c 128,-1,13
 100 569 100 569 147.5 618 c 128,-1,14
 195 667 195 667 258 693.5 c 128,-1,15
 321 720 321 720 393 720 c 0,16,17
 459 720 459 720 509 699.5 c 128,-1,18
 559 679 559 679 592.5 641.5 c 128,-1,19
 626 604 626 604 641 553 c 1,20,-1
 605 554 l 1,21,-1
 621 710 l 1,22,-1
 680 710 l 1,23,-1
 680 496 l 1,24,-1
 614 496 l 1,25,26
 598 545 598 545 568.5 581.5 c 128,-1,27
 539 618 539 618 495.5 638.5 c 128,-1,28
 452 659 452 659 393 659 c 0,29,30
 340 659 340 659 295 637.5 c 128,-1,31
 250 616 250 616 217 576 c 128,-1,32
 184 536 184 536 165.5 480 c 128,-1,33
 147 424 147 424 147 355 c 0,34,35
 147 285 147 285 164.5 228.5 c 128,-1,36
 182 172 182 172 216 132.5 c 128,-1,37
 250 93 250 93 298 72 c 128,-1,38
 346 51 346 51 407 51 c 0,39,40
 459 51 459 51 496 63.5 c 128,-1,41
 533 76 533 76 556 92 c 128,-1,42
 579 108 579 108 589 117 c 1,43,-1
 589 271 l 2,44,45
 589 293 589 293 565 300 c 128,-1,46
 541 307 541 307 504 307 c 2,47,-1
 493 307 l 1,48,-1
 493 353 l 1,49,-1
 757 353 l 1,50,-1
 757 307 l 1,51,-1
 753 307 l 2,52,53
 722 307 722 307 700.5 300 c 128,-1,54
 679 293 679 293 679 271 c 2,0,-1
EndSplineSet
EndChar

StartChar: Gcaron
Encoding: 486 486 73
Width: 773
GlyphClass: 1
Flags: W
LayerCount: 2
Fore
SplineSet
352 758 m 1,0,-1
 442 758 l 1,1,-1
 550 892 l 1,2,-1
 550 905 l 1,3,-1
 511 905 l 1,4,-1
 397 816 l 1,5,-1
 407 816 l 1,6,-1
 293 905 l 1,7,-1
 244 905 l 1,8,-1
 244 892 l 1,9,-1
 352 758 l 1,0,-1
679 271 m 2,10,-1
 679 104 l 1,11,12
 664 85 664 85 637.5 65 c 128,-1,13
 611 45 611 45 574.5 28 c 128,-1,14
 538 11 538 11 495.5 0.5 c 128,-1,15
 453 -10 453 -10 406 -10 c 0,16,17
 325 -10 325 -10 259 16 c 128,-1,18
 193 42 193 42 145.5 90.5 c 128,-1,19
 98 139 98 139 72.5 206 c 128,-1,20
 47 273 47 273 47 355 c 0,21,22
 47 435 47 435 73.5 502 c 128,-1,23
 100 569 100 569 147.5 618 c 128,-1,24
 195 667 195 667 258 693.5 c 128,-1,25
 321 720 321 720 393 720 c 0,26,27
 459 720 459 720 509 699.5 c 128,-1,28
 559 679 559 679 592.5 641.5 c 128,-1,29
 626 604 626 604 641 553 c 1,30,-1
 605 554 l 1,31,-1
 621 710 l 1,32,-1
 680 710 l 1,33,-1
 680 496 l 1,34,-1
 614 496 l 1,35,36
 598 545 598 545 568.5 581.5 c 128,-1,37
 539 618 539 618 495.5 638.5 c 128,-1,38
 452 659 452 659 393 659 c 0,39,40
 340 659 340 659 295 637.5 c 128,-1,41
 250 616 250 616 217 576 c 128,-1,42
 184 536 184 536 165.5 480 c 128,-1,43
 147 424 147 424 147 355 c 0,44,45
 147 285 147 285 164.5 228.5 c 128,-1,46
 182 172 182 172 216 132.5 c 128,-1,47
 250 93 250 93 298 72 c 128,-1,48
 346 51 346 51 407 51 c 0,49,50
 459 51 459 51 496 63.5 c 128,-1,51
 533 76 533 76 556 92 c 128,-1,52
 579 108 579 108 589 117 c 1,53,-1
 589 271 l 2,54,55
 589 293 589 293 565 300 c 128,-1,56
 541 307 541 307 504 307 c 2,57,-1
 493 307 l 1,58,-1
 493 353 l 1,59,-1
 757 353 l 1,60,-1
 757 307 l 1,61,-1
 753 307 l 2,62,63
 722 307 722 307 700.5 300 c 128,-1,64
 679 293 679 293 679 271 c 2,10,-1
EndSplineSet
EndChar

StartChar: H
Encoding: 72 72 75
Width: 832
GlyphClass: 2
Flags: W
AnchorPoint: "Anchor-1" 416 0 basechar 0
AnchorPoint: "Anchor-0" 416 741 basechar 0
LayerCount: 2
Fore
SplineSet
201 395 m 1,0,-1
 630 395 l 1,1,-1
 630 337 l 1,2,-1
 201 337 l 1,3,-1
 201 395 l 1,0,-1
45 0 m 1,4,-1
 45 46 l 1,5,-1
 56 46 l 2,6,7
 92 46 92 46 116 53 c 128,-1,8
 140 60 140 60 140 82 c 2,9,-1
 140 628 l 2,10,11
 140 650 140 650 116 657 c 128,-1,12
 92 664 92 664 56 664 c 2,13,-1
 45 664 l 1,14,-1
 45 710 l 1,15,-1
 329 710 l 1,16,-1
 329 664 l 1,17,-1
 320 664 l 2,18,19
 306 664 306 664 290.5 663.5 c 128,-1,20
 275 663 275 663 262 661.5 c 128,-1,21
 249 660 249 660 241 658.5 c 128,-1,22
 233 657 233 657 233 654 c 2,23,-1
 233 56 l 2,24,25
 233 53 233 53 241 51.5 c 128,-1,26
 249 50 249 50 262 48.5 c 128,-1,27
 275 47 275 47 290.5 46.5 c 128,-1,28
 306 46 306 46 320 46 c 2,29,-1
 329 46 l 1,30,-1
 329 0 l 1,31,-1
 45 0 l 1,4,-1
503 0 m 1,32,-1
 503 46 l 1,33,-1
 512 46 l 2,34,35
 526 46 526 46 541 46.5 c 128,-1,36
 556 47 556 47 569 48.5 c 128,-1,37
 582 50 582 50 590 51.5 c 128,-1,38
 598 53 598 53 598 56 c 2,39,-1
 598 654 l 2,40,41
 598 657 598 657 590 658.5 c 128,-1,42
 582 660 582 660 569 661.5 c 128,-1,43
 556 663 556 663 541 663.5 c 128,-1,44
 526 664 526 664 512 664 c 2,45,-1
 503 664 l 1,46,-1
 503 710 l 1,47,-1
 787 710 l 1,48,-1
 787 664 l 1,49,-1
 776 664 l 2,50,51
 739 664 739 664 715 657 c 128,-1,52
 691 650 691 650 691 628 c 2,53,-1
 691 82 l 2,54,55
 691 60 691 60 715 53 c 128,-1,56
 739 46 739 46 776 46 c 2,57,-1
 787 46 l 1,58,-1
 787 0 l 1,59,-1
 503 0 l 1,32,-1
EndSplineSet
EndChar

StartChar: I
Encoding: 73 73 79
Width: 374
GlyphClass: 2
Flags: W
AnchorPoint: "Anchor-2" 246 0 basechar 0
AnchorPoint: "Anchor-1" 187 0 basechar 0
AnchorPoint: "Anchor-0" 187 741 basechar 0
LayerCount: 2
Fore
SplineSet
140 82 m 2,0,-1
 140 628 l 2,1,2
 140 650 140 650 116 657 c 128,-1,3
 92 664 92 664 56 664 c 2,4,-1
 45 664 l 1,5,-1
 45 710 l 1,6,-1
 329 710 l 1,7,-1
 329 664 l 1,8,-1
 318 664 l 2,9,10
 281 664 281 664 257 657 c 128,-1,11
 233 650 233 650 233 628 c 2,12,-1
 233 82 l 2,13,14
 233 60 233 60 257 53 c 128,-1,15
 281 46 281 46 318 46 c 2,16,-1
 329 46 l 1,17,-1
 329 0 l 1,18,-1
 45 0 l 1,19,-1
 45 46 l 1,20,-1
 56 46 l 2,21,22
 92 46 92 46 116 53 c 128,-1,23
 140 60 140 60 140 82 c 2,0,-1
EndSplineSet
EndChar

StartChar: Icaron
Encoding: 463 463 89
Width: 374
GlyphClass: 1
Flags: W
LayerCount: 2
Fore
SplineSet
141 758 m 1,0,-1
 231 758 l 1,1,-1
 339 892 l 1,2,-1
 339 905 l 1,3,-1
 300 905 l 1,4,-1
 186 816 l 1,5,-1
 196 816 l 1,6,-1
 83 905 l 1,7,-1
 33 905 l 1,8,-1
 33 892 l 1,9,-1
 141 758 l 1,0,-1
140 82 m 2,10,-1
 140 628 l 2,11,12
 140 650 140 650 116 657 c 128,-1,13
 92 664 92 664 56 664 c 2,14,-1
 45 664 l 1,15,-1
 45 710 l 1,16,-1
 329 710 l 1,17,-1
 329 664 l 1,18,-1
 318 664 l 2,19,20
 281 664 281 664 257 657 c 128,-1,21
 233 650 233 650 233 628 c 2,22,-1
 233 82 l 2,23,24
 233 60 233 60 257 53 c 128,-1,25
 281 46 281 46 318 46 c 2,26,-1
 329 46 l 1,27,-1
 329 0 l 1,28,-1
 45 0 l 1,29,-1
 45 46 l 1,30,-1
 56 46 l 2,31,32
 92 46 92 46 116 53 c 128,-1,33
 140 60 140 60 140 82 c 2,10,-1
EndSplineSet
EndChar

StartChar: Idblgrave
Encoding: 520 520 90
Width: 374
GlyphClass: 1
Flags: W
LayerCount: 2
Fore
SplineSet
285 854 m 2,0,-1
 305 781 l 1,1,-1
 305 758 l 1,2,-1
 274 758 l 1,3,-1
 230 802 l 2,4,5
 210 822 210 822 197.5 837 c 128,-1,6
 185 852 185 852 185 871 c 256,7,8
 185 890 185 890 198 901 c 128,-1,9
 211 912 211 912 230 912 c 0,10,11
 243 912 243 912 253 906.5 c 128,-1,12
 263 901 263 901 271 888.5 c 128,-1,13
 279 876 279 876 285 854 c 2,0,-1
121 854 m 2,14,-1
 141 781 l 1,15,-1
 141 758 l 1,16,-1
 110 758 l 1,17,-1
 66 802 l 2,18,19
 46 822 46 822 33.5 837 c 128,-1,20
 21 852 21 852 21 871 c 256,21,22
 21 890 21 890 34 901 c 128,-1,23
 47 912 47 912 66 912 c 0,24,25
 79 912 79 912 89 906.5 c 128,-1,26
 99 901 99 901 107 888.5 c 128,-1,27
 115 876 115 876 121 854 c 2,14,-1
140 82 m 2,28,-1
 140 628 l 2,29,30
 140 650 140 650 116 657 c 128,-1,31
 92 664 92 664 56 664 c 2,32,-1
 45 664 l 1,33,-1
 45 710 l 1,34,-1
 329 710 l 1,35,-1
 329 664 l 1,36,-1
 318 664 l 2,37,38
 281 664 281 664 257 657 c 128,-1,39
 233 650 233 650 233 628 c 2,40,-1
 233 82 l 2,41,42
 233 60 233 60 257 53 c 128,-1,43
 281 46 281 46 318 46 c 2,44,-1
 329 46 l 1,45,-1
 329 0 l 1,46,-1
 45 0 l 1,47,-1
 45 46 l 1,48,-1
 56 46 l 2,49,50
 92 46 92 46 116 53 c 128,-1,51
 140 60 140 60 140 82 c 2,28,-1
EndSplineSet
EndChar

StartChar: Iinvertedbreve
Encoding: 522 522 91
Width: 374
GlyphClass: 1
Flags: W
LayerCount: 2
Fore
SplineSet
186 899 m 256,0,1
 144 899 144 899 113.5 883 c 128,-1,2
 83 867 83 867 65 836 c 128,-1,3
 47 805 47 805 43 759 c 1,4,-1
 100 759 l 1,5,6
 105 785 105 785 115.5 800.5 c 128,-1,7
 126 816 126 816 142.5 822.5 c 128,-1,8
 159 829 159 829 183 829 c 0,9,10
 208 829 208 829 225 822.5 c 128,-1,11
 242 816 242 816 253 800.5 c 128,-1,12
 264 785 264 785 269 759 c 1,13,-1
 331 759 l 1,14,15
 327 805 327 805 308.5 836 c 128,-1,16
 290 867 290 867 259 883 c 128,-1,17
 228 899 228 899 186 899 c 256,0,1
140 82 m 2,18,-1
 140 628 l 2,19,20
 140 650 140 650 116 657 c 128,-1,21
 92 664 92 664 56 664 c 2,22,-1
 45 664 l 1,23,-1
 45 710 l 1,24,-1
 329 710 l 1,25,-1
 329 664 l 1,26,-1
 318 664 l 2,27,28
 281 664 281 664 257 657 c 128,-1,29
 233 650 233 650 233 628 c 2,30,-1
 233 82 l 2,31,32
 233 60 233 60 257 53 c 128,-1,33
 281 46 281 46 318 46 c 2,34,-1
 329 46 l 1,35,-1
 329 0 l 1,36,-1
 45 0 l 1,37,-1
 45 46 l 1,38,-1
 56 46 l 2,39,40
 92 46 92 46 116 53 c 128,-1,41
 140 60 140 60 140 82 c 2,18,-1
EndSplineSet
EndChar

StartChar: J
Encoding: 74 74 94
Width: 565
GlyphClass: 2
Flags: W
AnchorPoint: "Anchor-0" 380 741 basechar 0
LayerCount: 2
Fore
SplineSet
232 710 m 1,0,-1
 524 710 l 1,1,-1
 524 664 l 1,2,-1
 513 664 l 2,3,4
 476 664 476 664 452 657 c 128,-1,5
 428 650 428 650 428 628 c 2,6,-1
 428 242 l 2,7,8
 428 171 428 171 413 122.5 c 128,-1,9
 398 74 398 74 369.5 45 c 128,-1,10
 341 16 341 16 301 3 c 128,-1,11
 261 -10 261 -10 211 -10 c 0,12,13
 170 -10 170 -10 136 0 c 128,-1,14
 102 10 102 10 76 26 c 128,-1,15
 50 42 50 42 33 60 c 1,16,-1
 33 164 l 1,17,-1
 126 164 l 1,18,-1
 126 66 l 1,19,20
 108 71 108 71 97 78.5 c 128,-1,21
 86 86 86 86 83.5 93 c 128,-1,22
 81 100 81 100 86.5 103 c 128,-1,23
 92 106 92 106 105 102 c 1,24,25
 114 88 114 88 128.5 75.5 c 128,-1,26
 143 63 143 63 163.5 56 c 128,-1,27
 184 49 184 49 211 49 c 0,28,29
 252 49 252 49 280 65.5 c 128,-1,30
 308 82 308 82 323 124 c 128,-1,31
 338 166 338 166 338 242 c 2,32,-1
 338 628 l 2,33,34
 338 643 338 643 327 650.5 c 128,-1,35
 316 658 316 658 297 661 c 128,-1,36
 278 664 278 664 253 664 c 2,37,-1
 232 664 l 1,38,-1
 232 710 l 1,0,-1
EndSplineSet
EndChar

StartChar: K
Encoding: 75 75 96
Width: 727
GlyphClass: 2
Flags: W
AnchorPoint: "Anchor-1" 375 0 basechar 0
AnchorPoint: "Anchor-0" 375 741 basechar 0
LayerCount: 2
Fore
SplineSet
45 0 m 1,0,-1
 45 46 l 1,1,-1
 56 46 l 2,2,3
 92 46 92 46 116 53 c 128,-1,4
 140 60 140 60 140 82 c 2,5,-1
 140 628 l 2,6,7
 140 650 140 650 116 657 c 128,-1,8
 92 664 92 664 56 664 c 2,9,-1
 45 664 l 1,10,-1
 45 710 l 1,11,-1
 329 710 l 1,12,-1
 329 664 l 1,13,-1
 320 664 l 2,14,15
 306 664 306 664 290.5 663.5 c 128,-1,16
 275 663 275 663 262 661.5 c 128,-1,17
 249 660 249 660 241 658.5 c 128,-1,18
 233 657 233 657 233 654 c 2,19,-1
 233 56 l 2,20,21
 233 53 233 53 241 51.5 c 128,-1,22
 249 50 249 50 262 48.5 c 128,-1,23
 275 47 275 47 290.5 46.5 c 128,-1,24
 306 46 306 46 320 46 c 2,25,-1
 329 46 l 1,26,-1
 329 0 l 1,27,-1
 45 0 l 1,0,-1
423 0 m 1,28,-1
 423 46 l 1,29,-1
 432 46 l 2,30,31
 451 46 451 46 470 47 c 128,-1,32
 489 48 489 48 502.5 50.5 c 128,-1,33
 516 53 516 53 516 56 c 2,34,-1
 265 347 l 1,35,-1
 265 364 l 1,36,-1
 527 653 l 2,37,38
 526 657 526 657 514 659 c 128,-1,39
 502 661 502 661 484.5 662.5 c 128,-1,40
 467 664 467 664 448 664 c 2,41,-1
 439 664 l 1,42,-1
 439 710 l 1,43,-1
 683 710 l 1,44,-1
 683 664 l 1,45,-1
 667 664 l 2,46,47
 649 664 649 664 635 661 c 128,-1,48
 621 658 621 658 610 652 c 128,-1,49
 599 646 599 646 588 634 c 2,50,-1
 335 357 l 1,51,-1
 335 402 l 1,52,-1
 613 80 l 2,53,54
 626 66 626 66 637.5 58.5 c 128,-1,55
 649 51 649 51 664.5 48.5 c 128,-1,56
 680 46 680 46 702 46 c 2,57,-1
 712 46 l 1,58,-1
 712 0 l 1,59,-1
 423 0 l 1,28,-1
EndSplineSet
EndChar

StartChar: L
Encoding: 76 76 98
Width: 618
GlyphClass: 2
Flags: W
AnchorPoint: "Anchor-2" 470 710 basechar 0
AnchorPoint: "Anchor-1" 378 0 basechar 0
AnchorPoint: "Anchor-0" 378 741 basechar 0
LayerCount: 2
Fore
SplineSet
333 710 m 1,0,-1
 45 710 l 1,1,-1
 45 664 l 1,2,-1
 56 664 l 2,3,4
 92 664 92 664 116 657 c 128,-1,5
 140 650 140 650 140 628 c 2,6,-1
 140 82 l 2,7,8
 140 60 140 60 116 53 c 128,-1,9
 92 46 92 46 56 46 c 2,10,-1
 45 46 l 1,11,-1
 45 0 l 1,12,-1
 575 0 l 1,13,-1
 575 224 l 1,14,-1
 516 224 l 1,15,-1
 506 102 l 2,16,17
 505 84 505 84 491.5 74.5 c 128,-1,18
 478 65 478 65 451 61.5 c 128,-1,19
 424 58 424 58 381 58 c 2,20,-1
 233 58 l 1,21,-1
 233 628 l 2,22,23
 233 650 233 650 258 657 c 128,-1,24
 283 664 283 664 322 664 c 2,25,-1
 333 664 l 1,26,-1
 333 710 l 1,0,-1
EndSplineSet
EndChar

StartChar: M
Encoding: 77 77 104
Width: 951
GlyphClass: 2
Flags: W
AnchorPoint: "Anchor-1" 464 0 basechar 0
LayerCount: 2
Fore
SplineSet
45 0 m 1,0,-1
 45 46 l 1,1,-1
 56 46 l 2,2,3
 81 46 81 46 99.5 49.5 c 128,-1,4
 118 53 118 53 129 61 c 128,-1,5
 140 69 140 69 140 83 c 2,6,-1
 140 628 l 2,7,8
 140 643 140 643 129 650.5 c 128,-1,9
 118 658 118 658 99.5 661 c 128,-1,10
 81 664 81 664 56 664 c 2,11,-1
 45 664 l 1,12,-1
 45 710 l 1,13,-1
 284 710 l 1,14,-1
 485 88 l 1,15,-1
 466 91 l 1,16,-1
 672 710 l 1,17,-1
 907 710 l 1,18,-1
 907 664 l 1,19,-1
 896 664 l 2,20,21
 859 664 859 664 835 657 c 128,-1,22
 811 650 811 650 811 628 c 2,23,-1
 811 82 l 2,24,25
 811 60 811 60 835 53 c 128,-1,26
 859 46 859 46 896 46 c 2,27,-1
 907 46 l 1,28,-1
 907 0 l 1,29,-1
 632 0 l 1,30,-1
 632 46 l 1,31,-1
 641 46 l 2,32,33
 660 46 660 46 677.5 47 c 128,-1,34
 695 48 695 48 706.5 50.5 c 128,-1,35
 718 53 718 53 718 56 c 2,36,-1
 718 689 l 1,37,-1
 728 687 l 1,38,-1
 491 -2 l 1,39,-1
 432 -2 l 1,40,-1
 195 688 l 1,41,-1
 205 686 l 1,42,-1
 205 57 l 2,43,44
 205 54 205 54 218 51.5 c 128,-1,45
 231 49 231 49 250.5 47.5 c 128,-1,46
 270 46 270 46 286 46 c 2,47,-1
 291 46 l 1,48,-1
 291 0 l 1,49,-1
 45 0 l 1,0,-1
EndSplineSet
EndChar

StartChar: N
Encoding: 78 78 106
Width: 798
GlyphClass: 2
Flags: W
AnchorPoint: "Anchor-1" 408 0 basechar 0
AnchorPoint: "Anchor-0" 408 741 basechar 0
LayerCount: 2
Fore
SplineSet
45 0 m 1,0,-1
 45 46 l 1,1,-1
 56 46 l 2,2,3
 81 46 81 46 99.5 50.5 c 128,-1,4
 118 55 118 55 129 64.5 c 128,-1,5
 140 74 140 74 140 88 c 2,6,-1
 140 628 l 2,7,8
 140 643 140 643 129 650.5 c 128,-1,9
 118 658 118 658 99 661 c 128,-1,10
 80 664 80 664 56 664 c 2,11,-1
 45 664 l 1,12,-1
 45 710 l 1,13,-1
 267 710 l 1,14,-1
 613 93 l 1,15,-1
 602 90 l 1,16,-1
 602 648 l 2,17,18
 602 652 602 652 588 655.5 c 128,-1,19
 574 659 574 659 553 661.5 c 128,-1,20
 532 664 532 664 510 664 c 2,21,-1
 496 664 l 1,22,-1
 496 710 l 1,23,-1
 762 710 l 1,24,-1
 762 664 l 1,25,-1
 750 664 l 2,26,27
 726 664 726 664 706.5 659.5 c 128,-1,28
 687 655 687 655 676 646 c 128,-1,29
 665 637 665 637 665 622 c 2,30,-1
 665 0 l 1,31,-1
 570 0 l 1,32,-1
 192 671 l 1,33,-1
 205 675 l 1,34,-1
 205 62 l 2,35,36
 205 59 205 59 218.5 55 c 128,-1,37
 232 51 232 51 253.5 48.5 c 128,-1,38
 275 46 275 46 296 46 c 2,39,-1
 310 46 l 1,40,-1
 310 0 l 1,41,-1
 45 0 l 1,0,-1
EndSplineSet
EndChar

StartChar: Ncaron
Encoding: 327 327 110
Width: 798
GlyphClass: 1
Flags: W
LayerCount: 2
Fore
SplineSet
354 758 m 1,0,-1
 444 758 l 1,1,-1
 552 892 l 1,2,-1
 552 905 l 1,3,-1
 512 905 l 1,4,-1
 399 816 l 1,5,-1
 409 816 l 1,6,-1
 295 905 l 1,7,-1
 246 905 l 1,8,-1
 246 892 l 1,9,-1
 354 758 l 1,0,-1
45 0 m 1,10,-1
 45 46 l 1,11,-1
 56 46 l 2,12,13
 81 46 81 46 99.5 50.5 c 128,-1,14
 118 55 118 55 129 64.5 c 128,-1,15
 140 74 140 74 140 88 c 2,16,-1
 140 628 l 2,17,18
 140 643 140 643 129 650.5 c 128,-1,19
 118 658 118 658 99 661 c 128,-1,20
 80 664 80 664 56 664 c 2,21,-1
 45 664 l 1,22,-1
 45 710 l 1,23,-1
 267 710 l 1,24,-1
 613 93 l 1,25,-1
 602 90 l 1,26,-1
 602 648 l 2,27,28
 602 652 602 652 588 655.5 c 128,-1,29
 574 659 574 659 553 661.5 c 128,-1,30
 532 664 532 664 510 664 c 2,31,-1
 496 664 l 1,32,-1
 496 710 l 1,33,-1
 762 710 l 1,34,-1
 762 664 l 1,35,-1
 750 664 l 2,36,37
 726 664 726 664 706.5 659.5 c 128,-1,38
 687 655 687 655 676 646 c 128,-1,39
 665 637 665 637 665 622 c 2,40,-1
 665 0 l 1,41,-1
 570 0 l 1,42,-1
 192 671 l 1,43,-1
 205 675 l 1,44,-1
 205 62 l 2,45,46
 205 59 205 59 218.5 55 c 128,-1,47
 232 51 232 51 253.5 48.5 c 128,-1,48
 275 46 275 46 296 46 c 2,49,-1
 310 46 l 1,50,-1
 310 0 l 1,51,-1
 45 0 l 1,10,-1
EndSplineSet
EndChar

StartChar: O
Encoding: 79 79 114
Width: 794
GlyphClass: 2
Flags: W
AnchorPoint: "Anchor-2" 437 0 basechar 0
AnchorPoint: "Anchor-1" 397 0 basechar 0
AnchorPoint: "Anchor-0" 397 741 basechar 0
LayerCount: 2
Fore
SplineSet
397 -10 m 256,0,1
 323 -10 323 -10 259.5 16.5 c 128,-1,2
 196 43 196 43 148 91.5 c 128,-1,3
 100 140 100 140 73.5 207 c 128,-1,4
 47 274 47 274 47 355 c 256,5,6
 47 436 47 436 73.5 503 c 128,-1,7
 100 570 100 570 148 618.5 c 128,-1,8
 196 667 196 667 259.5 693.5 c 128,-1,9
 323 720 323 720 397 720 c 256,10,11
 471 720 471 720 534.5 693.5 c 128,-1,12
 598 667 598 667 646 618.5 c 128,-1,13
 694 570 694 570 720.5 503 c 128,-1,14
 747 436 747 436 747 355 c 256,15,16
 747 274 747 274 720.5 207 c 128,-1,17
 694 140 694 140 646 91.5 c 128,-1,18
 598 43 598 43 534.5 16.5 c 128,-1,19
 471 -10 471 -10 397 -10 c 256,0,1
397 49 m 256,20,21
 451 49 451 49 497 70 c 128,-1,22
 543 91 543 91 576.5 131.5 c 128,-1,23
 610 172 610 172 628.5 228.5 c 128,-1,24
 647 285 647 285 647 355 c 256,25,26
 647 425 647 425 628.5 481.5 c 128,-1,27
 610 538 610 538 576.5 578.5 c 128,-1,28
 543 619 543 619 497 640 c 128,-1,29
 451 661 451 661 397 661 c 256,30,31
 343 661 343 661 297 640 c 128,-1,32
 251 619 251 619 217.5 578.5 c 128,-1,33
 184 538 184 538 165.5 481.5 c 128,-1,34
 147 425 147 425 147 355 c 256,35,36
 147 285 147 285 165.5 228.5 c 128,-1,37
 184 172 184 172 217.5 131.5 c 128,-1,38
 251 91 251 91 297 70 c 128,-1,39
 343 49 343 49 397 49 c 256,20,21
EndSplineSet
EndChar

StartChar: Ohorn
Encoding: 416 416 123
Width: 798
GlyphClass: 2
Flags: W
AnchorPoint: "Anchor-1" 396 -35 basechar 0
AnchorPoint: "Anchor-0" 396 742 basechar 0
LayerCount: 2
Fore
SplineSet
396 49 m 256,0,1
 451 49 451 49 497 70 c 128,-1,2
 543 91 543 91 577 131.5 c 128,-1,3
 611 172 611 172 629.5 228.5 c 128,-1,4
 648 285 648 285 648 355 c 256,5,6
 648 425 648 425 629.5 481.5 c 128,-1,7
 611 538 611 538 577 578.5 c 128,-1,8
 543 619 543 619 497 640 c 128,-1,9
 451 661 451 661 396 661 c 256,10,11
 341 661 341 661 295 640 c 128,-1,12
 249 619 249 619 215.5 578.5 c 128,-1,13
 182 538 182 538 163.5 481.5 c 128,-1,14
 145 425 145 425 145 355 c 256,15,16
 145 285 145 285 163.5 228.5 c 128,-1,17
 182 172 182 172 215.5 131.5 c 128,-1,18
 249 91 249 91 295 70 c 128,-1,19
 341 49 341 49 396 49 c 256,0,1
572 651 m 1,20,-1
 557 664 l 1,21,22
 600 645 600 645 634.5 614.5 c 128,-1,23
 669 584 669 584 694 544.5 c 128,-1,24
 719 505 719 505 732.5 456.5 c 128,-1,25
 746 408 746 408 746 355 c 0,26,27
 746 274 746 274 719.5 207 c 128,-1,28
 693 140 693 140 645 91.5 c 128,-1,29
 597 43 597 43 533.5 16.5 c 128,-1,30
 470 -10 470 -10 396 -10 c 0,31,32
 323 -10 323 -10 259.5 16.5 c 128,-1,33
 196 43 196 43 148 91.5 c 128,-1,34
 100 140 100 140 73.5 207 c 128,-1,35
 47 274 47 274 47 355 c 256,36,37
 47 436 47 436 73.5 503 c 128,-1,38
 100 570 100 570 148 618.5 c 128,-1,39
 196 667 196 667 259.5 693.5 c 128,-1,40
 323 720 323 720 396 720 c 0,41,42
 420 720 420 720 440.5 717.5 c 128,-1,43
 461 715 461 715 479.5 712 c 128,-1,44
 498 709 498 709 515 706.5 c 128,-1,45
 532 704 532 704 548 704 c 0,46,47
 584 704 584 704 609.5 717.5 c 128,-1,48
 635 731 635 731 653 754 c 128,-1,49
 671 777 671 777 681.5 808.5 c 128,-1,50
 692 840 692 840 696 876 c 1,51,-1
 781 876 l 1,52,53
 775 821 775 821 759 780 c 128,-1,54
 743 739 743 739 718 711.5 c 128,-1,55
 693 684 693 684 662 670 c 128,-1,56
 631 656 631 656 596 656 c 0,57,58
 591 656 591 656 586 657 c 128,-1,59
 581 658 581 658 576 658.5 c 128,-1,60
 571 659 571 659 566 660 c 128,-1,61
 561 661 561 661 556 662 c 1,62,-1
 572 665 l 1,63,-1
 572 651 l 1,20,-1
EndSplineSet
EndChar

StartChar: Ocaron
Encoding: 465 465 124
Width: 794
GlyphClass: 1
Flags: W
LayerCount: 2
Fore
SplineSet
352 758 m 1,0,-1
 442 758 l 1,1,-1
 550 892 l 1,2,-1
 550 905 l 1,3,-1
 510 905 l 1,4,-1
 397 816 l 1,5,-1
 407 816 l 1,6,-1
 293 905 l 1,7,-1
 244 905 l 1,8,-1
 244 892 l 1,9,-1
 352 758 l 1,0,-1
397 -10 m 256,10,11
 323 -10 323 -10 259.5 16.5 c 128,-1,12
 196 43 196 43 148 91.5 c 128,-1,13
 100 140 100 140 73.5 207 c 128,-1,14
 47 274 47 274 47 355 c 256,15,16
 47 436 47 436 73.5 503 c 128,-1,17
 100 570 100 570 148 618.5 c 128,-1,18
 196 667 196 667 259.5 693.5 c 128,-1,19
 323 720 323 720 397 720 c 256,20,21
 471 720 471 720 534.5 693.5 c 128,-1,22
 598 667 598 667 646 618.5 c 128,-1,23
 694 570 694 570 720.5 503 c 128,-1,24
 747 436 747 436 747 355 c 256,25,26
 747 274 747 274 720.5 207 c 128,-1,27
 694 140 694 140 646 91.5 c 128,-1,28
 598 43 598 43 534.5 16.5 c 128,-1,29
 471 -10 471 -10 397 -10 c 256,10,11
397 49 m 256,30,31
 451 49 451 49 497 70 c 128,-1,32
 543 91 543 91 576.5 131.5 c 128,-1,33
 610 172 610 172 628.5 228.5 c 128,-1,34
 647 285 647 285 647 355 c 256,35,36
 647 425 647 425 628.5 481.5 c 128,-1,37
 610 538 610 538 576.5 578.5 c 128,-1,38
 543 619 543 619 497 640 c 128,-1,39
 451 661 451 661 397 661 c 256,40,41
 343 661 343 661 297 640 c 128,-1,42
 251 619 251 619 217.5 578.5 c 128,-1,43
 184 538 184 538 165.5 481.5 c 128,-1,44
 147 425 147 425 147 355 c 256,45,46
 147 285 147 285 165.5 228.5 c 128,-1,47
 184 172 184 172 217.5 131.5 c 128,-1,48
 251 91 251 91 297 70 c 128,-1,49
 343 49 343 49 397 49 c 256,30,31
EndSplineSet
EndChar

StartChar: Oogonek
Encoding: 490 490 125
Width: 794
GlyphClass: 1
Flags: W
LayerCount: 2
Fore
SplineSet
397 49 m 256,0,1
 451 49 451 49 497 70 c 128,-1,2
 543 91 543 91 576.5 131.5 c 128,-1,3
 610 172 610 172 628.5 228.5 c 128,-1,4
 647 285 647 285 647 355 c 256,5,6
 647 425 647 425 628.5 481.5 c 128,-1,7
 610 538 610 538 576.5 578.5 c 128,-1,8
 543 619 543 619 497 640 c 128,-1,9
 451 661 451 661 397 661 c 0,10,11
 342 661 342 661 296.5 640 c 128,-1,12
 251 619 251 619 217.5 578.5 c 128,-1,13
 184 538 184 538 165.5 481.5 c 128,-1,14
 147 425 147 425 147 355 c 256,15,16
 147 285 147 285 165.5 228.5 c 128,-1,17
 184 172 184 172 217.5 131.5 c 128,-1,18
 251 91 251 91 297 70 c 128,-1,19
 343 49 343 49 397 49 c 256,0,1
627 75 m 0,20,21
 604 53 604 53 576 33.5 c 128,-1,22
 548 14 548 14 520 -4.5 c 128,-1,23
 492 -23 492 -23 469.5 -43 c 128,-1,24
 447 -63 447 -63 433.5 -86 c 128,-1,25
 420 -109 420 -109 420 -136 c 0,26,27
 420 -161 420 -161 431.5 -173 c 128,-1,28
 443 -185 443 -185 460 -185 c 256,29,30
 477 -185 477 -185 490 -175.5 c 128,-1,31
 503 -166 503 -166 513 -156 c 1,32,-1
 542 -190 l 1,33,34
 530 -203 530 -203 515.5 -213.5 c 128,-1,35
 501 -224 501 -224 482.5 -230 c 128,-1,36
 464 -236 464 -236 438 -236 c 0,37,38
 407 -236 407 -236 382.5 -225 c 128,-1,39
 358 -214 358 -214 344 -193.5 c 128,-1,40
 330 -173 330 -173 330 -145 c 0,41,42
 330 -119 330 -119 343 -95.5 c 128,-1,43
 356 -72 356 -72 381 -50.5 c 128,-1,44
 406 -29 406 -29 441.5 -8.5 c 128,-1,45
 477 12 477 12 521 31 c 1,46,-1
 512 9 l 1,47,48
 495 3 495 3 476 -1.5 c 128,-1,49
 457 -6 457 -6 437 -8 c 128,-1,50
 417 -10 417 -10 397 -10 c 0,51,52
 323 -10 323 -10 259.5 16.5 c 128,-1,53
 196 43 196 43 148 91.5 c 128,-1,54
 100 140 100 140 73.5 207 c 128,-1,55
 47 274 47 274 47 355 c 256,56,57
 47 436 47 436 73.5 503 c 128,-1,58
 100 570 100 570 148 618.5 c 128,-1,59
 196 667 196 667 259.5 693.5 c 128,-1,60
 323 720 323 720 397 720 c 256,61,62
 471 720 471 720 534.5 693.5 c 128,-1,63
 598 667 598 667 646 618.5 c 128,-1,64
 694 570 694 570 720.5 503 c 128,-1,65
 747 436 747 436 747 355 c 0,66,67
 747 299 747 299 733.5 247.5 c 128,-1,68
 720 196 720 196 693.5 152.5 c 128,-1,69
 667 109 667 109 627 75 c 0,20,21
EndSplineSet
EndChar

StartChar: Odblgrave
Encoding: 524 524 126
Width: 794
GlyphClass: 1
Flags: W
LayerCount: 2
Fore
SplineSet
503 854 m 2,0,-1
 523 781 l 1,1,-1
 523 758 l 1,2,-1
 492 758 l 1,3,-1
 448 802 l 2,4,5
 428 822 428 822 415.5 837 c 128,-1,6
 403 852 403 852 403 871 c 256,7,8
 403 890 403 890 416 901 c 128,-1,9
 429 912 429 912 448 912 c 0,10,11
 461 912 461 912 471 906.5 c 128,-1,12
 481 901 481 901 489 888.5 c 128,-1,13
 497 876 497 876 503 854 c 2,0,-1
339 854 m 2,14,-1
 359 781 l 1,15,-1
 359 758 l 1,16,-1
 328 758 l 1,17,-1
 284 802 l 2,18,19
 264 822 264 822 251.5 837 c 128,-1,20
 239 852 239 852 239 871 c 256,21,22
 239 890 239 890 252 901 c 128,-1,23
 265 912 265 912 284 912 c 0,24,25
 297 912 297 912 307 906.5 c 128,-1,26
 317 901 317 901 325 888.5 c 128,-1,27
 333 876 333 876 339 854 c 2,14,-1
397 -10 m 256,28,29
 323 -10 323 -10 259.5 16.5 c 128,-1,30
 196 43 196 43 148 91.5 c 128,-1,31
 100 140 100 140 73.5 207 c 128,-1,32
 47 274 47 274 47 355 c 256,33,34
 47 436 47 436 73.5 503 c 128,-1,35
 100 570 100 570 148 618.5 c 128,-1,36
 196 667 196 667 259.5 693.5 c 128,-1,37
 323 720 323 720 397 720 c 256,38,39
 471 720 471 720 534.5 693.5 c 128,-1,40
 598 667 598 667 646 618.5 c 128,-1,41
 694 570 694 570 720.5 503 c 128,-1,42
 747 436 747 436 747 355 c 256,43,44
 747 274 747 274 720.5 207 c 128,-1,45
 694 140 694 140 646 91.5 c 128,-1,46
 598 43 598 43 534.5 16.5 c 128,-1,47
 471 -10 471 -10 397 -10 c 256,28,29
397 49 m 256,48,49
 451 49 451 49 497 70 c 128,-1,50
 543 91 543 91 576.5 131.5 c 128,-1,51
 610 172 610 172 628.5 228.5 c 128,-1,52
 647 285 647 285 647 355 c 256,53,54
 647 425 647 425 628.5 481.5 c 128,-1,55
 610 538 610 538 576.5 578.5 c 128,-1,56
 543 619 543 619 497 640 c 128,-1,57
 451 661 451 661 397 661 c 256,58,59
 343 661 343 661 297 640 c 128,-1,60
 251 619 251 619 217.5 578.5 c 128,-1,61
 184 538 184 538 165.5 481.5 c 128,-1,62
 147 425 147 425 147 355 c 256,63,64
 147 285 147 285 165.5 228.5 c 128,-1,65
 184 172 184 172 217.5 131.5 c 128,-1,66
 251 91 251 91 297 70 c 128,-1,67
 343 49 343 49 397 49 c 256,48,49
EndSplineSet
EndChar

StartChar: Oinvertedbreve
Encoding: 526 526 127
Width: 794
GlyphClass: 1
Flags: W
LayerCount: 2
Fore
SplineSet
397 899 m 256,0,1
 355 899 355 899 324 883 c 128,-1,2
 293 867 293 867 275 836 c 128,-1,3
 257 805 257 805 253 759 c 1,4,-1
 310 759 l 1,5,6
 315 785 315 785 325 800.5 c 128,-1,7
 335 816 335 816 352.5 822.5 c 128,-1,8
 370 829 370 829 394 829 c 256,9,10
 418 829 418 829 435 822.5 c 128,-1,11
 452 816 452 816 463.5 800.5 c 128,-1,12
 475 785 475 785 480 759 c 1,13,-1
 542 759 l 1,14,15
 538 805 538 805 519.5 836 c 128,-1,16
 501 867 501 867 470 883 c 128,-1,17
 439 899 439 899 397 899 c 256,0,1
397 -10 m 256,18,19
 323 -10 323 -10 259.5 16.5 c 128,-1,20
 196 43 196 43 148 91.5 c 128,-1,21
 100 140 100 140 73.5 207 c 128,-1,22
 47 274 47 274 47 355 c 256,23,24
 47 436 47 436 73.5 503 c 128,-1,25
 100 570 100 570 148 618.5 c 128,-1,26
 196 667 196 667 259.5 693.5 c 128,-1,27
 323 720 323 720 397 720 c 256,28,29
 471 720 471 720 534.5 693.5 c 128,-1,30
 598 667 598 667 646 618.5 c 128,-1,31
 694 570 694 570 720.5 503 c 128,-1,32
 747 436 747 436 747 355 c 256,33,34
 747 274 747 274 720.5 207 c 128,-1,35
 694 140 694 140 646 91.5 c 128,-1,36
 598 43 598 43 534.5 16.5 c 128,-1,37
 471 -10 471 -10 397 -10 c 256,18,19
397 49 m 256,38,39
 451 49 451 49 497 70 c 128,-1,40
 543 91 543 91 576.5 131.5 c 128,-1,41
 610 172 610 172 628.5 228.5 c 128,-1,42
 647 285 647 285 647 355 c 256,43,44
 647 425 647 425 628.5 481.5 c 128,-1,45
 610 538 610 538 576.5 578.5 c 128,-1,46
 543 619 543 619 497 640 c 128,-1,47
 451 661 451 661 397 661 c 256,48,49
 343 661 343 661 297 640 c 128,-1,50
 251 619 251 619 217.5 578.5 c 128,-1,51
 184 538 184 538 165.5 481.5 c 128,-1,52
 147 425 147 425 147 355 c 256,53,54
 147 285 147 285 165.5 228.5 c 128,-1,55
 184 172 184 172 217.5 131.5 c 128,-1,56
 251 91 251 91 297 70 c 128,-1,57
 343 49 343 49 397 49 c 256,38,39
EndSplineSet
EndChar

StartChar: P
Encoding: 80 80 147
Width: 645
GlyphClass: 2
Flags: W
AnchorPoint: "Anchor-0" 319 741 basechar 0
LayerCount: 2
Fore
SplineSet
235 57 m 2,0,-1
 235 652 l 1,1,-1
 342 652 l 2,2,3
 398 652 398 652 434.5 634 c 128,-1,4
 471 616 471 616 489 582.5 c 128,-1,5
 507 549 507 549 507 500 c 0,6,7
 507 452 507 452 488.5 416 c 128,-1,8
 470 380 470 380 432.5 360 c 128,-1,9
 395 340 395 340 337 340 c 2,10,-1
 205 340 l 1,11,-1
 205 284 l 1,12,-1
 339 284 l 2,13,14
 422 284 422 284 482 312 c 128,-1,15
 542 340 542 340 574.5 388.5 c 128,-1,16
 607 437 607 437 607 501 c 0,17,18
 607 596 607 596 538 653 c 128,-1,19
 469 710 469 710 344 710 c 2,20,-1
 48 710 l 1,21,-1
 48 664 l 1,22,-1
 58 664 l 2,23,24
 95 664 95 664 119 657 c 128,-1,25
 143 650 143 650 143 628 c 2,26,-1
 143 82 l 2,27,28
 143 60 143 60 119 53 c 128,-1,29
 95 46 95 46 58 46 c 2,30,-1
 48 46 l 1,31,-1
 48 0 l 1,32,-1
 339 0 l 1,33,-1
 339 46 l 1,34,-1
 313 46 l 2,35,36
 300 46 300 46 286 46.5 c 128,-1,37
 272 47 272 47 260.5 49 c 128,-1,38
 249 51 249 51 242 52.5 c 128,-1,39
 235 54 235 54 235 57 c 2,0,-1
EndSplineSet
EndChar

StartChar: Q
Encoding: 81 81 148
Width: 794
GlyphClass: 1
Flags: W
LayerCount: 2
Fore
SplineSet
360 3 m 1,0,-1
 428 10 l 1,1,2
 426 -32 426 -32 442.5 -57.5 c 128,-1,3
 459 -83 459 -83 490.5 -94.5 c 128,-1,4
 522 -106 522 -106 563 -106 c 0,5,6
 597 -106 597 -106 622.5 -102 c 128,-1,7
 648 -98 648 -98 671 -91.5 c 128,-1,8
 694 -85 694 -85 718 -78 c 1,9,-1
 718 -168 l 1,10,11
 685 -175 685 -175 649 -179.5 c 128,-1,12
 613 -184 613 -184 576 -184 c 0,13,14
 512 -184 512 -184 461.5 -165.5 c 128,-1,15
 411 -147 411 -147 384 -105.5 c 128,-1,16
 357 -64 357 -64 360 3 c 1,0,-1
397 -10 m 256,17,18
 323 -10 323 -10 259.5 16.5 c 128,-1,19
 196 43 196 43 148 91.5 c 128,-1,20
 100 140 100 140 73.5 207 c 128,-1,21
 47 274 47 274 47 355 c 256,22,23
 47 436 47 436 73.5 503 c 128,-1,24
 100 570 100 570 148 618.5 c 128,-1,25
 196 667 196 667 259.5 693.5 c 128,-1,26
 323 720 323 720 397 720 c 256,27,28
 471 720 471 720 534.5 693.5 c 128,-1,29
 598 667 598 667 646 618.5 c 128,-1,30
 694 570 694 570 720.5 503 c 128,-1,31
 747 436 747 436 747 355 c 256,32,33
 747 274 747 274 720.5 207 c 128,-1,34
 694 140 694 140 646 91.5 c 128,-1,35
 598 43 598 43 534.5 16.5 c 128,-1,36
 471 -10 471 -10 397 -10 c 256,17,18
397 49 m 256,37,38
 451 49 451 49 497 70 c 128,-1,39
 543 91 543 91 576.5 131.5 c 128,-1,40
 610 172 610 172 628.5 228.5 c 128,-1,41
 647 285 647 285 647 355 c 256,42,43
 647 425 647 425 628.5 481.5 c 128,-1,44
 610 538 610 538 576.5 578.5 c 128,-1,45
 543 619 543 619 497 640 c 128,-1,46
 451 661 451 661 397 661 c 256,47,48
 343 661 343 661 297 640 c 128,-1,49
 251 619 251 619 217.5 578.5 c 128,-1,50
 184 538 184 538 165.5 481.5 c 128,-1,51
 147 425 147 425 147 355 c 256,52,53
 147 285 147 285 165.5 228.5 c 128,-1,54
 184 172 184 172 217.5 131.5 c 128,-1,55
 251 91 251 91 297 70 c 128,-1,56
 343 49 343 49 397 49 c 256,37,38
EndSplineSet
EndChar

StartChar: R
Encoding: 82 82 149
Width: 694
GlyphClass: 2
Flags: W
AnchorPoint: "Anchor-1" 388 0 basechar 0
AnchorPoint: "Anchor-0" 321 741 basechar 0
LayerCount: 2
Fore
SplineSet
357 321 m 1,0,-1
 525 0 l 1,1,-1
 671 0 l 1,2,-1
 671 46 l 1,3,-1
 663 46 l 2,4,5
 647 46 647 46 633 48 c 128,-1,6
 619 50 619 50 609.5 56 c 128,-1,7
 600 62 600 62 593 75 c 2,8,-1
 446 336 l 1,9,-1
 357 321 l 1,0,-1
232 56 m 2,10,-1
 232 652 l 1,11,-1
 331 652 l 2,12,13
 384 652 384 652 419.5 634.5 c 128,-1,14
 455 617 455 617 473 584 c 128,-1,15
 491 551 491 551 491 506 c 0,16,17
 491 460 491 460 473.5 426.5 c 128,-1,18
 456 393 456 393 420 375 c 128,-1,19
 384 357 384 357 327 357 c 2,20,-1
 212 357 l 1,21,-1
 212 302 l 1,22,-1
 327 302 l 2,23,24
 343 302 343 302 359 303.5 c 128,-1,25
 375 305 375 305 389.5 306.5 c 128,-1,26
 404 308 404 308 418 311 c 0,27,28
 472 324 472 324 510.5 351.5 c 128,-1,29
 549 379 549 379 570 418 c 128,-1,30
 591 457 591 457 591 506 c 0,31,32
 591 567 591 567 560 613 c 128,-1,33
 529 659 529 659 471.5 684.5 c 128,-1,34
 414 710 414 710 333 710 c 2,35,-1
 45 710 l 1,36,-1
 45 664 l 1,37,-1
 56 664 l 2,38,39
 92 664 92 664 116 657 c 128,-1,40
 140 650 140 650 140 628 c 2,41,-1
 140 82 l 2,42,43
 140 60 140 60 116 53 c 128,-1,44
 92 46 92 46 56 46 c 2,45,-1
 45 46 l 1,46,-1
 45 0 l 1,47,-1
 323 0 l 1,48,-1
 323 46 l 1,49,-1
 310 46 l 2,50,51
 297 46 297 46 283 46.5 c 128,-1,52
 269 47 269 47 257.5 48.5 c 128,-1,53
 246 50 246 50 239 51.5 c 128,-1,54
 232 53 232 53 232 56 c 2,10,-1
EndSplineSet
EndChar

StartChar: Rcaron
Encoding: 344 344 152
Width: 694
GlyphClass: 1
Flags: W
LayerCount: 2
Fore
SplineSet
290 758 m 1,0,-1
 380 758 l 1,1,-1
 488 892 l 1,2,-1
 488 905 l 1,3,-1
 449 905 l 1,4,-1
 335 816 l 1,5,-1
 345 816 l 1,6,-1
 231 905 l 1,7,-1
 182 905 l 1,8,-1
 182 892 l 1,9,-1
 290 758 l 1,0,-1
357 321 m 1,10,-1
 525 0 l 1,11,-1
 671 0 l 1,12,-1
 671 46 l 1,13,-1
 663 46 l 2,14,15
 647 46 647 46 633 48 c 128,-1,16
 619 50 619 50 609.5 56 c 128,-1,17
 600 62 600 62 593 75 c 2,18,-1
 446 336 l 1,19,-1
 357 321 l 1,10,-1
232 56 m 2,20,-1
 232 652 l 1,21,-1
 331 652 l 2,22,23
 384 652 384 652 419.5 634.5 c 128,-1,24
 455 617 455 617 473 584 c 128,-1,25
 491 551 491 551 491 506 c 0,26,27
 491 460 491 460 473.5 426.5 c 128,-1,28
 456 393 456 393 420 375 c 128,-1,29
 384 357 384 357 327 357 c 2,30,-1
 212 357 l 1,31,-1
 212 302 l 1,32,-1
 327 302 l 2,33,34
 343 302 343 302 359 303.5 c 128,-1,35
 375 305 375 305 389.5 306.5 c 128,-1,36
 404 308 404 308 418 311 c 0,37,38
 472 324 472 324 510.5 351.5 c 128,-1,39
 549 379 549 379 570 418 c 128,-1,40
 591 457 591 457 591 506 c 0,41,42
 591 567 591 567 560 613 c 128,-1,43
 529 659 529 659 471.5 684.5 c 128,-1,44
 414 710 414 710 333 710 c 2,45,-1
 45 710 l 1,46,-1
 45 664 l 1,47,-1
 56 664 l 2,48,49
 92 664 92 664 116 657 c 128,-1,50
 140 650 140 650 140 628 c 2,51,-1
 140 82 l 2,52,53
 140 60 140 60 116 53 c 128,-1,54
 92 46 92 46 56 46 c 2,55,-1
 45 46 l 1,56,-1
 45 0 l 1,57,-1
 323 0 l 1,58,-1
 323 46 l 1,59,-1
 310 46 l 2,60,61
 297 46 297 46 283 46.5 c 128,-1,62
 269 47 269 47 257.5 48.5 c 128,-1,63
 246 50 246 50 239 51.5 c 128,-1,64
 232 53 232 53 232 56 c 2,20,-1
EndSplineSet
EndChar

StartChar: Rdblgrave
Encoding: 528 528 153
Width: 694
GlyphClass: 1
Flags: W
LayerCount: 2
Fore
SplineSet
436 854 m 2,0,-1
 456 781 l 1,1,-1
 456 758 l 1,2,-1
 425 758 l 1,3,-1
 381 802 l 2,4,5
 361 822 361 822 348.5 837 c 128,-1,6
 336 852 336 852 336 871 c 256,7,8
 336 890 336 890 349 901 c 128,-1,9
 362 912 362 912 381 912 c 0,10,11
 394 912 394 912 404 906.5 c 128,-1,12
 414 901 414 901 422 888.5 c 128,-1,13
 430 876 430 876 436 854 c 2,0,-1
272 854 m 2,14,-1
 292 781 l 1,15,-1
 292 758 l 1,16,-1
 261 758 l 1,17,-1
 217 802 l 2,18,19
 197 822 197 822 184.5 837 c 128,-1,20
 172 852 172 852 172 871 c 256,21,22
 172 890 172 890 185 901 c 128,-1,23
 198 912 198 912 217 912 c 0,24,25
 230 912 230 912 240 906.5 c 128,-1,26
 250 901 250 901 258 888.5 c 128,-1,27
 266 876 266 876 272 854 c 2,14,-1
357 321 m 1,28,-1
 525 0 l 1,29,-1
 671 0 l 1,30,-1
 671 46 l 1,31,-1
 663 46 l 2,32,33
 647 46 647 46 633 48 c 128,-1,34
 619 50 619 50 609.5 56 c 128,-1,35
 600 62 600 62 593 75 c 2,36,-1
 446 336 l 1,37,-1
 357 321 l 1,28,-1
232 56 m 2,38,-1
 232 652 l 1,39,-1
 331 652 l 2,40,41
 384 652 384 652 419.5 634.5 c 128,-1,42
 455 617 455 617 473 584 c 128,-1,43
 491 551 491 551 491 506 c 0,44,45
 491 460 491 460 473.5 426.5 c 128,-1,46
 456 393 456 393 420 375 c 128,-1,47
 384 357 384 357 327 357 c 2,48,-1
 212 357 l 1,49,-1
 212 302 l 1,50,-1
 327 302 l 2,51,52
 343 302 343 302 359 303.5 c 128,-1,53
 375 305 375 305 389.5 306.5 c 128,-1,54
 404 308 404 308 418 311 c 0,55,56
 472 324 472 324 510.5 351.5 c 128,-1,57
 549 379 549 379 570 418 c 128,-1,58
 591 457 591 457 591 506 c 0,59,60
 591 567 591 567 560 613 c 128,-1,61
 529 659 529 659 471.5 684.5 c 128,-1,62
 414 710 414 710 333 710 c 2,63,-1
 45 710 l 1,64,-1
 45 664 l 1,65,-1
 56 664 l 2,66,67
 92 664 92 664 116 657 c 128,-1,68
 140 650 140 650 140 628 c 2,69,-1
 140 82 l 2,70,71
 140 60 140 60 116 53 c 128,-1,72
 92 46 92 46 56 46 c 2,73,-1
 45 46 l 1,74,-1
 45 0 l 1,75,-1
 323 0 l 1,76,-1
 323 46 l 1,77,-1
 310 46 l 2,78,79
 297 46 297 46 283 46.5 c 128,-1,80
 269 47 269 47 257.5 48.5 c 128,-1,81
 246 50 246 50 239 51.5 c 128,-1,82
 232 53 232 53 232 56 c 2,38,-1
EndSplineSet
EndChar

StartChar: Rinvertedbreve
Encoding: 530 530 154
Width: 694
GlyphClass: 1
Flags: W
LayerCount: 2
Fore
SplineSet
337 899 m 256,0,1
 295 899 295 899 264 883 c 128,-1,2
 233 867 233 867 215 836 c 128,-1,3
 197 805 197 805 193 759 c 1,4,-1
 250 759 l 1,5,6
 255 785 255 785 265.5 800.5 c 128,-1,7
 276 816 276 816 293 822.5 c 128,-1,8
 310 829 310 829 334 829 c 256,9,10
 358 829 358 829 375.5 822.5 c 128,-1,11
 393 816 393 816 404 800.5 c 128,-1,12
 415 785 415 785 420 759 c 1,13,-1
 482 759 l 1,14,15
 478 805 478 805 459.5 836 c 128,-1,16
 441 867 441 867 410 883 c 128,-1,17
 379 899 379 899 337 899 c 256,0,1
357 321 m 1,18,-1
 525 0 l 1,19,-1
 671 0 l 1,20,-1
 671 46 l 1,21,-1
 663 46 l 2,22,23
 647 46 647 46 633 48 c 128,-1,24
 619 50 619 50 609.5 56 c 128,-1,25
 600 62 600 62 593 75 c 2,26,-1
 446 336 l 1,27,-1
 357 321 l 1,18,-1
232 56 m 2,28,-1
 232 652 l 1,29,-1
 331 652 l 2,30,31
 384 652 384 652 419.5 634.5 c 128,-1,32
 455 617 455 617 473 584 c 128,-1,33
 491 551 491 551 491 506 c 0,34,35
 491 460 491 460 473.5 426.5 c 128,-1,36
 456 393 456 393 420 375 c 128,-1,37
 384 357 384 357 327 357 c 2,38,-1
 212 357 l 1,39,-1
 212 302 l 1,40,-1
 327 302 l 2,41,42
 343 302 343 302 359 303.5 c 128,-1,43
 375 305 375 305 389.5 306.5 c 128,-1,44
 404 308 404 308 418 311 c 0,45,46
 472 324 472 324 510.5 351.5 c 128,-1,47
 549 379 549 379 570 418 c 128,-1,48
 591 457 591 457 591 506 c 0,49,50
 591 567 591 567 560 613 c 128,-1,51
 529 659 529 659 471.5 684.5 c 128,-1,52
 414 710 414 710 333 710 c 2,53,-1
 45 710 l 1,54,-1
 45 664 l 1,55,-1
 56 664 l 2,56,57
 92 664 92 664 116 657 c 128,-1,58
 140 650 140 650 140 628 c 2,59,-1
 140 82 l 2,60,61
 140 60 140 60 116 53 c 128,-1,62
 92 46 92 46 56 46 c 2,63,-1
 45 46 l 1,64,-1
 45 0 l 1,65,-1
 323 0 l 1,66,-1
 323 46 l 1,67,-1
 310 46 l 2,68,69
 297 46 297 46 283 46.5 c 128,-1,70
 269 47 269 47 257.5 48.5 c 128,-1,71
 246 50 246 50 239 51.5 c 128,-1,72
 232 53 232 53 232 56 c 2,28,-1
EndSplineSet
EndChar

StartChar: S
Encoding: 83 83 157
Width: 622
GlyphClass: 2
Flags: W
AnchorPoint: "Anchor-1" 342 0 basechar 0
AnchorPoint: "Anchor-0" 342 741 basechar 0
LayerCount: 2
Fore
SplineSet
337 49 m 0,0,1
 382 49 382 49 415 62 c 128,-1,2
 448 75 448 75 466 103 c 128,-1,3
 484 131 484 131 484 173 c 0,4,5
 484 212 484 212 468 238 c 128,-1,6
 452 264 452 264 425 280.5 c 128,-1,7
 398 297 398 297 363.5 308.5 c 128,-1,8
 329 320 329 320 292 330 c 0,9,10
 252 341 252 341 212.5 355 c 128,-1,11
 173 369 173 369 141 392 c 128,-1,12
 109 415 109 415 90 450 c 128,-1,13
 71 485 71 485 71 538 c 0,14,15
 71 594 71 594 99.5 634.5 c 128,-1,16
 128 675 128 675 175.5 697.5 c 128,-1,17
 223 720 223 720 280 720 c 0,18,19
 325 720 325 720 365 707.5 c 128,-1,20
 405 695 405 695 439 663 c 128,-1,21
 473 631 473 631 497 571 c 1,22,-1
 461 567 l 1,23,-1
 476 710 l 1,24,-1
 532 710 l 1,25,-1
 532 524 l 1,26,-1
 469 524 l 1,27,28
 453 567 453 567 426.5 598 c 128,-1,29
 400 629 400 629 365 645.5 c 128,-1,30
 330 662 330 662 289 662 c 0,31,32
 247 662 247 662 217 648 c 128,-1,33
 187 634 187 634 171 608.5 c 128,-1,34
 155 583 155 583 155 546 c 0,35,36
 155 512 155 512 171 489.5 c 128,-1,37
 187 467 187 467 213.5 452 c 128,-1,38
 240 437 240 437 275 426.5 c 128,-1,39
 310 416 310 416 347 406 c 0,40,41
 389 395 389 395 429 380.5 c 128,-1,42
 469 366 469 366 501.5 343 c 128,-1,43
 534 320 534 320 553 284 c 128,-1,44
 572 248 572 248 572 194 c 0,45,46
 572 129 572 129 540.5 83 c 128,-1,47
 509 37 509 37 456.5 13.5 c 128,-1,48
 404 -10 404 -10 341 -10 c 0,49,50
 284 -10 284 -10 231.5 8.5 c 128,-1,51
 179 27 179 27 138.5 67 c 128,-1,52
 98 107 98 107 75 173 c 1,53,-1
 120 168 l 1,54,-1
 106 0 l 1,55,-1
 45 0 l 1,56,-1
 45 221 l 1,57,-1
 108 221 l 1,58,59
 125 170 125 170 158 131 c 128,-1,60
 191 92 191 92 237 70.5 c 128,-1,61
 283 49 283 49 337 49 c 0,0,1
EndSplineSet
EndChar

StartChar: Scaron
Encoding: 352 352 161
Width: 622
GlyphClass: 1
Flags: W
LayerCount: 2
Fore
SplineSet
256 758 m 1,0,-1
 346 758 l 1,1,-1
 454 892 l 1,2,-1
 454 905 l 1,3,-1
 415 905 l 1,4,-1
 301 816 l 1,5,-1
 311 816 l 1,6,-1
 197 905 l 1,7,-1
 148 905 l 1,8,-1
 148 892 l 1,9,-1
 256 758 l 1,0,-1
337 49 m 0,10,11
 382 49 382 49 415 62 c 128,-1,12
 448 75 448 75 466 103 c 128,-1,13
 484 131 484 131 484 173 c 0,14,15
 484 212 484 212 468 238 c 128,-1,16
 452 264 452 264 425 280.5 c 128,-1,17
 398 297 398 297 363.5 308.5 c 128,-1,18
 329 320 329 320 292 330 c 0,19,20
 252 341 252 341 212.5 355 c 128,-1,21
 173 369 173 369 141 392 c 128,-1,22
 109 415 109 415 90 450 c 128,-1,23
 71 485 71 485 71 538 c 0,24,25
 71 594 71 594 99.5 634.5 c 128,-1,26
 128 675 128 675 175.5 697.5 c 128,-1,27
 223 720 223 720 280 720 c 0,28,29
 325 720 325 720 365 707.5 c 128,-1,30
 405 695 405 695 439 663 c 128,-1,31
 473 631 473 631 497 571 c 1,32,-1
 461 567 l 1,33,-1
 476 710 l 1,34,-1
 532 710 l 1,35,-1
 532 524 l 1,36,-1
 469 524 l 1,37,38
 453 567 453 567 426.5 598 c 128,-1,39
 400 629 400 629 365 645.5 c 128,-1,40
 330 662 330 662 289 662 c 0,41,42
 247 662 247 662 217 648 c 128,-1,43
 187 634 187 634 171 608.5 c 128,-1,44
 155 583 155 583 155 546 c 0,45,46
 155 512 155 512 171 489.5 c 128,-1,47
 187 467 187 467 213.5 452 c 128,-1,48
 240 437 240 437 275 426.5 c 128,-1,49
 310 416 310 416 347 406 c 0,50,51
 389 395 389 395 429 380.5 c 128,-1,52
 469 366 469 366 501.5 343 c 128,-1,53
 534 320 534 320 553 284 c 128,-1,54
 572 248 572 248 572 194 c 0,55,56
 572 129 572 129 540.5 83 c 128,-1,57
 509 37 509 37 456.5 13.5 c 128,-1,58
 404 -10 404 -10 341 -10 c 0,59,60
 284 -10 284 -10 231.5 8.5 c 128,-1,61
 179 27 179 27 138.5 67 c 128,-1,62
 98 107 98 107 75 173 c 1,63,-1
 120 168 l 1,64,-1
 106 0 l 1,65,-1
 45 0 l 1,66,-1
 45 221 l 1,67,-1
 108 221 l 1,68,69
 125 170 125 170 158 131 c 128,-1,70
 191 92 191 92 237 70.5 c 128,-1,71
 283 49 283 49 337 49 c 0,10,11
EndSplineSet
EndChar

StartChar: Scarondotaccent
Encoding: 7782 7782 166
Width: 622
GlyphClass: 1
Flags: W
LayerCount: 2
Fore
SplineSet
263 758 m 1,0,-1
 353 758 l 1,1,-1
 461 892 l 1,2,-1
 461 905 l 1,3,-1
 421 905 l 1,4,-1
 308 816 l 1,5,-1
 318 816 l 1,6,-1
 204 905 l 1,7,-1
 155 905 l 1,8,-1
 155 892 l 1,9,-1
 263 758 l 1,0,-1
337 49 m 0,10,11
 382 49 382 49 415 62 c 128,-1,12
 448 75 448 75 466 103 c 128,-1,13
 484 131 484 131 484 173 c 0,14,15
 484 212 484 212 468 238 c 128,-1,16
 452 264 452 264 425 280.5 c 128,-1,17
 398 297 398 297 363.5 308.5 c 128,-1,18
 329 320 329 320 292 330 c 0,19,20
 252 341 252 341 212.5 355 c 128,-1,21
 173 369 173 369 141 392 c 128,-1,22
 109 415 109 415 90 450 c 128,-1,23
 71 485 71 485 71 538 c 0,24,25
 71 594 71 594 99.5 634.5 c 128,-1,26
 128 675 128 675 175.5 697.5 c 128,-1,27
 223 720 223 720 280 720 c 0,28,29
 325 720 325 720 365 707.5 c 128,-1,30
 405 695 405 695 439 663 c 128,-1,31
 473 631 473 631 497 571 c 1,32,-1
 461 567 l 1,33,-1
 476 710 l 1,34,-1
 532 710 l 1,35,-1
 532 524 l 1,36,-1
 469 524 l 1,37,38
 453 567 453 567 426.5 598 c 128,-1,39
 400 629 400 629 365 645.5 c 128,-1,40
 330 662 330 662 289 662 c 0,41,42
 247 662 247 662 217 648 c 128,-1,43
 187 634 187 634 171 608.5 c 128,-1,44
 155 583 155 583 155 546 c 0,45,46
 155 512 155 512 171 489.5 c 128,-1,47
 187 467 187 467 213.5 452 c 128,-1,48
 240 437 240 437 275 426.5 c 128,-1,49
 310 416 310 416 347 406 c 0,50,51
 389 395 389 395 429 380.5 c 128,-1,52
 469 366 469 366 501.5 343 c 128,-1,53
 534 320 534 320 553 284 c 128,-1,54
 572 248 572 248 572 194 c 0,55,56
 572 129 572 129 540.5 83 c 128,-1,57
 509 37 509 37 456.5 13.5 c 128,-1,58
 404 -10 404 -10 341 -10 c 0,59,60
 284 -10 284 -10 231.5 8.5 c 128,-1,61
 179 27 179 27 138.5 67 c 128,-1,62
 98 107 98 107 75 173 c 1,63,-1
 120 168 l 1,64,-1
 106 0 l 1,65,-1
 45 0 l 1,66,-1
 45 221 l 1,67,-1
 108 221 l 1,68,69
 125 170 125 170 158 131 c 128,-1,70
 191 92 191 92 237 70.5 c 128,-1,71
 283 49 283 49 337 49 c 0,10,11
308 923 m 256,72,73
 282 923 282 923 264.5 939.5 c 128,-1,74
 247 956 247 956 247 984 c 256,75,76
 247 1012 247 1012 264.5 1028 c 128,-1,77
 282 1044 282 1044 308 1044 c 256,78,79
 334 1044 334 1044 351.5 1028 c 128,-1,80
 369 1012 369 1012 369 984 c 256,81,82
 369 956 369 956 351.5 939.5 c 128,-1,83
 334 923 334 923 308 923 c 256,72,73
EndSplineSet
EndChar

StartChar: T
Encoding: 84 84 168
Width: 668
GlyphClass: 2
Flags: W
AnchorPoint: "Anchor-1" 338 0 basechar 0
AnchorPoint: "Anchor-0" 338 741 basechar 0
LayerCount: 2
Fore
SplineSet
287 82 m 2,0,-1
 287 655 l 1,1,-1
 229 655 l 2,2,3
 186 655 186 655 159 652 c 128,-1,4
 132 649 132 649 119 639 c 128,-1,5
 106 629 106 629 104 611 c 2,6,-1
 95 513 l 1,7,-1
 40 513 l 1,8,-1
 40 710 l 1,9,-1
 628 710 l 1,10,-1
 628 513 l 1,11,-1
 573 513 l 1,12,-1
 564 611 l 2,13,14
 562 629 562 629 548.5 639 c 128,-1,15
 535 649 535 649 508 652 c 128,-1,16
 481 655 481 655 438 655 c 2,17,-1
 380 655 l 1,18,-1
 380 82 l 2,19,20
 380 60 380 60 404 53 c 128,-1,21
 428 46 428 46 465 46 c 2,22,-1
 481 46 l 1,23,-1
 481 0 l 1,24,-1
 186 0 l 1,25,-1
 186 46 l 1,26,-1
 202 46 l 2,27,28
 239 46 239 46 263 53 c 128,-1,29
 287 60 287 60 287 82 c 2,0,-1
EndSplineSet
EndChar

StartChar: Tcaron
Encoding: 356 356 170
Width: 668
GlyphClass: 1
Flags: W
LayerCount: 2
Fore
SplineSet
288 758 m 1,0,-1
 378 758 l 1,1,-1
 486 892 l 1,2,-1
 486 905 l 1,3,-1
 447 905 l 1,4,-1
 333 816 l 1,5,-1
 343 816 l 1,6,-1
 230 905 l 1,7,-1
 180 905 l 1,8,-1
 180 892 l 1,9,-1
 288 758 l 1,0,-1
287 82 m 2,10,-1
 287 655 l 1,11,-1
 229 655 l 2,12,13
 186 655 186 655 159 652 c 128,-1,14
 132 649 132 649 119 639 c 128,-1,15
 106 629 106 629 104 611 c 2,16,-1
 95 513 l 1,17,-1
 40 513 l 1,18,-1
 40 710 l 1,19,-1
 628 710 l 1,20,-1
 628 513 l 1,21,-1
 573 513 l 1,22,-1
 564 611 l 2,23,24
 562 629 562 629 548.5 639 c 128,-1,25
 535 649 535 649 508 652 c 128,-1,26
 481 655 481 655 438 655 c 2,27,-1
 380 655 l 1,28,-1
 380 82 l 2,29,30
 380 60 380 60 404 53 c 128,-1,31
 428 46 428 46 465 46 c 2,32,-1
 481 46 l 1,33,-1
 481 0 l 1,34,-1
 186 0 l 1,35,-1
 186 46 l 1,36,-1
 202 46 l 2,37,38
 239 46 239 46 263 53 c 128,-1,39
 287 60 287 60 287 82 c 2,10,-1
EndSplineSet
EndChar

StartChar: U
Encoding: 85 85 174
Width: 805
GlyphClass: 2
Flags: W
AnchorPoint: "Anchor-2" 462 0 basechar 0
AnchorPoint: "Anchor-1" 407 0 basechar 0
AnchorPoint: "Anchor-0" 407 741 basechar 0
LayerCount: 2
Fore
SplineSet
231 270 m 2,0,1
 231 210 231 210 245 169 c 128,-1,2
 259 128 259 128 284 104 c 128,-1,3
 309 80 309 80 343 69 c 128,-1,4
 377 58 377 58 419 58 c 0,5,6
 459 58 459 58 492.5 69 c 128,-1,7
 526 80 526 80 551 104.5 c 128,-1,8
 576 129 576 129 589.5 169.5 c 128,-1,9
 603 210 603 210 603 270 c 2,10,-1
 603 641 l 2,11,12
 603 647 603 647 595 651 c 128,-1,13
 587 655 587 655 574 658 c 128,-1,14
 561 661 561 661 545.5 662.5 c 128,-1,15
 530 664 530 664 516 664 c 2,16,-1
 507 664 l 1,17,-1
 507 710 l 1,18,-1
 763 710 l 1,19,-1
 763 664 l 1,20,-1
 752 664 l 2,21,22
 728 664 728 664 708.5 659 c 128,-1,23
 689 654 689 654 678 644 c 128,-1,24
 667 634 667 634 667 617 c 2,25,-1
 667 270 l 2,26,27
 667 196 667 196 647 142.5 c 128,-1,28
 627 89 627 89 591 55 c 128,-1,29
 555 21 555 21 508 5.5 c 128,-1,30
 461 -10 461 -10 407 -10 c 0,31,32
 349 -10 349 -10 300 6 c 128,-1,33
 251 22 251 22 214.5 55.5 c 128,-1,34
 178 89 178 89 158 142 c 128,-1,35
 138 195 138 195 138 270 c 2,36,-1
 138 628 l 2,37,38
 138 650 138 650 114 657 c 128,-1,39
 90 664 90 664 53 664 c 2,40,-1
 43 664 l 1,41,-1
 43 710 l 1,42,-1
 327 710 l 1,43,-1
 327 664 l 1,44,-1
 318 664 l 2,45,46
 304 664 304 664 288.5 663.5 c 128,-1,47
 273 663 273 663 260 661.5 c 128,-1,48
 247 660 247 660 239 658.5 c 128,-1,49
 231 657 231 657 231 654 c 2,50,-1
 231 270 l 2,0,1
EndSplineSet
EndChar

StartChar: Uogonek
Encoding: 370 370 184
Width: 805
GlyphClass: 1
Flags: W
LayerCount: 2
Fore
SplineSet
532 45 m 1,0,-1
 537 18 l 1,1,2
 509 4 509 4 476 -3 c 128,-1,3
 443 -10 443 -10 407 -10 c 0,4,5
 349 -10 349 -10 300 6 c 128,-1,6
 251 22 251 22 214.5 55.5 c 128,-1,7
 178 89 178 89 158 142 c 128,-1,8
 138 195 138 195 138 270 c 2,9,-1
 138 628 l 2,10,11
 138 650 138 650 114 657 c 128,-1,12
 90 664 90 664 53 664 c 2,13,-1
 43 664 l 1,14,-1
 43 710 l 1,15,-1
 327 710 l 1,16,-1
 327 664 l 1,17,-1
 318 664 l 2,18,19
 304 664 304 664 288.5 663.5 c 128,-1,20
 273 663 273 663 260 661.5 c 128,-1,21
 247 660 247 660 239 658.5 c 128,-1,22
 231 657 231 657 231 654 c 2,23,-1
 231 270 l 2,24,25
 231 210 231 210 245 169 c 128,-1,26
 259 128 259 128 284 104 c 128,-1,27
 309 80 309 80 343 69 c 128,-1,28
 377 58 377 58 419 58 c 0,29,30
 459 58 459 58 492.5 69 c 128,-1,31
 526 80 526 80 551 104.5 c 128,-1,32
 576 129 576 129 589.5 169.5 c 128,-1,33
 603 210 603 210 603 270 c 2,34,-1
 603 641 l 2,35,36
 603 647 603 647 595 651 c 128,-1,37
 587 655 587 655 574 658 c 128,-1,38
 561 661 561 661 545.5 662.5 c 128,-1,39
 530 664 530 664 516 664 c 2,40,-1
 507 664 l 1,41,-1
 507 710 l 1,42,-1
 763 710 l 1,43,-1
 763 664 l 1,44,-1
 752 664 l 2,45,46
 728 664 728 664 708.5 659 c 128,-1,47
 689 654 689 654 678 644 c 128,-1,48
 667 634 667 634 667 617 c 2,49,-1
 667 270 l 2,50,51
 667 222 667 222 658.5 182 c 128,-1,52
 650 142 650 142 634 111.5 c 128,-1,53
 618 81 618 81 595 58 c 0,54,55
 581 45 581 45 557 23.5 c 128,-1,56
 533 2 533 2 509 -24 c 128,-1,57
 485 -50 485 -50 468.5 -78.5 c 128,-1,58
 452 -107 452 -107 452 -136 c 0,59,60
 452 -161 452 -161 463.5 -173 c 128,-1,61
 475 -185 475 -185 492 -185 c 256,62,63
 509 -185 509 -185 522 -175.5 c 128,-1,64
 535 -166 535 -166 545 -156 c 1,65,-1
 574 -190 l 1,66,67
 555 -210 555 -210 532 -223 c 128,-1,68
 509 -236 509 -236 470 -236 c 0,69,70
 439 -236 439 -236 414.5 -225 c 128,-1,71
 390 -214 390 -214 376 -193.5 c 128,-1,72
 362 -173 362 -173 362 -145 c 0,73,74
 362 -119 362 -119 375 -96 c 128,-1,75
 388 -73 388 -73 411.5 -50.5 c 128,-1,76
 435 -28 435 -28 465.5 -4.5 c 128,-1,77
 496 19 496 19 532 45 c 1,0,-1
EndSplineSet
EndChar

StartChar: Uhorn
Encoding: 431 431 185
Width: 825
GlyphClass: 2
Flags: W
AnchorPoint: "Anchor-1" 416 -35 basechar 0
AnchorPoint: "Anchor-0" 416 663 basechar 0
LayerCount: 2
Fore
SplineSet
138 270 m 2,0,-1
 138 628 l 2,1,2
 138 650 138 650 114 657 c 128,-1,3
 90 664 90 664 53 664 c 2,4,-1
 43 664 l 1,5,-1
 43 710 l 1,6,-1
 327 710 l 1,7,-1
 327 664 l 1,8,-1
 318 664 l 2,9,10
 304 664 304 664 288.5 663.5 c 128,-1,11
 273 663 273 663 260 661.5 c 128,-1,12
 247 660 247 660 239 658.5 c 128,-1,13
 231 657 231 657 231 654 c 2,14,-1
 231 270 l 2,15,16
 231 210 231 210 245 169 c 128,-1,17
 259 128 259 128 284 104 c 128,-1,18
 309 80 309 80 343 69 c 128,-1,19
 377 58 377 58 419 58 c 0,20,21
 472 58 472 58 513.5 78 c 128,-1,22
 555 98 555 98 579 144.5 c 128,-1,23
 603 191 603 191 603 270 c 2,24,-1
 603 641 l 2,25,26
 603 647 603 647 595 651 c 128,-1,27
 587 655 587 655 574 658 c 128,-1,28
 561 661 561 661 545.5 662.5 c 128,-1,29
 530 664 530 664 516 664 c 2,30,-1
 507 664 l 1,31,-1
 507 710 l 1,32,-1
 630 710 l 2,33,34
 682 710 682 710 712.5 718.5 c 128,-1,35
 743 727 743 727 757 746 c 128,-1,36
 771 765 771 765 775 796.5 c 128,-1,37
 779 828 779 828 779 876 c 1,38,-1
 864 876 l 1,39,40
 864 835 864 835 857.5 803 c 128,-1,41
 851 771 851 771 838.5 747.5 c 128,-1,42
 826 724 826 724 808.5 708 c 128,-1,43
 791 692 791 692 769 682 c 128,-1,44
 747 672 747 672 721 667 c 0,45,46
 705 664 705 664 692.5 658.5 c 128,-1,47
 680 653 680 653 673.5 643.5 c 128,-1,48
 667 634 667 634 667 621 c 2,49,-1
 667 270 l 2,50,51
 667 196 667 196 647 142.5 c 128,-1,52
 627 89 627 89 591 55 c 128,-1,53
 555 21 555 21 508 5.5 c 128,-1,54
 461 -10 461 -10 407 -10 c 0,55,56
 349 -10 349 -10 300 6 c 128,-1,57
 251 22 251 22 214.5 55.5 c 128,-1,58
 178 89 178 89 158 142 c 128,-1,59
 138 195 138 195 138 270 c 2,0,-1
EndSplineSet
EndChar

StartChar: Ucaron
Encoding: 467 467 186
Width: 805
GlyphClass: 1
Flags: W
LayerCount: 2
Fore
SplineSet
374 758 m 1,0,-1
 464 758 l 1,1,-1
 572 892 l 1,2,-1
 572 905 l 1,3,-1
 532 905 l 1,4,-1
 419 816 l 1,5,-1
 429 816 l 1,6,-1
 315 905 l 1,7,-1
 266 905 l 1,8,-1
 266 892 l 1,9,-1
 374 758 l 1,0,-1
231 270 m 2,10,11
 231 210 231 210 245 169 c 128,-1,12
 259 128 259 128 284 104 c 128,-1,13
 309 80 309 80 343 69 c 128,-1,14
 377 58 377 58 419 58 c 0,15,16
 459 58 459 58 492.5 69 c 128,-1,17
 526 80 526 80 551 104.5 c 128,-1,18
 576 129 576 129 589.5 169.5 c 128,-1,19
 603 210 603 210 603 270 c 2,20,-1
 603 641 l 2,21,22
 603 647 603 647 595 651 c 128,-1,23
 587 655 587 655 574 658 c 128,-1,24
 561 661 561 661 545.5 662.5 c 128,-1,25
 530 664 530 664 516 664 c 2,26,-1
 507 664 l 1,27,-1
 507 710 l 1,28,-1
 763 710 l 1,29,-1
 763 664 l 1,30,-1
 752 664 l 2,31,32
 728 664 728 664 708.5 659 c 128,-1,33
 689 654 689 654 678 644 c 128,-1,34
 667 634 667 634 667 617 c 2,35,-1
 667 270 l 2,36,37
 667 196 667 196 647 142.5 c 128,-1,38
 627 89 627 89 591 55 c 128,-1,39
 555 21 555 21 508 5.5 c 128,-1,40
 461 -10 461 -10 407 -10 c 0,41,42
 349 -10 349 -10 300 6 c 128,-1,43
 251 22 251 22 214.5 55.5 c 128,-1,44
 178 89 178 89 158 142 c 128,-1,45
 138 195 138 195 138 270 c 2,46,-1
 138 628 l 2,47,48
 138 650 138 650 114 657 c 128,-1,49
 90 664 90 664 53 664 c 2,50,-1
 43 664 l 1,51,-1
 43 710 l 1,52,-1
 327 710 l 1,53,-1
 327 664 l 1,54,-1
 318 664 l 2,55,56
 304 664 304 664 288.5 663.5 c 128,-1,57
 273 663 273 663 260 661.5 c 128,-1,58
 247 660 247 660 239 658.5 c 128,-1,59
 231 657 231 657 231 654 c 2,60,-1
 231 270 l 2,10,11
EndSplineSet
EndChar

StartChar: Udieresiscaron
Encoding: 473 473 187
Width: 805
GlyphClass: 1
Flags: W
LayerCount: 2
Fore
SplineSet
358 937 m 1,0,-1
 448 937 l 1,1,-1
 556 1071 l 1,2,-1
 556 1084 l 1,3,-1
 517 1084 l 1,4,-1
 403 995 l 1,5,-1
 413 995 l 1,6,-1
 299 1084 l 1,7,-1
 250 1084 l 1,8,-1
 250 1071 l 1,9,-1
 358 937 l 1,0,-1
231 270 m 2,10,11
 231 210 231 210 245 169 c 128,-1,12
 259 128 259 128 284 104 c 128,-1,13
 309 80 309 80 343 69 c 128,-1,14
 377 58 377 58 419 58 c 0,15,16
 459 58 459 58 492.5 69 c 128,-1,17
 526 80 526 80 551 104.5 c 128,-1,18
 576 129 576 129 589.5 169.5 c 128,-1,19
 603 210 603 210 603 270 c 2,20,-1
 603 641 l 2,21,22
 603 647 603 647 595 651 c 128,-1,23
 587 655 587 655 574 658 c 128,-1,24
 561 661 561 661 545.5 662.5 c 128,-1,25
 530 664 530 664 516 664 c 2,26,-1
 507 664 l 1,27,-1
 507 710 l 1,28,-1
 763 710 l 1,29,-1
 763 664 l 1,30,-1
 752 664 l 2,31,32
 728 664 728 664 708.5 659 c 128,-1,33
 689 654 689 654 678 644 c 128,-1,34
 667 634 667 634 667 617 c 2,35,-1
 667 270 l 2,36,37
 667 196 667 196 647 142.5 c 128,-1,38
 627 89 627 89 591 55 c 128,-1,39
 555 21 555 21 508 5.5 c 128,-1,40
 461 -10 461 -10 407 -10 c 0,41,42
 349 -10 349 -10 300 6 c 128,-1,43
 251 22 251 22 214.5 55.5 c 128,-1,44
 178 89 178 89 158 142 c 128,-1,45
 138 195 138 195 138 270 c 2,46,-1
 138 628 l 2,47,48
 138 650 138 650 114 657 c 128,-1,49
 90 664 90 664 53 664 c 2,50,-1
 43 664 l 1,51,-1
 43 710 l 1,52,-1
 327 710 l 1,53,-1
 327 664 l 1,54,-1
 318 664 l 2,55,56
 304 664 304 664 288.5 663.5 c 128,-1,57
 273 663 273 663 260 661.5 c 128,-1,58
 247 660 247 660 239 658.5 c 128,-1,59
 231 657 231 657 231 654 c 2,60,-1
 231 270 l 2,10,11
355 844 m 256,61,62
 355 816 355 816 337.5 799.5 c 128,-1,63
 320 783 320 783 294 783 c 256,64,65
 268 783 268 783 250.5 799.5 c 128,-1,66
 233 816 233 816 233 844 c 256,67,68
 233 872 233 872 250.5 888 c 128,-1,69
 268 904 268 904 294 904 c 256,70,71
 320 904 320 904 337.5 888 c 128,-1,72
 355 872 355 872 355 844 c 256,61,62
573 844 m 256,73,74
 573 816 573 816 555.5 799.5 c 128,-1,75
 538 783 538 783 512 783 c 256,76,77
 486 783 486 783 468.5 799.5 c 128,-1,78
 451 816 451 816 451 844 c 256,79,80
 451 872 451 872 468.5 888 c 128,-1,81
 486 904 486 904 512 904 c 256,82,83
 538 904 538 904 555.5 888 c 128,-1,84
 573 872 573 872 573 844 c 256,73,74
EndSplineSet
EndChar

StartChar: Udblgrave
Encoding: 532 532 188
Width: 805
GlyphClass: 1
Flags: W
LayerCount: 2
Fore
SplineSet
520 854 m 2,0,-1
 540 781 l 1,1,-1
 540 758 l 1,2,-1
 509 758 l 1,3,-1
 465 802 l 2,4,5
 445 822 445 822 432.5 837 c 128,-1,6
 420 852 420 852 420 871 c 256,7,8
 420 890 420 890 433 901 c 128,-1,9
 446 912 446 912 465 912 c 0,10,11
 478 912 478 912 488 906.5 c 128,-1,12
 498 901 498 901 506 888.5 c 128,-1,13
 514 876 514 876 520 854 c 2,0,-1
356 854 m 2,14,-1
 376 781 l 1,15,-1
 376 758 l 1,16,-1
 345 758 l 1,17,-1
 301 802 l 2,18,19
 281 822 281 822 268.5 837 c 128,-1,20
 256 852 256 852 256 871 c 256,21,22
 256 890 256 890 269 901 c 128,-1,23
 282 912 282 912 301 912 c 0,24,25
 314 912 314 912 324 906.5 c 128,-1,26
 334 901 334 901 342 888.5 c 128,-1,27
 350 876 350 876 356 854 c 2,14,-1
231 270 m 2,28,29
 231 210 231 210 245 169 c 128,-1,30
 259 128 259 128 284 104 c 128,-1,31
 309 80 309 80 343 69 c 128,-1,32
 377 58 377 58 419 58 c 0,33,34
 459 58 459 58 492.5 69 c 128,-1,35
 526 80 526 80 551 104.5 c 128,-1,36
 576 129 576 129 589.5 169.5 c 128,-1,37
 603 210 603 210 603 270 c 2,38,-1
 603 641 l 2,39,40
 603 647 603 647 595 651 c 128,-1,41
 587 655 587 655 574 658 c 128,-1,42
 561 661 561 661 545.5 662.5 c 128,-1,43
 530 664 530 664 516 664 c 2,44,-1
 507 664 l 1,45,-1
 507 710 l 1,46,-1
 763 710 l 1,47,-1
 763 664 l 1,48,-1
 752 664 l 2,49,50
 728 664 728 664 708.5 659 c 128,-1,51
 689 654 689 654 678 644 c 128,-1,52
 667 634 667 634 667 617 c 2,53,-1
 667 270 l 2,54,55
 667 196 667 196 647 142.5 c 128,-1,56
 627 89 627 89 591 55 c 128,-1,57
 555 21 555 21 508 5.5 c 128,-1,58
 461 -10 461 -10 407 -10 c 0,59,60
 349 -10 349 -10 300 6 c 128,-1,61
 251 22 251 22 214.5 55.5 c 128,-1,62
 178 89 178 89 158 142 c 128,-1,63
 138 195 138 195 138 270 c 2,64,-1
 138 628 l 2,65,66
 138 650 138 650 114 657 c 128,-1,67
 90 664 90 664 53 664 c 2,68,-1
 43 664 l 1,69,-1
 43 710 l 1,70,-1
 327 710 l 1,71,-1
 327 664 l 1,72,-1
 318 664 l 2,73,74
 304 664 304 664 288.5 663.5 c 128,-1,75
 273 663 273 663 260 661.5 c 128,-1,76
 247 660 247 660 239 658.5 c 128,-1,77
 231 657 231 657 231 654 c 2,78,-1
 231 270 l 2,28,29
EndSplineSet
EndChar

StartChar: Uinvertedbreve
Encoding: 534 534 189
Width: 805
GlyphClass: 1
Flags: W
LayerCount: 2
Fore
SplineSet
411 899 m 256,0,1
 369 899 369 899 338 883 c 128,-1,2
 307 867 307 867 289 836 c 128,-1,3
 271 805 271 805 267 759 c 1,4,-1
 324 759 l 1,5,6
 329 785 329 785 339.5 800.5 c 128,-1,7
 350 816 350 816 366.5 822.5 c 128,-1,8
 383 829 383 829 408 829 c 0,9,10
 432 829 432 829 449 822.5 c 128,-1,11
 466 816 466 816 477 800.5 c 128,-1,12
 488 785 488 785 493 759 c 1,13,-1
 555 759 l 1,14,15
 551 805 551 805 532.5 836 c 128,-1,16
 514 867 514 867 483.5 883 c 128,-1,17
 453 899 453 899 411 899 c 256,0,1
231 270 m 2,18,19
 231 210 231 210 245 169 c 128,-1,20
 259 128 259 128 284 104 c 128,-1,21
 309 80 309 80 343 69 c 128,-1,22
 377 58 377 58 419 58 c 0,23,24
 459 58 459 58 492.5 69 c 128,-1,25
 526 80 526 80 551 104.5 c 128,-1,26
 576 129 576 129 589.5 169.5 c 128,-1,27
 603 210 603 210 603 270 c 2,28,-1
 603 641 l 2,29,30
 603 647 603 647 595 651 c 128,-1,31
 587 655 587 655 574 658 c 128,-1,32
 561 661 561 661 545.5 662.5 c 128,-1,33
 530 664 530 664 516 664 c 2,34,-1
 507 664 l 1,35,-1
 507 710 l 1,36,-1
 763 710 l 1,37,-1
 763 664 l 1,38,-1
 752 664 l 2,39,40
 728 664 728 664 708.5 659 c 128,-1,41
 689 654 689 654 678 644 c 128,-1,42
 667 634 667 634 667 617 c 2,43,-1
 667 270 l 2,44,45
 667 196 667 196 647 142.5 c 128,-1,46
 627 89 627 89 591 55 c 128,-1,47
 555 21 555 21 508 5.5 c 128,-1,48
 461 -10 461 -10 407 -10 c 0,49,50
 349 -10 349 -10 300 6 c 128,-1,51
 251 22 251 22 214.5 55.5 c 128,-1,52
 178 89 178 89 158 142 c 128,-1,53
 138 195 138 195 138 270 c 2,54,-1
 138 628 l 2,55,56
 138 650 138 650 114 657 c 128,-1,57
 90 664 90 664 53 664 c 2,58,-1
 43 664 l 1,59,-1
 43 710 l 1,60,-1
 327 710 l 1,61,-1
 327 664 l 1,62,-1
 318 664 l 2,63,64
 304 664 304 664 288.5 663.5 c 128,-1,65
 273 663 273 663 260 661.5 c 128,-1,66
 247 660 247 660 239 658.5 c 128,-1,67
 231 657 231 657 231 654 c 2,68,-1
 231 270 l 2,18,19
EndSplineSet
EndChar

StartChar: V
Encoding: 86 86 199
Width: 698
GlyphClass: 2
Flags: W
AnchorPoint: "Anchor-0" 360 741 basechar 0
LayerCount: 2
Fore
SplineSet
377 38 m 1,0,-1
 361 67 l 1,1,-1
 559 645 l 2,2,3
 559 651 559 651 546.5 655 c 128,-1,4
 534 659 534 659 514.5 661.5 c 128,-1,5
 495 664 495 664 476 664 c 2,6,-1
 460 664 l 1,7,-1
 460 710 l 1,8,-1
 690 710 l 1,9,-1
 690 664 l 1,10,-1
 685 664 l 2,11,12
 658 664 658 664 641.5 656 c 128,-1,13
 625 648 625 648 615 620 c 2,14,-1
 401 0 l 1,15,-1
 300 0 l 1,16,-1
 78 635 l 2,17,18
 71 655 71 655 55 659.5 c 128,-1,19
 39 664 39 664 13 664 c 2,20,-1
 8 664 l 1,21,-1
 8 710 l 1,22,-1
 267 710 l 1,23,-1
 267 664 l 1,24,-1
 250 664 l 2,25,26
 232 664 232 664 212 663 c 128,-1,27
 192 662 192 662 178.5 660 c 128,-1,28
 165 658 165 658 165 654 c 2,29,-1
 377 38 l 1,0,-1
EndSplineSet
EndChar

StartChar: W
Encoding: 87 87 200
Width: 1012
GlyphClass: 2
Flags: W
AnchorPoint: "Anchor-0" 519 741 basechar 0
LayerCount: 2
Fore
SplineSet
8 710 m 1,0,-1
 267 710 l 1,1,-1
 267 664 l 1,2,-1
 250 664 l 2,3,4
 231 664 231 664 211 663 c 128,-1,5
 191 662 191 662 177.5 660 c 128,-1,6
 164 658 164 658 164 654 c 2,7,-1
 317 47 l 1,8,-1
 307 47 l 1,9,-1
 466 710 l 1,10,-1
 570 710 l 1,11,-1
 739 50 l 1,12,-1
 731 50 l 1,13,-1
 872 645 l 2,14,15
 872 651 872 651 859 655 c 128,-1,16
 846 659 846 659 826.5 661.5 c 128,-1,17
 807 664 807 664 788 664 c 2,18,-1
 772 664 l 1,19,-1
 772 710 l 1,20,-1
 1004 710 l 1,21,-1
 1004 664 l 1,22,-1
 999 664 l 2,23,24
 973 664 973 664 954.5 655 c 128,-1,25
 936 646 936 646 930 620 c 2,26,-1
 779 0 l 1,27,-1
 671 0 l 1,28,-1
 504 644 l 1,29,-1
 512 644 l 1,30,-1
 355 0 l 1,31,-1
 245 0 l 1,32,-1
 82 627 l 2,33,34
 75 653 75 653 58 658.5 c 128,-1,35
 41 664 41 664 13 664 c 2,36,-1
 8 664 l 1,37,-1
 8 710 l 1,0,-1
EndSplineSet
EndChar

StartChar: X
Encoding: 88 88 205
Width: 738
GlyphClass: 2
Flags: W
AnchorPoint: "Anchor-1" 355 0 basechar 0
AnchorPoint: "Anchor-0" 378 741 basechar 0
LayerCount: 2
Fore
SplineSet
43 664 m 1,0,-1
 43 710 l 1,1,-1
 313 710 l 1,2,-1
 313 664 l 1,3,-1
 296 664 l 2,4,5
 278 664 278 664 259 663 c 128,-1,6
 240 662 240 662 227 659.5 c 128,-1,7
 214 657 214 657 214 653 c 2,8,-1
 399 389 l 1,9,-1
 405 386 l 1,10,-1
 622 80 l 2,11,12
 639 57 639 57 656.5 51.5 c 128,-1,13
 674 46 674 46 702 46 c 2,14,-1
 712 46 l 1,15,-1
 712 0 l 1,16,-1
 436 0 l 1,17,-1
 436 46 l 1,18,-1
 453 46 l 2,19,20
 471 46 471 46 490 47 c 128,-1,21
 509 48 509 48 522 51 c 128,-1,22
 535 54 535 54 535 57 c 2,23,-1
 337 335 l 1,24,-1
 331 339 l 1,25,-1
 127 632 l 2,26,27
 111 655 111 655 93.5 659.5 c 128,-1,28
 76 664 76 664 48 664 c 2,29,-1
 43 664 l 1,0,-1
27 0 m 1,30,-1
 27 46 l 1,31,-1
 37 46 l 2,32,33
 64 46 64 46 83.5 55.5 c 128,-1,34
 103 65 103 65 123 93 c 2,35,-1
 330 382 l 1,36,-1
 368 337 l 1,37,-1
 174 65 l 2,38,39
 174 60 174 60 187.5 55.5 c 128,-1,40
 201 51 201 51 220.5 48.5 c 128,-1,41
 240 46 240 46 259 46 c 2,42,-1
 274 46 l 1,43,-1
 274 0 l 1,44,-1
 27 0 l 1,30,-1
405 354 m 1,45,-1
 366 396 l 1,46,-1
 542 645 l 2,47,48
 542 651 542 651 529.5 655 c 128,-1,49
 517 659 517 659 498 661.5 c 128,-1,50
 479 664 479 664 459 664 c 2,51,-1
 444 664 l 1,52,-1
 444 710 l 1,53,-1
 687 710 l 1,54,-1
 687 664 l 1,55,-1
 682 664 l 2,56,57
 654 664 654 664 633.5 654.5 c 128,-1,58
 613 645 613 645 593 618 c 2,59,-1
 405 354 l 1,45,-1
EndSplineSet
EndChar

StartChar: Y
Encoding: 89 89 206
Width: 681
GlyphClass: 2
Flags: W
AnchorPoint: "Anchor-1" 344 0 basechar 0
AnchorPoint: "Anchor-0" 344 741 basechar 0
LayerCount: 2
Fore
SplineSet
296 316 m 1,0,-1
 310 271 l 1,1,-1
 93 637 l 2,2,3
 85 650 85 650 74 655.5 c 128,-1,4
 63 661 63 661 48.5 662.5 c 128,-1,5
 34 664 34 664 17 664 c 2,6,-1
 12 664 l 1,7,-1
 12 710 l 1,8,-1
 275 710 l 1,9,-1
 275 664 l 1,10,-1
 258 664 l 2,11,12
 240 664 240 664 221 663 c 128,-1,13
 202 662 202 662 189 659.5 c 128,-1,14
 176 657 176 657 176 653 c 2,15,-1
 370 321 l 1,16,-1
 344 324 l 1,17,-1
 525 645 l 2,18,19
 525 651 525 651 512.5 655 c 128,-1,20
 500 659 500 659 481 661.5 c 128,-1,21
 462 664 462 664 443 664 c 2,22,-1
 427 664 l 1,23,-1
 427 710 l 1,24,-1
 669 710 l 1,25,-1
 669 664 l 1,26,-1
 664 664 l 2,27,28
 647 664 647 664 631.5 661 c 128,-1,29
 616 658 616 658 603 649.5 c 128,-1,30
 590 641 590 641 579 622 c 2,31,-1
 377 270 l 1,32,-1
 389 316 l 1,33,-1
 389 82 l 2,34,35
 389 60 389 60 413 53 c 128,-1,36
 437 46 437 46 474 46 c 2,37,-1
 490 46 l 1,38,-1
 490 0 l 1,39,-1
 195 0 l 1,40,-1
 195 46 l 1,41,-1
 211 46 l 2,42,43
 248 46 248 46 272 53 c 128,-1,44
 296 60 296 60 296 82 c 2,45,-1
 296 316 l 1,0,-1
EndSplineSet
EndChar

StartChar: Z
Encoding: 90 90 216
Width: 622
GlyphClass: 2
Flags: W
AnchorPoint: "Anchor-1" 329 0 basechar 0
AnchorPoint: "Anchor-0" 329 741 basechar 0
LayerCount: 2
Fore
SplineSet
254 652 m 2,0,1
 222 652 222 652 198.5 650.5 c 128,-1,2
 175 649 175 649 160 644 c 128,-1,3
 145 639 145 639 137.5 630.5 c 128,-1,4
 130 622 130 622 129 608 c 2,5,-1
 119 513 l 1,6,-1
 64 513 l 1,7,-1
 64 710 l 1,8,-1
 563 710 l 1,9,-1
 563 647 l 1,10,-1
 112 19 l 1,11,-1
 98 58 l 1,12,-1
 377 58 l 2,13,14
 420 58 420 58 447 61.5 c 128,-1,15
 474 65 474 65 487.5 74.5 c 128,-1,16
 501 84 501 84 503 102 c 2,17,-1
 512 212 l 1,18,-1
 569 212 l 1,19,-1
 569 0 l 1,20,-1
 48 0 l 1,21,-1
 48 66 l 1,22,-1
 487 679 l 1,23,-1
 506 652 l 1,24,-1
 254 652 l 2,0,1
EndSplineSet
EndChar

StartChar: Zcaron
Encoding: 381 381 219
Width: 622
GlyphClass: 1
Flags: W
LayerCount: 2
Fore
SplineSet
268 758 m 1,0,-1
 358 758 l 1,1,-1
 466 892 l 1,2,-1
 466 905 l 1,3,-1
 427 905 l 1,4,-1
 313 816 l 1,5,-1
 323 816 l 1,6,-1
 209 905 l 1,7,-1
 160 905 l 1,8,-1
 160 892 l 1,9,-1
 268 758 l 1,0,-1
254 652 m 2,10,11
 222 652 222 652 198.5 650.5 c 128,-1,12
 175 649 175 649 160 644 c 128,-1,13
 145 639 145 639 137.5 630.5 c 128,-1,14
 130 622 130 622 129 608 c 2,15,-1
 119 513 l 1,16,-1
 64 513 l 1,17,-1
 64 710 l 1,18,-1
 563 710 l 1,19,-1
 563 647 l 1,20,-1
 112 19 l 1,21,-1
 98 58 l 1,22,-1
 377 58 l 2,23,24
 420 58 420 58 447 61.5 c 128,-1,25
 474 65 474 65 487.5 74.5 c 128,-1,26
 501 84 501 84 503 102 c 2,27,-1
 512 212 l 1,28,-1
 569 212 l 1,29,-1
 569 0 l 1,30,-1
 48 0 l 1,31,-1
 48 66 l 1,32,-1
 487 679 l 1,33,-1
 506 652 l 1,34,-1
 254 652 l 2,10,11
EndSplineSet
EndChar

StartChar: AE
Encoding: 198 198 221
Width: 986
GlyphClass: 2
Flags: W
AnchorPoint: "Anchor-0" 608 741 basechar 0
LayerCount: 2
Fore
SplineSet
259 300 m 1,0,-1
 507 300 l 1,1,-1
 507 244 l 1,2,-1
 228 244 l 1,3,-1
 259 300 l 1,0,-1
549 389 m 1,4,5
 591 391 591 391 632.5 392 c 128,-1,6
 674 393 674 393 715.5 394.5 c 128,-1,7
 757 396 757 396 798 397 c 1,8,-1
 798 329 l 1,9,10
 757 331 757 331 715.5 332 c 128,-1,11
 674 333 674 333 632.5 334.5 c 128,-1,12
 591 336 591 336 549 337 c 1,13,-1
 549 389 l 1,4,5
391 0 m 1,14,-1
 391 46 l 1,15,-1
 400 46 l 2,16,17
 419 46 419 46 439 47.5 c 128,-1,18
 459 49 459 49 472.5 51.5 c 128,-1,19
 486 54 486 54 486 57 c 2,20,-1
 486 655 l 1,21,-1
 487 655 l 1,22,-1
 142 65 l 2,23,24
 142 60 142 60 155 55.5 c 128,-1,25
 168 51 168 51 187.5 48.5 c 128,-1,26
 207 46 207 46 226 46 c 2,27,-1
 241 46 l 1,28,-1
 241 0 l 1,29,-1
 10 0 l 1,30,-1
 10 46 l 1,31,-1
 15 46 l 2,32,33
 34 46 34 46 45.5 50 c 128,-1,34
 57 54 57 54 66.5 63.5 c 128,-1,35
 76 73 76 73 86 90 c 2,36,-1
 409 634 l 1,37,38
 409 646 409 646 394.5 652.5 c 128,-1,39
 380 659 380 659 358 661.5 c 128,-1,40
 336 664 336 664 311 664 c 2,41,-1
 300 664 l 1,42,-1
 300 710 l 1,43,-1
 896 710 l 1,44,-1
 896 518 l 1,45,-1
 841 518 l 1,46,-1
 832 608 l 2,47,48
 830 626 830 626 817 636 c 128,-1,49
 804 646 804 646 777 649 c 128,-1,50
 750 652 750 652 707 652 c 2,51,-1
 578 652 l 1,52,-1
 578 58 l 1,53,-1
 735 58 l 2,54,55
 767 58 767 58 790.5 59.5 c 128,-1,56
 814 61 814 61 829 66 c 128,-1,57
 844 71 844 71 851.5 80 c 128,-1,58
 859 89 859 89 861 102 c 2,59,-1
 870 217 l 1,60,-1
 926 217 l 1,61,-1
 926 0 l 1,62,-1
 391 0 l 1,14,-1
EndSplineSet
EndChar

StartChar: Eth
Encoding: 208 208 223
Width: 772
GlyphClass: 1
Flags: W
LayerCount: 2
Fore
SplineSet
45 381 m 1,0,-1
 434 381 l 1,1,-1
 434 329 l 1,2,-1
 45 329 l 1,3,-1
 45 381 l 1,0,-1
45 664 m 1,4,-1
 45 710 l 1,5,-1
 350 710 l 2,6,7
 434 710 434 710 502.5 685.5 c 128,-1,8
 571 661 571 661 621.5 615 c 128,-1,9
 672 569 672 569 699 503.5 c 128,-1,10
 726 438 726 438 726 357 c 256,11,12
 726 276 726 276 699 210.5 c 128,-1,13
 672 145 672 145 621.5 97.5 c 128,-1,14
 571 50 571 50 502.5 25 c 128,-1,15
 434 0 434 0 350 0 c 2,16,-1
 45 0 l 1,17,-1
 45 46 l 1,18,-1
 57 46 l 2,19,20
 93 46 93 46 117 53 c 128,-1,21
 141 60 141 60 141 82 c 2,22,-1
 141 628 l 2,23,24
 141 648 141 648 117 656 c 128,-1,25
 93 664 93 664 57 664 c 2,26,-1
 45 664 l 1,4,-1
350 652 m 2,27,-1
 233 652 l 1,28,-1
 233 58 l 1,29,-1
 350 58 l 2,30,31
 414 58 414 58 464.5 78 c 128,-1,32
 515 98 515 98 551.5 137 c 128,-1,33
 588 176 588 176 607 231.5 c 128,-1,34
 626 287 626 287 626 357 c 256,35,36
 626 427 626 427 607 482 c 128,-1,37
 588 537 588 537 551.5 575 c 128,-1,38
 515 613 515 613 464.5 632.5 c 128,-1,39
 414 652 414 652 350 652 c 2,27,-1
EndSplineSet
EndChar

StartChar: Oslash
Encoding: 216 216 224
Width: 793
GlyphClass: 2
Flags: W
AnchorPoint: "Anchor-0" 396 731 basechar 0
LayerCount: 2
Fore
SplineSet
397 661 m 0,0,1
 342 661 342 661 296.5 640 c 128,-1,2
 251 619 251 619 217.5 578.5 c 128,-1,3
 184 538 184 538 165.5 481.5 c 128,-1,4
 147 425 147 425 147 355 c 0,5,6
 147 277 147 277 164 220 c 128,-1,7
 181 163 181 163 213.5 124.5 c 128,-1,8
 246 86 246 86 292.5 67.5 c 128,-1,9
 339 49 339 49 397 49 c 0,10,11
 451 49 451 49 497 70 c 128,-1,12
 543 91 543 91 576.5 131.5 c 128,-1,13
 610 172 610 172 628.5 228.5 c 128,-1,14
 647 285 647 285 647 355 c 0,15,16
 647 433 647 433 630 490 c 128,-1,17
 613 547 613 547 580.5 585.5 c 128,-1,18
 548 624 548 624 501.5 642.5 c 128,-1,19
 455 661 455 661 397 661 c 0,0,1
397 -10 m 256,20,21
 323 -10 323 -10 259.5 16.5 c 128,-1,22
 196 43 196 43 148 91.5 c 128,-1,23
 100 140 100 140 73.5 207 c 128,-1,24
 47 274 47 274 47 355 c 256,25,26
 47 436 47 436 73.5 503 c 128,-1,27
 100 570 100 570 148 618.5 c 128,-1,28
 196 667 196 667 259.5 693.5 c 128,-1,29
 323 720 323 720 397 720 c 256,30,31
 471 720 471 720 534.5 693.5 c 128,-1,32
 598 667 598 667 646 618.5 c 128,-1,33
 694 570 694 570 720.5 503 c 128,-1,34
 747 436 747 436 747 355 c 256,35,36
 747 274 747 274 720.5 207 c 128,-1,37
 694 140 694 140 646 91.5 c 128,-1,38
 598 43 598 43 534.5 16.5 c 128,-1,39
 471 -10 471 -10 397 -10 c 256,20,21
9 -15 m 1,40,-1
 691 725 l 1,41,-1
 774 725 l 1,42,-1
 92 -15 l 1,43,-1
 9 -15 l 1,40,-1
EndSplineSet
EndChar

StartChar: Thorn
Encoding: 222 222 226
Width: 646
GlyphClass: 1
Flags: W
LayerCount: 2
Fore
SplineSet
337 710 m 1,0,-1
 45 710 l 1,1,-1
 45 664 l 1,2,-1
 56 664 l 2,3,4
 92 664 92 664 116 657 c 128,-1,5
 140 650 140 650 140 628 c 2,6,-1
 140 82 l 2,7,8
 140 60 140 60 116 53 c 128,-1,9
 92 46 92 46 56 46 c 2,10,-1
 45 46 l 1,11,-1
 45 0 l 1,12,-1
 337 0 l 1,13,-1
 337 46 l 1,14,-1
 310 46 l 2,15,16
 297 46 297 46 283.5 46.5 c 128,-1,17
 270 47 270 47 258.5 48.5 c 128,-1,18
 247 50 247 50 240 51.5 c 128,-1,19
 233 53 233 53 233 56 c 2,20,-1
 233 654 l 2,21,22
 233 657 233 657 240 658.5 c 128,-1,23
 247 660 247 660 258.5 661.5 c 128,-1,24
 270 663 270 663 283.5 663.5 c 128,-1,25
 297 664 297 664 310 664 c 2,26,-1
 337 664 l 1,27,-1
 337 710 l 1,0,-1
596 363 m 0,28,29
 596 425 596 425 566 470 c 128,-1,30
 536 515 536 515 480 540 c 128,-1,31
 424 565 424 565 345 565 c 2,32,-1
 190 565 l 1,33,-1
 174 507 l 1,34,-1
 343 507 l 2,35,36
 395 507 395 507 428.5 490 c 128,-1,37
 462 473 462 473 479 440.5 c 128,-1,38
 496 408 496 408 496 363 c 256,39,40
 496 318 496 318 479 284 c 128,-1,41
 462 250 462 250 427 231 c 128,-1,42
 392 212 392 212 338 212 c 2,43,-1
 174 212 l 1,44,-1
 174 154 l 1,45,-1
 340 154 l 2,46,47
 420 154 420 154 477 180.5 c 128,-1,48
 534 207 534 207 565 254.5 c 128,-1,49
 596 302 596 302 596 363 c 0,28,29
EndSplineSet
EndChar

StartChar: Hbar
Encoding: 294 294 228
Width: 832
GlyphClass: 1
Flags: W
LayerCount: 2
Fore
SplineSet
201 395 m 1,0,-1
 630 395 l 1,1,-1
 630 337 l 1,2,-1
 201 337 l 1,3,-1
 201 395 l 1,0,-1
45 0 m 1,4,-1
 45 46 l 1,5,-1
 56 46 l 2,6,7
 92 46 92 46 116 53 c 128,-1,8
 140 60 140 60 140 82 c 2,9,-1
 140 628 l 2,10,11
 140 650 140 650 116 657 c 128,-1,12
 92 664 92 664 56 664 c 2,13,-1
 45 664 l 1,14,-1
 45 710 l 1,15,-1
 329 710 l 1,16,-1
 329 664 l 1,17,-1
 320 664 l 2,18,19
 306 664 306 664 290.5 663.5 c 128,-1,20
 275 663 275 663 262 661.5 c 128,-1,21
 249 660 249 660 241 658.5 c 128,-1,22
 233 657 233 657 233 654 c 2,23,-1
 233 56 l 2,24,25
 233 53 233 53 241 51.5 c 128,-1,26
 249 50 249 50 262 48.5 c 128,-1,27
 275 47 275 47 290.5 46.5 c 128,-1,28
 306 46 306 46 320 46 c 2,29,-1
 329 46 l 1,30,-1
 329 0 l 1,31,-1
 45 0 l 1,4,-1
503 0 m 1,32,-1
 503 46 l 1,33,-1
 512 46 l 2,34,35
 526 46 526 46 541 46.5 c 128,-1,36
 556 47 556 47 569 48.5 c 128,-1,37
 582 50 582 50 590 51.5 c 128,-1,38
 598 53 598 53 598 56 c 2,39,-1
 598 654 l 2,40,41
 598 657 598 657 590 658.5 c 128,-1,42
 582 660 582 660 569 661.5 c 128,-1,43
 556 663 556 663 541 663.5 c 128,-1,44
 526 664 526 664 512 664 c 2,45,-1
 503 664 l 1,46,-1
 503 710 l 1,47,-1
 787 710 l 1,48,-1
 787 664 l 1,49,-1
 776 664 l 2,50,51
 739 664 739 664 715 657 c 128,-1,52
 691 650 691 650 691 628 c 2,53,-1
 691 82 l 2,54,55
 691 60 691 60 715 53 c 128,-1,56
 739 46 739 46 776 46 c 2,57,-1
 787 46 l 1,58,-1
 787 0 l 1,59,-1
 503 0 l 1,32,-1
45 497 m 1,60,-1
 45 549 l 1,61,-1
 787 549 l 1,62,-1
 787 497 l 1,63,-1
 45 497 l 1,60,-1
EndSplineSet
EndChar

StartChar: Ldot
Encoding: 319 319 230
Width: 618
GlyphClass: 1
Flags: W
LayerCount: 2
Fore
SplineSet
333 710 m 1,0,-1
 45 710 l 1,1,-1
 45 664 l 1,2,-1
 56 664 l 2,3,4
 92 664 92 664 116 657 c 128,-1,5
 140 650 140 650 140 628 c 2,6,-1
 140 82 l 2,7,8
 140 60 140 60 116 53 c 128,-1,9
 92 46 92 46 56 46 c 2,10,-1
 45 46 l 1,11,-1
 45 0 l 1,12,-1
 575 0 l 1,13,-1
 575 224 l 1,14,-1
 516 224 l 1,15,-1
 506 102 l 2,16,17
 505 84 505 84 491.5 74.5 c 128,-1,18
 478 65 478 65 451 61.5 c 128,-1,19
 424 58 424 58 381 58 c 2,20,-1
 233 58 l 1,21,-1
 233 628 l 2,22,23
 233 650 233 650 258 657 c 128,-1,24
 283 664 283 664 322 664 c 2,25,-1
 333 664 l 1,26,-1
 333 710 l 1,0,-1
502 341 m 0,27,28
 472 341 472 341 453.5 358.5 c 128,-1,29
 435 376 435 376 435 404 c 0,30,31
 435 433 435 433 453.5 450.5 c 128,-1,32
 472 468 472 468 502 468 c 0,33,34
 533 468 533 468 552 450.5 c 128,-1,35
 571 433 571 433 571 404 c 0,36,37
 571 376 571 376 552 358.5 c 128,-1,38
 533 341 533 341 502 341 c 0,27,28
EndSplineSet
Ligature2: "Ligature Substitution lookup 5 subtable" L periodcentered
EndChar

StartChar: Lslash
Encoding: 321 321 231
Width: 618
GlyphClass: 1
Flags: W
LayerCount: 2
Fore
SplineSet
45 189 m 1,0,-1
 449 457 l 1,1,-1
 449 526 l 1,2,-1
 45 258 l 1,3,-1
 45 189 l 1,0,-1
333 710 m 1,4,-1
 45 710 l 1,5,-1
 45 664 l 1,6,-1
 56 664 l 2,7,8
 92 664 92 664 116 657 c 128,-1,9
 140 650 140 650 140 628 c 2,10,-1
 140 82 l 2,11,12
 140 60 140 60 116 53 c 128,-1,13
 92 46 92 46 56 46 c 2,14,-1
 45 46 l 1,15,-1
 45 0 l 1,16,-1
 575 0 l 1,17,-1
 575 224 l 1,18,-1
 516 224 l 1,19,-1
 506 102 l 2,20,21
 505 84 505 84 491.5 74.5 c 128,-1,22
 478 65 478 65 451 61.5 c 128,-1,23
 424 58 424 58 381 58 c 2,24,-1
 233 58 l 1,25,-1
 233 628 l 2,26,27
 233 650 233 650 258 657 c 128,-1,28
 283 664 283 664 322 664 c 2,29,-1
 333 664 l 1,30,-1
 333 710 l 1,4,-1
EndSplineSet
EndChar

StartChar: Eng
Encoding: 330 330 232
Width: 798
GlyphClass: 1
Flags: W
LayerCount: 2
Fore
SplineSet
665 -11 m 2,0,1
 665 -67 665 -67 649.5 -105.5 c 128,-1,2
 634 -144 634 -144 608 -167.5 c 128,-1,3
 582 -191 582 -191 551 -201.5 c 128,-1,4
 520 -212 520 -212 488 -212 c 0,5,6
 461 -212 461 -212 431.5 -208 c 128,-1,7
 402 -204 402 -204 387 -200 c 1,8,-1
 387 -136 l 1,9,10
 400 -138 400 -138 416 -141.5 c 128,-1,11
 432 -145 432 -145 449.5 -147 c 128,-1,12
 467 -149 467 -149 485 -149 c 0,13,14
 518 -149 518 -149 545 -135 c 128,-1,15
 572 -121 572 -121 587 -90.5 c 128,-1,16
 602 -60 602 -60 602 -12 c 2,17,-1
 602 28 l 1,18,-1
 642 -83 l 1,19,-1
 191 671 l 1,20,-1
 205 675 l 1,21,-1
 205 62 l 2,22,23
 205 59 205 59 218.5 55 c 128,-1,24
 232 51 232 51 253.5 48.5 c 128,-1,25
 275 46 275 46 296 46 c 2,26,-1
 310 46 l 1,27,-1
 310 0 l 1,28,-1
 45 0 l 1,29,-1
 45 46 l 1,30,-1
 56 46 l 2,31,32
 81 46 81 46 99.5 50.5 c 128,-1,33
 118 55 118 55 129 64.5 c 128,-1,34
 140 74 140 74 140 88 c 2,35,-1
 140 628 l 2,36,37
 140 643 140 643 129 650.5 c 128,-1,38
 118 658 118 658 99 661 c 128,-1,39
 80 664 80 664 56 664 c 2,40,-1
 45 664 l 1,41,-1
 45 710 l 1,42,-1
 267 710 l 1,43,-1
 634 104 l 1,44,-1
 602 91 l 1,45,-1
 602 648 l 2,46,47
 602 652 602 652 588 655.5 c 128,-1,48
 574 659 574 659 553 661.5 c 128,-1,49
 532 664 532 664 510 664 c 2,50,-1
 496 664 l 1,51,-1
 496 710 l 1,52,-1
 762 710 l 1,53,-1
 762 664 l 1,54,-1
 750 664 l 2,55,56
 726 664 726 664 706.5 659.5 c 128,-1,57
 687 655 687 655 676 646 c 128,-1,58
 665 637 665 637 665 622 c 2,59,-1
 665 -11 l 2,0,1
EndSplineSet
Substitution2: "'ss07' Style Set 7 lookup 67 subtable" Eng.afr
EndChar

StartChar: OE
Encoding: 338 338 233
Width: 1019
GlyphClass: 1
Flags: W
LayerCount: 2
Fore
SplineSet
588 390 m 1,0,1
 629 392 629 392 669.5 393 c 128,-1,2
 710 394 710 394 751 395.5 c 128,-1,3
 792 397 792 397 832 398 c 1,4,-1
 832 328 l 1,5,6
 792 330 792 330 751 331 c 128,-1,7
 710 332 710 332 669.5 333.5 c 128,-1,8
 629 335 629 335 588 336 c 1,9,-1
 588 390 l 1,0,1
423 56 m 2,10,-1
 525 56 l 1,11,-1
 525 654 l 1,12,-1
 423 654 l 2,13,14
 359 654 359 654 307 634 c 128,-1,15
 255 614 255 614 219 574.5 c 128,-1,16
 183 535 183 535 164 479.5 c 128,-1,17
 145 424 145 424 145 353 c 256,18,19
 145 282 145 282 164 227 c 128,-1,20
 183 172 183 172 219 133.5 c 128,-1,21
 255 95 255 95 307 75.5 c 128,-1,22
 359 56 359 56 423 56 c 2,10,-1
423 0 m 2,23,24
 339 0 339 0 270 24.5 c 128,-1,25
 201 49 201 49 151 95 c 128,-1,26
 101 141 101 141 74 206.5 c 128,-1,27
 47 272 47 272 47 353 c 256,28,29
 47 434 47 434 74 499.5 c 128,-1,30
 101 565 101 565 151 612.5 c 128,-1,31
 201 660 201 660 270 685 c 128,-1,32
 339 710 339 710 423 710 c 2,33,-1
 930 710 l 1,34,-1
 930 518 l 1,35,-1
 875 518 l 1,36,-1
 866 608 l 2,37,38
 864 626 864 626 851 636 c 128,-1,39
 838 646 838 646 811 649 c 128,-1,40
 784 652 784 652 741 652 c 2,41,-1
 617 652 l 1,42,-1
 617 58 l 1,43,-1
 769 58 l 2,44,45
 801 58 801 58 824.5 59.5 c 128,-1,46
 848 61 848 61 863 66 c 128,-1,47
 878 71 878 71 885.5 79.5 c 128,-1,48
 893 88 893 88 894 102 c 2,49,-1
 904 217 l 1,50,-1
 960 217 l 1,51,-1
 960 0 l 1,52,-1
 423 0 l 2,23,24
EndSplineSet
EndChar

StartChar: Tbar
Encoding: 358 358 234
Width: 668
GlyphClass: 1
Flags: W
LayerCount: 2
Fore
SplineSet
139 380 m 1,0,-1
 528 380 l 1,1,-1
 528 328 l 1,2,-1
 139 328 l 1,3,-1
 139 380 l 1,0,-1
287 82 m 2,4,-1
 287 655 l 1,5,-1
 229 655 l 2,6,7
 186 655 186 655 159 652 c 128,-1,8
 132 649 132 649 119 639 c 128,-1,9
 106 629 106 629 104 611 c 2,10,-1
 95 513 l 1,11,-1
 40 513 l 1,12,-1
 40 710 l 1,13,-1
 628 710 l 1,14,-1
 628 513 l 1,15,-1
 573 513 l 1,16,-1
 564 611 l 2,17,18
 562 629 562 629 548.5 639 c 128,-1,19
 535 649 535 649 508 652 c 128,-1,20
 481 655 481 655 438 655 c 2,21,-1
 380 655 l 1,22,-1
 380 82 l 2,23,24
 380 60 380 60 404 53 c 128,-1,25
 428 46 428 46 465 46 c 2,26,-1
 481 46 l 1,27,-1
 481 0 l 1,28,-1
 186 0 l 1,29,-1
 186 46 l 1,30,-1
 202 46 l 2,31,32
 239 46 239 46 263 53 c 128,-1,33
 287 60 287 60 287 82 c 2,4,-1
EndSplineSet
EndChar

StartChar: Bhook
Encoding: 385 385 235
Width: 729
GlyphClass: 2
Flags: W
AnchorPoint: "Anchor-1" 398 0 basechar 0
AnchorPoint: "Anchor-0" 369 738 basechar 0
LayerCount: 2
Fore
SplineSet
274 400 m 1,0,-1
 406 400 l 2,1,2
 459 400 459 400 491 416 c 128,-1,3
 523 432 523 432 537 461.5 c 128,-1,4
 551 491 551 491 551 529 c 0,5,6
 551 569 551 569 536 597 c 128,-1,7
 521 625 521 625 488.5 639.5 c 128,-1,8
 456 654 456 654 405 654 c 2,9,-1
 294 654 l 1,10,-1
 294 56 l 1,11,-1
 414 56 l 2,12,13
 471 56 471 56 508 72.5 c 128,-1,14
 545 89 545 89 562.5 121.5 c 128,-1,15
 580 154 580 154 580 200 c 0,16,17
 580 242 580 242 563 274.5 c 128,-1,18
 546 307 546 307 509.5 325.5 c 128,-1,19
 473 344 473 344 414 344 c 2,20,-1
 274 344 l 1,21,-1
 274 400 l 1,0,-1
191 710 m 2,22,-1
 406 710 l 2,23,24
 463 710 463 710 507.5 697.5 c 128,-1,25
 552 685 552 685 582.5 661.5 c 128,-1,26
 613 638 613 638 629 604.5 c 128,-1,27
 645 571 645 571 645 530 c 0,28,29
 645 480 645 480 617 441.5 c 128,-1,30
 589 403 589 403 534 382 c 128,-1,31
 479 361 479 361 398 361 c 1,32,-1
 477 399 l 1,33,-1
 477 351 l 1,34,-1
 407 387 l 1,35,36
 494 387 494 387 554 364 c 128,-1,37
 614 341 614 341 645 298.5 c 128,-1,38
 676 256 676 256 676 199 c 0,39,40
 676 153 676 153 658.5 116 c 128,-1,41
 641 79 641 79 607.5 53 c 128,-1,42
 574 27 574 27 526 13.5 c 128,-1,43
 478 0 478 0 416 0 c 2,44,-1
 105 0 l 1,45,-1
 105 46 l 1,46,-1
 116 46 l 2,47,48
 153 46 153 46 177 53 c 128,-1,49
 201 60 201 60 201 82 c 2,50,-1
 201 652 l 1,51,-1
 191 652 l 2,52,53
 153 652 153 652 127 642 c 128,-1,54
 101 632 101 632 88.5 610 c 128,-1,55
 76 588 76 588 76 551 c 0,56,57
 76 535 76 535 81.5 511.5 c 128,-1,58
 87 488 87 488 95 468 c 1,59,-1
 1 468 l 1,60,61
 -6 486 -6 486 -8.5 511 c 128,-1,62
 -11 536 -11 536 -11 550 c 0,63,64
 -11 596 -11 596 9.5 632 c 128,-1,65
 30 668 30 668 74 689 c 128,-1,66
 118 710 118 710 191 710 c 2,22,-1
EndSplineSet
EndChar

StartChar: Dhook
Encoding: 394 394 236
Width: 833
GlyphClass: 2
Flags: W
AnchorPoint: "Anchor-1" 418 0 basechar 0
AnchorPoint: "Anchor-0" 399 741 basechar 0
LayerCount: 2
Fore
SplineSet
191 710 m 2,0,-1
 411 710 l 2,1,2
 495 710 495 710 563.5 685.5 c 128,-1,3
 632 661 632 661 682 615 c 128,-1,4
 732 569 732 569 759 503.5 c 128,-1,5
 786 438 786 438 786 357 c 256,6,7
 786 276 786 276 759 210.5 c 128,-1,8
 732 145 732 145 682 97.5 c 128,-1,9
 632 50 632 50 563.5 25 c 128,-1,10
 495 0 495 0 411 0 c 2,11,-1
 105 0 l 1,12,-1
 105 46 l 1,13,-1
 117 46 l 2,14,15
 154 46 154 46 178 53 c 128,-1,16
 202 60 202 60 202 82 c 2,17,-1
 202 652 l 1,18,-1
 191 652 l 2,19,20
 153 652 153 652 127 642 c 128,-1,21
 101 632 101 632 88.5 610 c 128,-1,22
 76 588 76 588 76 551 c 0,23,24
 76 535 76 535 81.5 511.5 c 128,-1,25
 87 488 87 488 95 468 c 1,26,-1
 1 468 l 1,27,28
 -6 486 -6 486 -8.5 511 c 128,-1,29
 -11 536 -11 536 -11 550 c 0,30,31
 -11 596 -11 596 9.5 632 c 128,-1,32
 30 668 30 668 74 689 c 128,-1,33
 118 710 118 710 191 710 c 2,0,-1
411 652 m 2,34,-1
 294 652 l 1,35,-1
 294 58 l 1,36,-1
 411 58 l 2,37,38
 475 58 475 58 525.5 78 c 128,-1,39
 576 98 576 98 612 137 c 128,-1,40
 648 176 648 176 667 231.5 c 128,-1,41
 686 287 686 287 686 357 c 0,42,43
 686 428 686 428 667 482.5 c 128,-1,44
 648 537 648 537 612 575 c 128,-1,45
 576 613 576 613 525.5 632.5 c 128,-1,46
 475 652 475 652 411 652 c 2,34,-1
EndSplineSet
EndChar

StartChar: Schwa
Encoding: 399 399 237
Width: 726
GlyphClass: 1
Flags: W
LayerCount: 2
Fore
SplineSet
360 720 m 0,0,1
 449 720 449 720 521.5 676 c 128,-1,2
 594 632 594 632 636.5 550.5 c 128,-1,3
 679 469 679 469 679 358 c 0,4,5
 679 277 679 277 653.5 209.5 c 128,-1,6
 628 142 628 142 584.5 93 c 128,-1,7
 541 44 541 44 484.5 17 c 128,-1,8
 428 -10 428 -10 365 -10 c 0,9,10
 279 -10 279 -10 211.5 33 c 128,-1,11
 144 76 144 76 105.5 162 c 128,-1,12
 67 248 67 248 66 377 c 1,13,-1
 633 377 l 1,14,-1
 635 317 l 1,15,-1
 137 317 l 1,16,-1
 164 339 l 1,17,18
 165 266 165 266 180.5 211.5 c 128,-1,19
 196 157 196 157 222.5 121 c 128,-1,20
 249 85 249 85 285.5 67 c 128,-1,21
 322 49 322 49 365 49 c 0,22,23
 407 49 407 49 446 70.5 c 128,-1,24
 485 92 485 92 515 132.5 c 128,-1,25
 545 173 545 173 563 229.5 c 128,-1,26
 581 286 581 286 581 356 c 0,27,28
 581 429 581 429 564 485.5 c 128,-1,29
 547 542 547 542 516.5 581.5 c 128,-1,30
 486 621 486 621 445.5 641 c 128,-1,31
 405 661 405 661 357 661 c 0,32,33
 304 661 304 661 261 639.5 c 128,-1,34
 218 618 218 618 186 585 c 128,-1,35
 154 552 154 552 134 518 c 1,36,-1
 78 557 l 1,37,38
 106 602 106 602 146.5 639 c 128,-1,39
 187 676 187 676 241 698 c 128,-1,40
 295 720 295 720 360 720 c 0,0,1
EndSplineSet
EndChar

StartChar: Khook
Encoding: 408 408 238
Width: 734
GlyphClass: 2
Flags: W
AnchorPoint: "Anchor-1" 378 0 basechar 0
AnchorPoint: "Anchor-0" 419 741 basechar 0
LayerCount: 2
Fore
SplineSet
45 0 m 1,0,-1
 45 46 l 1,1,-1
 56 46 l 2,2,3
 92 46 92 46 116 53 c 128,-1,4
 140 60 140 60 140 82 c 2,5,-1
 140 628 l 2,6,7
 140 650 140 650 116 657 c 128,-1,8
 92 664 92 664 56 664 c 2,9,-1
 45 664 l 1,10,-1
 45 710 l 1,11,-1
 329 710 l 1,12,-1
 329 664 l 1,13,-1
 320 664 l 2,14,15
 306 664 306 664 290.5 663.5 c 128,-1,16
 275 663 275 663 262 661.5 c 128,-1,17
 249 660 249 660 241 658.5 c 128,-1,18
 233 657 233 657 233 654 c 2,19,-1
 233 56 l 2,20,21
 233 53 233 53 241 51.5 c 128,-1,22
 249 50 249 50 262 48.5 c 128,-1,23
 275 47 275 47 290.5 46.5 c 128,-1,24
 306 46 306 46 320 46 c 2,25,-1
 329 46 l 1,26,-1
 329 0 l 1,27,-1
 45 0 l 1,0,-1
630 719 m 0,28,29
 668 719 668 719 691.5 699.5 c 128,-1,30
 715 680 715 680 726 649.5 c 128,-1,31
 737 619 737 619 737 586 c 0,32,33
 737 549 737 549 731.5 517.5 c 128,-1,34
 726 486 726 486 718 468 c 1,35,-1
 624 468 l 1,36,37
 631 482 631 482 636.5 501 c 128,-1,38
 642 520 642 520 646 542 c 128,-1,39
 650 564 650 564 650 587 c 0,40,41
 650 619 650 619 642.5 637.5 c 128,-1,42
 635 656 635 656 616 656 c 0,43,44
 602 656 602 656 586.5 646.5 c 128,-1,45
 571 637 571 637 548 612.5 c 128,-1,46
 525 588 525 588 487 543 c 2,47,-1
 335 357 l 1,48,-1
 335 402 l 1,49,-1
 613 80 l 2,50,51
 626 66 626 66 637.5 58 c 128,-1,52
 649 50 649 50 664.5 48 c 128,-1,53
 680 46 680 46 702 46 c 2,54,-1
 712 46 l 1,55,-1
 712 0 l 1,56,-1
 423 0 l 1,57,-1
 423 46 l 1,58,-1
 432 46 l 2,59,60
 451 46 451 46 470 47 c 128,-1,61
 489 48 489 48 502.5 50.5 c 128,-1,62
 516 53 516 53 516 56 c 2,63,-1
 265 347 l 1,64,-1
 265 364 l 1,65,-1
 435 571 l 2,66,67
 467 610 467 610 492.5 638.5 c 128,-1,68
 518 667 518 667 540 684.5 c 128,-1,69
 562 702 562 702 583.5 710.5 c 128,-1,70
 605 719 605 719 630 719 c 0,28,29
EndSplineSet
EndChar

StartChar: Yhook
Encoding: 435 435 239
Width: 732
GlyphClass: 2
Flags: W
AnchorPoint: "Anchor-1" 347 0 basechar 0
AnchorPoint: "Anchor-0" 378 741 basechar 0
LayerCount: 2
Fore
SplineSet
478 576 m 2,0,1
 507 628 507 628 531.5 659 c 128,-1,2
 556 690 556 690 581 704.5 c 128,-1,3
 606 719 606 719 635 719 c 0,4,5
 678 719 678 719 702 700 c 128,-1,6
 726 681 726 681 736 650.5 c 128,-1,7
 746 620 746 620 746 584 c 0,8,9
 746 553 746 553 740.5 519.5 c 128,-1,10
 735 486 735 486 727 468 c 1,11,-1
 633 468 l 1,12,13
 640 482 640 482 645.5 501.5 c 128,-1,14
 651 521 651 521 655 543 c 128,-1,15
 659 565 659 565 659 585 c 0,16,17
 659 620 659 620 652.5 638 c 128,-1,18
 646 656 646 656 624 656 c 0,19,20
 611 656 611 656 597.5 645 c 128,-1,21
 584 634 584 634 568 610.5 c 128,-1,22
 552 587 552 587 531 548 c 2,23,-1
 374 270 l 1,24,-1
 386 316 l 1,25,-1
 386 82 l 2,26,27
 386 60 386 60 410 53 c 128,-1,28
 434 46 434 46 471 46 c 2,29,-1
 487 46 l 1,30,-1
 487 0 l 1,31,-1
 192 0 l 1,32,-1
 192 46 l 1,33,-1
 208 46 l 2,34,35
 245 46 245 46 269 53 c 128,-1,36
 293 60 293 60 293 82 c 2,37,-1
 293 316 l 1,38,-1
 307 271 l 1,39,-1
 93 637 l 2,40,41
 86 650 86 650 74.5 655.5 c 128,-1,42
 63 661 63 661 48.5 662.5 c 128,-1,43
 34 664 34 664 17 664 c 2,44,-1
 12 664 l 1,45,-1
 12 710 l 1,46,-1
 275 710 l 1,47,-1
 275 664 l 1,48,-1
 258 664 l 2,49,50
 240 664 240 664 221 663 c 128,-1,51
 202 662 202 662 189 659.5 c 128,-1,52
 176 657 176 657 176 653 c 2,53,-1
 367 321 l 1,54,-1
 339 324 l 1,55,-1
 478 576 l 2,0,1
EndSplineSet
EndChar

StartChar: Germandbls
Encoding: 7838 7838 240
Width: 837
GlyphClass: 1
Flags: W
LayerCount: 2
Fore
SplineSet
583 49 m 0,0,1
 622 49 622 49 648 65 c 128,-1,2
 674 81 674 81 686.5 110 c 128,-1,3
 699 139 699 139 699 180 c 0,4,5
 699 229 699 229 679 263.5 c 128,-1,6
 659 298 659 298 626 320 c 128,-1,7
 593 342 593 342 552.5 354 c 128,-1,8
 512 366 512 366 472 370 c 1,9,-1
 472 427 l 1,10,-1
 638 681 l 1,11,-1
 663 656 l 1,12,-1
 398 656 l 2,13,14
 344 656 344 656 312 643 c 128,-1,15
 280 630 280 630 263 606 c 128,-1,16
 246 582 246 582 240.5 549 c 128,-1,17
 235 516 235 516 235 474 c 2,18,-1
 235 0 l 1,19,-1
 47 0 l 1,20,-1
 47 46 l 1,21,-1
 57 46 l 2,22,23
 94 46 94 46 118 53 c 128,-1,24
 142 60 142 60 142 82 c 2,25,-1
 142 457 l 2,26,27
 142 518 142 518 155 565.5 c 128,-1,28
 168 613 168 613 198 645 c 128,-1,29
 228 677 228 677 277 693.5 c 128,-1,30
 326 710 326 710 398 710 c 2,31,-1
 716 710 l 1,32,-1
 716 651 l 1,33,-1
 547 396 l 1,34,-1
 509 421 l 1,35,36
 554 417 554 417 603.5 402 c 128,-1,37
 653 387 653 387 696 360 c 128,-1,38
 739 333 739 333 765.5 292 c 128,-1,39
 792 251 792 251 792 193 c 0,40,41
 792 131 792 131 765 85 c 128,-1,42
 738 39 738 39 692 14.5 c 128,-1,43
 646 -10 646 -10 588 -10 c 0,44,45
 537 -10 537 -10 495.5 8.5 c 128,-1,46
 454 27 454 27 425 67 c 128,-1,47
 396 107 396 107 380 172 c 1,48,-1
 422 164 l 1,49,-1
 407 0 l 1,50,-1
 348 0 l 1,51,-1
 348 216 l 1,52,-1
 411 216 l 1,53,54
 419 180 419 180 433.5 149 c 128,-1,55
 448 118 448 118 469.5 96 c 128,-1,56
 491 74 491 74 519 61.5 c 128,-1,57
 547 49 547 49 583 49 c 0,0,1
EndSplineSet
EndChar

StartChar: Delta
Encoding: 916 916 241
Width: 726
GlyphClass: 1
Flags: W
LayerCount: 2
Fore
SplineSet
45 0 m 1,0,-1
 45 77 l 1,1,-1
 310 710 l 1,2,-1
 416 710 l 1,3,-1
 682 77 l 1,4,-1
 682 0 l 1,5,-1
 45 0 l 1,0,-1
601 47 m 1,6,-1
 330 700 l 1,7,-1
 367 699 l 1,8,-1
 99 46 l 1,9,-1
 76 82 l 1,10,-1
 621 82 l 1,11,-1
 601 47 l 1,6,-1
EndSplineSet
EndChar

StartChar: Omega
Encoding: 937 937 242
Width: 820
GlyphClass: 1
Flags: W
LayerCount: 2
Fore
SplineSet
410 720 m 256,0,1
 339 720 339 720 280.5 697.5 c 128,-1,2
 222 675 222 675 180 635.5 c 128,-1,3
 138 596 138 596 115 543 c 128,-1,4
 92 490 92 490 92 430 c 0,5,6
 92 384 92 384 106 341.5 c 128,-1,7
 120 299 120 299 144 260 c 128,-1,8
 168 221 168 221 197.5 184.5 c 128,-1,9
 227 148 227 148 258.5 113.5 c 128,-1,10
 290 79 290 79 318 46 c 1,11,-1
 317 72 l 1,12,-1
 221 72 l 2,13,14
 185 72 185 72 162.5 75.5 c 128,-1,15
 140 79 140 79 128.5 88 c 128,-1,16
 117 97 117 97 115 115 c 2,17,-1
 106 192 l 1,18,-1
 50 192 l 1,19,-1
 50 0 l 1,20,-1
 350 0 l 1,21,-1
 350 82 l 1,22,23
 323 121 323 121 294 159 c 128,-1,24
 265 197 265 197 240 237 c 128,-1,25
 215 277 215 277 200 325 c 128,-1,26
 185 373 185 373 185 430 c 0,27,28
 185 501 185 501 212 553 c 128,-1,29
 239 605 239 605 289.5 633 c 128,-1,30
 340 661 340 661 410 661 c 256,31,32
 480 661 480 661 530.5 633 c 128,-1,33
 581 605 581 605 608 553 c 128,-1,34
 635 501 635 501 635 430 c 0,35,36
 635 373 635 373 620 325 c 128,-1,37
 605 277 605 277 580 237 c 128,-1,38
 555 197 555 197 526 159 c 128,-1,39
 497 121 497 121 470 82 c 1,40,-1
 470 0 l 1,41,-1
 770 0 l 1,42,-1
 770 192 l 1,43,-1
 714 192 l 1,44,-1
 704 115 l 2,45,46
 702 97 702 97 691 88 c 128,-1,47
 680 79 680 79 657.5 75.5 c 128,-1,48
 635 72 635 72 599 72 c 2,49,-1
 503 72 l 1,50,-1
 502 46 l 1,51,52
 530 79 530 79 561.5 113.5 c 128,-1,53
 593 148 593 148 622.5 184.5 c 128,-1,54
 652 221 652 221 676 260 c 128,-1,55
 700 299 700 299 714 341.5 c 128,-1,56
 728 384 728 384 728 430 c 0,57,58
 728 490 728 490 705 543 c 128,-1,59
 682 596 682 596 640 635.5 c 128,-1,60
 598 675 598 675 539.5 697.5 c 128,-1,61
 481 720 481 720 410 720 c 256,0,1
EndSplineSet
EndChar

StartChar: Djecyr
Encoding: 1026 1026 244
Width: 813
GlyphClass: 2
Flags: W
AnchorPoint: "Anchor-0" 319 741 basechar 0
LayerCount: 2
Fore
SplineSet
775 194 m 0,0,1
 775 142 775 142 758.5 102 c 128,-1,2
 742 62 742 62 710 34.5 c 128,-1,3
 678 7 678 7 632.5 -6.5 c 128,-1,4
 587 -20 587 -20 530 -20 c 1,5,-1
 530 39 l 1,6,7
 577 39 577 39 609.5 54.5 c 128,-1,8
 642 70 642 70 659 104.5 c 128,-1,9
 676 139 676 139 676 195 c 0,10,11
 676 263 676 263 637 308 c 128,-1,12
 598 353 598 353 521 353 c 0,13,14
 463 353 463 353 413.5 342 c 128,-1,15
 364 331 364 331 314 302 c 1,16,-1
 314 359 l 1,17,18
 361 385 361 385 412.5 397.5 c 128,-1,19
 464 410 464 410 522 410 c 0,20,21
 609 410 609 410 665 382.5 c 128,-1,22
 721 355 721 355 748 306.5 c 128,-1,23
 775 258 775 258 775 194 c 0,0,1
166 0 m 1,24,-1
 166 46 l 1,25,-1
 182 46 l 2,26,27
 219 46 219 46 243 53 c 128,-1,28
 267 60 267 60 267 82 c 2,29,-1
 267 655 l 1,30,-1
 229 655 l 2,31,32
 186 655 186 655 159 652 c 128,-1,33
 132 649 132 649 119 639 c 128,-1,34
 106 629 106 629 104 611 c 2,35,-1
 95 513 l 1,36,-1
 40 513 l 1,37,-1
 40 710 l 1,38,-1
 628 710 l 1,39,-1
 628 523 l 1,40,-1
 573 523 l 1,41,-1
 564 611 l 2,42,43
 561 629 561 629 548 639 c 128,-1,44
 535 649 535 649 508 652 c 128,-1,45
 481 655 481 655 438 655 c 2,46,-1
 360 655 l 1,47,-1
 360 56 l 2,48,49
 360 53 360 53 370.5 50.5 c 128,-1,50
 381 48 381 48 396.5 47 c 128,-1,51
 412 46 412 46 426 46 c 2,52,-1
 432 46 l 1,53,-1
 432 0 l 1,54,-1
 166 0 l 1,24,-1
EndSplineSet
EndChar

StartChar: Eukrcyr
Encoding: 1028 1028 245
Width: 717
GlyphClass: 2
Flags: W
AnchorPoint: "Anchor-1" 379 0 basechar 0
AnchorPoint: "Anchor-0" 379 741 basechar 0
LayerCount: 2
Fore
SplineSet
103 390 m 1,0,1
 133 391 133 391 163.5 391.5 c 128,-1,2
 194 392 194 392 224 393 c 128,-1,3
 254 394 254 394 283.5 394 c 128,-1,4
 313 394 313 394 343 395 c 128,-1,5
 373 396 373 396 402.5 396.5 c 128,-1,6
 432 397 432 397 462 398 c 1,7,-1
 462 328 l 1,8,9
 432 329 432 329 402.5 330 c 128,-1,10
 373 331 373 331 343 331.5 c 128,-1,11
 313 332 313 332 283.5 332.5 c 128,-1,12
 254 333 254 333 224 333.5 c 128,-1,13
 194 334 194 334 163.5 335 c 128,-1,14
 133 336 133 336 103 337 c 1,15,-1
 103 390 l 1,0,1
380 659 m 0,16,17
 332 659 332 659 289.5 637.5 c 128,-1,18
 247 616 247 616 215 576 c 128,-1,19
 183 536 183 536 165 480 c 128,-1,20
 147 424 147 424 147 355 c 256,21,22
 147 286 147 286 164.5 230 c 128,-1,23
 182 174 182 174 214 134 c 128,-1,24
 246 94 246 94 292 72.5 c 128,-1,25
 338 51 338 51 395 51 c 0,26,27
 454 51 454 51 499.5 78 c 128,-1,28
 545 105 545 105 575.5 151.5 c 128,-1,29
 606 198 606 198 620 255 c 1,30,-1
 680 233 l 1,31,32
 663 162 663 162 623.5 107 c 128,-1,33
 584 52 584 52 524.5 21 c 128,-1,34
 465 -10 465 -10 389 -10 c 0,35,36
 314 -10 314 -10 251.5 16.5 c 128,-1,37
 189 43 189 43 143 91.5 c 128,-1,38
 97 140 97 140 72 207 c 128,-1,39
 47 274 47 274 47 355 c 0,40,41
 47 435 47 435 73 502 c 128,-1,42
 99 569 99 569 145 618 c 128,-1,43
 191 667 191 667 251 693.5 c 128,-1,44
 311 720 311 720 379 720 c 0,45,46
 448 720 448 720 497 699.5 c 128,-1,47
 546 679 546 679 578 641.5 c 128,-1,48
 610 604 610 604 626 552 c 1,49,-1
 590 553 l 1,50,-1
 606 710 l 1,51,-1
 665 710 l 1,52,-1
 665 496 l 1,53,-1
 599 496 l 1,54,55
 583 545 583 545 554 581.5 c 128,-1,56
 525 618 525 618 482.5 638.5 c 128,-1,57
 440 659 440 659 380 659 c 0,16,17
EndSplineSet
Substitution2: "'ss01' Style Set 1 lookup 61 subtable" Ieukran.alt1
EndChar

StartChar: Yukrcyr
Encoding: 1031 1031 248
Width: 373
GlyphClass: 2
Flags: W
AnchorPoint: "Anchor-1" 187 0 basechar 0
AnchorPoint: "Anchor-0" 187 881 basechar 0
LayerCount: 2
Fore
SplineSet
159 844 m 256,0,1
 159 816 159 816 141.5 799.5 c 128,-1,2
 124 783 124 783 98 783 c 256,3,4
 72 783 72 783 54.5 799.5 c 128,-1,5
 37 816 37 816 37 844 c 256,6,7
 37 872 37 872 54.5 888 c 128,-1,8
 72 904 72 904 98 904 c 256,9,10
 124 904 124 904 141.5 888 c 128,-1,11
 159 872 159 872 159 844 c 256,0,1
336 844 m 256,12,13
 336 816 336 816 318.5 799.5 c 128,-1,14
 301 783 301 783 275 783 c 256,15,16
 249 783 249 783 231.5 799.5 c 128,-1,17
 214 816 214 816 214 844 c 256,18,19
 214 872 214 872 231.5 888 c 128,-1,20
 249 904 249 904 275 904 c 256,21,22
 301 904 301 904 318.5 888 c 128,-1,23
 336 872 336 872 336 844 c 256,12,13
140 82 m 2,24,-1
 140 628 l 2,25,26
 140 650 140 650 116 657 c 128,-1,27
 92 664 92 664 56 664 c 2,28,-1
 45 664 l 1,29,-1
 45 710 l 1,30,-1
 329 710 l 1,31,-1
 329 664 l 1,32,-1
 318 664 l 2,33,34
 281 664 281 664 257 657 c 128,-1,35
 233 650 233 650 233 628 c 2,36,-1
 233 82 l 2,37,38
 233 60 233 60 257 53 c 128,-1,39
 281 46 281 46 318 46 c 2,40,-1
 329 46 l 1,41,-1
 329 0 l 1,42,-1
 45 0 l 1,43,-1
 45 46 l 1,44,-1
 56 46 l 2,45,46
 92 46 92 46 116 53 c 128,-1,47
 140 60 140 60 140 82 c 2,24,-1
EndSplineSet
EndChar

StartChar: Ljecyr
Encoding: 1033 1033 250
Width: 1019
GlyphClass: 2
Flags: W
AnchorPoint: "Anchor-0" 412 741 basechar 0
LayerCount: 2
Fore
SplineSet
247 710 m 1,0,-1
 570 710 l 1,1,-1
 570 653 l 1,2,-1
 247 653 l 1,3,-1
 247 710 l 1,0,-1
191 267 m 2,4,-1
 220 627 l 2,5,6
 222 649 222 649 197 656.5 c 128,-1,7
 172 664 172 664 135 664 c 2,8,-1
 124 664 l 1,9,-1
 124 710 l 1,10,-1
 299 710 l 1,11,-1
 263 266 l 2,12,13
 255 167 255 167 232.5 105 c 128,-1,14
 210 43 210 43 172 14 c 128,-1,15
 134 -15 134 -15 77 -15 c 0,16,17
 52 -15 52 -15 35 -10 c 128,-1,18
 18 -5 18 -5 8 0 c 1,19,-1
 8 86 l 1,20,21
 14 83 14 83 31.5 77 c 128,-1,22
 49 71 49 71 75 71 c 0,23,24
 112 71 112 71 135 91 c 128,-1,25
 158 111 158 111 171.5 154.5 c 128,-1,26
 185 198 185 198 191 267 c 2,4,-1
713 0 m 2,27,-1
 422 0 l 1,28,-1
 422 46 l 1,29,-1
 433 46 l 2,30,31
 458 46 458 46 477 47.5 c 128,-1,32
 496 49 496 49 507 51 c 128,-1,33
 518 53 518 53 518 56 c 2,34,-1
 518 710 l 1,35,-1
 713 710 l 1,36,-1
 713 664 l 1,37,-1
 687 664 l 2,38,39
 660 664 660 664 635 657 c 128,-1,40
 610 650 610 650 610 628 c 2,41,-1
 610 58 l 1,42,-1
 711 58 l 2,43,44
 769 58 769 58 806.5 78 c 128,-1,45
 844 98 844 98 862.5 134.5 c 128,-1,46
 881 171 881 171 881 219 c 256,47,48
 881 267 881 267 863 300.5 c 128,-1,49
 845 334 845 334 808.5 352 c 128,-1,50
 772 370 772 370 716 370 c 2,51,-1
 579 370 l 1,52,-1
 579 429 l 1,53,-1
 718 429 l 2,54,55
 801 429 801 429 860 403 c 128,-1,56
 919 377 919 377 950 330.5 c 128,-1,57
 981 284 981 284 981 220 c 256,58,59
 981 156 981 156 948.5 106.5 c 128,-1,60
 916 57 916 57 856 28.5 c 128,-1,61
 796 0 796 0 713 0 c 2,27,-1
EndSplineSet
EndChar

StartChar: Njecyr
Encoding: 1034 1034 251
Width: 1052
GlyphClass: 2
Flags: W
AnchorPoint: "Anchor-0" 390 741 basechar 0
LayerCount: 2
Fore
SplineSet
201 419 m 1,0,-1
 600 419 l 1,1,-1
 600 362 l 1,2,-1
 201 362 l 1,3,-1
 201 419 l 1,0,-1
45 0 m 1,4,-1
 45 46 l 1,5,-1
 56 46 l 2,6,7
 92 46 92 46 116 53 c 128,-1,8
 140 60 140 60 140 82 c 2,9,-1
 140 628 l 2,10,11
 140 650 140 650 116 657 c 128,-1,12
 92 664 92 664 56 664 c 2,13,-1
 45 664 l 1,14,-1
 45 710 l 1,15,-1
 329 710 l 1,16,-1
 329 664 l 1,17,-1
 320 664 l 2,18,19
 301 664 301 664 281 663 c 128,-1,20
 261 662 261 662 247 660 c 128,-1,21
 233 658 233 658 233 654 c 2,22,-1
 233 56 l 2,23,24
 233 53 233 53 247 50.5 c 128,-1,25
 261 48 261 48 281 47 c 128,-1,26
 301 46 301 46 320 46 c 2,27,-1
 329 46 l 1,28,-1
 329 0 l 1,29,-1
 45 0 l 1,4,-1
454 0 m 1,30,-1
 454 46 l 1,31,-1
 463 46 l 2,32,33
 482 46 482 46 502 47 c 128,-1,34
 522 48 522 48 536 50.5 c 128,-1,35
 550 53 550 53 550 56 c 2,36,-1
 550 654 l 2,37,38
 550 658 550 658 536 660 c 128,-1,39
 522 662 522 662 502 663 c 128,-1,40
 482 664 482 664 463 664 c 2,41,-1
 454 664 l 1,42,-1
 454 710 l 1,43,-1
 739 710 l 1,44,-1
 739 664 l 1,45,-1
 728 664 l 2,46,47
 704 664 704 664 684.5 661 c 128,-1,48
 665 658 665 658 654 650.5 c 128,-1,49
 643 643 643 643 643 628 c 2,50,-1
 643 57 l 1,51,-1
 744 57 l 2,52,53
 802 57 802 57 839.5 76.5 c 128,-1,54
 877 96 877 96 895.5 131.5 c 128,-1,55
 914 167 914 167 914 214 c 0,56,57
 914 260 914 260 896 293 c 128,-1,58
 878 326 878 326 841.5 344 c 128,-1,59
 805 362 805 362 749 362 c 2,60,-1
 621 362 l 1,61,-1
 621 419 l 1,62,-1
 751 419 l 2,63,64
 834 419 834 419 893 394 c 128,-1,65
 952 369 952 369 983 323 c 128,-1,66
 1014 277 1014 277 1014 215 c 256,67,68
 1014 153 1014 153 981.5 104 c 128,-1,69
 949 55 949 55 889 27.5 c 128,-1,70
 829 0 829 0 746 0 c 2,71,-1
 454 0 l 1,30,-1
EndSplineSet
EndChar

StartChar: Tshecyr
Encoding: 1035 1035 252
Width: 879
GlyphClass: 2
Flags: W
AnchorPoint: "Anchor-0" 319 741 basechar 0
LayerCount: 2
Fore
SplineSet
526 410 m 0,0,1
 609 410 609 410 657.5 387.5 c 128,-1,2
 706 365 706 365 727.5 316 c 128,-1,3
 749 267 749 267 749 188 c 2,4,-1
 749 82 l 2,5,6
 749 60 749 60 773 53 c 128,-1,7
 797 46 797 46 834 46 c 2,8,-1
 845 46 l 1,9,-1
 845 0 l 1,10,-1
 656 0 l 1,11,-1
 656 183 l 2,12,13
 656 245 656 245 644 282.5 c 128,-1,14
 632 320 632 320 603.5 336.5 c 128,-1,15
 575 353 575 353 526 353 c 0,16,17
 479 353 479 353 421.5 342.5 c 128,-1,18
 364 332 364 332 314 300 c 1,19,-1
 314 357 l 1,20,21
 363 387 363 387 421.5 398.5 c 128,-1,22
 480 410 480 410 526 410 c 0,0,1
166 0 m 1,23,-1
 166 46 l 1,24,-1
 182 46 l 2,25,26
 219 46 219 46 243 53 c 128,-1,27
 267 60 267 60 267 82 c 2,28,-1
 267 655 l 1,29,-1
 229 655 l 2,30,31
 186 655 186 655 159 652 c 128,-1,32
 132 649 132 649 119 639 c 128,-1,33
 106 629 106 629 104 611 c 2,34,-1
 95 513 l 1,35,-1
 40 513 l 1,36,-1
 40 710 l 1,37,-1
 628 710 l 1,38,-1
 628 523 l 1,39,-1
 573 523 l 1,40,-1
 564 611 l 2,41,42
 561 629 561 629 548 639 c 128,-1,43
 535 649 535 649 508 652 c 128,-1,44
 481 655 481 655 438 655 c 2,45,-1
 360 655 l 1,46,-1
 360 56 l 2,47,48
 360 53 360 53 374 50.5 c 128,-1,49
 388 48 388 48 408 47 c 128,-1,50
 428 46 428 46 447 46 c 2,51,-1
 461 46 l 1,52,-1
 461 0 l 1,53,-1
 166 0 l 1,23,-1
EndSplineSet
EndChar

StartChar: Dzhecyr
Encoding: 1039 1039 253
Width: 822
GlyphClass: 2
Flags: W
AnchorPoint: "Anchor-0" 413 741 basechar 0
LayerCount: 2
Fore
SplineSet
45 710 m 1,0,-1
 329 710 l 1,1,-1
 329 664 l 1,2,-1
 320 664 l 2,3,4
 301 664 301 664 281 663 c 128,-1,5
 261 662 261 662 247 660 c 128,-1,6
 233 658 233 658 233 654 c 2,7,-1
 233 0 l 1,8,-1
 45 0 l 1,9,-1
 45 46 l 1,10,-1
 56 46 l 2,11,12
 92 46 92 46 116 53 c 128,-1,13
 140 60 140 60 140 82 c 2,14,-1
 140 628 l 2,15,16
 140 650 140 650 116 657 c 128,-1,17
 92 664 92 664 56 664 c 2,18,-1
 45 664 l 1,19,-1
 45 710 l 1,0,-1
493 710 m 1,20,-1
 777 710 l 1,21,-1
 777 664 l 1,22,-1
 766 664 l 2,23,24
 729 664 729 664 705 657 c 128,-1,25
 681 650 681 650 681 628 c 2,26,-1
 681 82 l 2,27,28
 681 60 681 60 705 53 c 128,-1,29
 729 46 729 46 766 46 c 2,30,-1
 777 46 l 1,31,-1
 777 0 l 1,32,-1
 588 0 l 1,33,-1
 588 654 l 2,34,35
 588 658 588 658 574 660 c 128,-1,36
 560 662 560 662 540.5 663 c 128,-1,37
 521 664 521 664 502 664 c 2,38,-1
 493 664 l 1,39,-1
 493 710 l 1,20,-1
171 0 m 1,40,-1
 171 57 l 1,41,-1
 623 57 l 1,42,-1
 623 0 l 1,43,-1
 543 0 l 2,44,45
 510 0 510 0 489 -3.5 c 128,-1,46
 468 -7 468 -7 458 -16 c 128,-1,47
 448 -25 448 -25 447 -43 c 2,48,-1
 440 -155 l 1,49,-1
 383 -155 l 1,50,-1
 376 -43 l 2,51,52
 374 -25 374 -25 364 -16 c 128,-1,53
 354 -7 354 -7 333 -3.5 c 128,-1,54
 312 0 312 0 279 0 c 2,55,-1
 171 0 l 1,40,-1
EndSplineSet
EndChar

StartChar: Becyr
Encoding: 1041 1041 257
Width: 642
GlyphClass: 2
Flags: W
AnchorPoint: "Anchor-0" 332 741 basechar 0
LayerCount: 2
Fore
SplineSet
45 710 m 1,0,-1
 556 710 l 1,1,-1
 556 518 l 1,2,-1
 501 518 l 1,3,-1
 492 608 l 2,4,5
 490 626 490 626 477 636 c 128,-1,6
 464 646 464 646 437 649 c 128,-1,7
 410 652 410 652 367 652 c 2,8,-1
 232 652 l 1,9,-1
 232 58 l 1,10,-1
 334 58 l 2,11,12
 392 58 392 58 429.5 77.5 c 128,-1,13
 467 97 467 97 485.5 132.5 c 128,-1,14
 504 168 504 168 504 214 c 256,15,16
 504 260 504 260 486 292.5 c 128,-1,17
 468 325 468 325 431.5 342.5 c 128,-1,18
 395 360 395 360 339 360 c 2,19,-1
 202 360 l 1,20,-1
 202 419 l 1,21,-1
 341 419 l 2,22,23
 424 419 424 419 483 394 c 128,-1,24
 542 369 542 369 573 323 c 128,-1,25
 604 277 604 277 604 215 c 0,26,27
 604 152 604 152 571.5 103.5 c 128,-1,28
 539 55 539 55 479 27.5 c 128,-1,29
 419 0 419 0 336 0 c 2,30,-1
 45 0 l 1,31,-1
 45 46 l 1,32,-1
 56 46 l 2,33,34
 92 46 92 46 116 53 c 128,-1,35
 140 60 140 60 140 82 c 2,36,-1
 140 626 l 2,37,38
 140 649 140 649 116 656.5 c 128,-1,39
 92 664 92 664 56 664 c 2,40,-1
 45 664 l 1,41,-1
 45 710 l 1,0,-1
EndSplineSet
EndChar

StartChar: Gecyr
Encoding: 1043 1043 259
Width: 589
GlyphClass: 2
Flags: W
AnchorPoint: "Anchor-0" 302 741 basechar 0
LayerCount: 2
Fore
SplineSet
232 652 m 1,0,-1
 232 82 l 2,1,2
 232 66 232 66 247 58 c 128,-1,3
 262 50 262 50 284 48 c 128,-1,4
 306 46 306 46 327 46 c 2,5,-1
 344 46 l 1,6,-1
 344 0 l 1,7,-1
 45 0 l 1,8,-1
 45 46 l 1,9,-1
 56 46 l 2,10,11
 92 46 92 46 116 53 c 128,-1,12
 140 60 140 60 140 82 c 2,13,-1
 140 628 l 2,14,15
 140 650 140 650 116 657 c 128,-1,16
 92 664 92 664 56 664 c 2,17,-1
 45 664 l 1,18,-1
 45 710 l 1,19,-1
 547 710 l 1,20,-1
 547 513 l 1,21,-1
 491 513 l 1,22,-1
 482 608 l 2,23,24
 481 626 481 626 467.5 636 c 128,-1,25
 454 646 454 646 427 649 c 128,-1,26
 400 652 400 652 357 652 c 2,27,-1
 232 652 l 1,0,-1
EndSplineSet
EndChar

StartChar: Decyr
Encoding: 1044 1044 261
Width: 797
GlyphClass: 2
Flags: W
AnchorPoint: "Anchor-0" 437 741 basechar 0
LayerCount: 2
Fore
SplineSet
246 710 m 1,0,-1
 615 710 l 1,1,-1
 615 653 l 1,2,-1
 246 653 l 1,3,-1
 246 710 l 1,0,-1
656 0 m 1,4,-1
 563 0 l 1,5,-1
 563 710 l 1,6,-1
 752 710 l 1,7,-1
 752 664 l 1,8,-1
 741 664 l 2,9,10
 704 664 704 664 680 657 c 128,-1,11
 656 650 656 650 656 628 c 2,12,-1
 656 0 l 1,4,-1
692 -50 m 2,13,14
 690 -28 690 -28 680 -17.5 c 128,-1,15
 670 -7 670 -7 649.5 -3.5 c 128,-1,16
 629 0 629 0 595 0 c 2,17,-1
 186 0 l 2,18,19
 152 0 152 0 131 -3.5 c 128,-1,20
 110 -7 110 -7 100.5 -18 c 128,-1,21
 91 -29 91 -29 88 -52 c 2,22,-1
 77 -155 l 1,23,-1
 19 -155 l 1,24,-1
 19 57 l 1,25,-1
 762 57 l 1,26,-1
 762 -155 l 1,27,-1
 704 -155 l 1,28,-1
 692 -50 l 2,13,14
162 26 m 1,29,-1
 76 26 l 1,30,31
 97 52 97 52 113.5 82 c 128,-1,32
 130 112 130 112 142.5 150.5 c 128,-1,33
 155 189 155 189 163.5 241.5 c 128,-1,34
 172 294 172 294 178 366 c 2,35,-1
 200 627 l 2,36,37
 202 649 202 649 177 656.5 c 128,-1,38
 152 664 152 664 115 664 c 2,39,-1
 104 664 l 1,40,-1
 104 710 l 1,41,-1
 277 710 l 1,42,-1
 249 363 l 2,43,44
 242 271 242 271 230.5 207.5 c 128,-1,45
 219 144 219 144 202 101 c 128,-1,46
 185 58 185 58 162 26 c 1,29,-1
EndSplineSet
Substitution2: "'locl' Localized Forms in Cyrillic lookup 12 subtable" De.bgr
EndChar

StartChar: Zhecyr
Encoding: 1046 1046 266
Width: 1045
GlyphClass: 2
Flags: W
AnchorPoint: "Anchor-1" 519 0 basechar 0
AnchorPoint: "Anchor-0" 519 741 basechar 0
LayerCount: 2
Fore
SplineSet
740 0 m 1,0,-1
 740 46 l 1,1,-1
 750 46 l 2,2,3
 768 46 768 46 787 47 c 128,-1,4
 806 48 806 48 819.5 50.5 c 128,-1,5
 833 53 833 53 833 56 c 2,6,-1
 598 347 l 1,7,-1
 598 364 l 1,8,-1
 845 653 l 2,9,10
 844 657 844 657 832 659 c 128,-1,11
 820 661 820 661 802 662.5 c 128,-1,12
 784 664 784 664 765 664 c 2,13,-1
 756 664 l 1,14,-1
 756 710 l 1,15,-1
 1001 710 l 1,16,-1
 1001 664 l 1,17,-1
 985 664 l 2,18,19
 967 664 967 664 953 661.5 c 128,-1,20
 939 659 939 659 927.5 652.5 c 128,-1,21
 916 646 916 646 906 634 c 2,22,-1
 668 357 l 1,23,-1
 668 402 l 1,24,-1
 930 80 l 2,25,26
 942 65 942 65 954 57.5 c 128,-1,27
 966 50 966 50 981.5 48 c 128,-1,28
 997 46 997 46 1019 46 c 2,29,-1
 1030 46 l 1,30,-1
 1030 0 l 1,31,-1
 740 0 l 1,0,-1
299 0 m 1,32,-1
 15 0 l 1,33,-1
 15 46 l 1,34,-1
 26 46 l 2,35,36
 49 46 49 46 64 48 c 128,-1,37
 79 50 79 50 91 57.5 c 128,-1,38
 103 65 103 65 115 80 c 2,39,-1
 377 402 l 1,40,-1
 368 357 l 1,41,-1
 130 634 l 2,42,43
 120 646 120 646 108.5 652 c 128,-1,44
 97 658 97 658 83 661 c 128,-1,45
 69 664 69 664 51 664 c 2,46,-1
 35 664 l 1,47,-1
 35 710 l 1,48,-1
 284 710 l 1,49,-1
 284 664 l 1,50,-1
 275 664 l 2,51,52
 257 664 257 664 238.5 662.5 c 128,-1,53
 220 661 220 661 208 659 c 128,-1,54
 196 657 196 657 195 653 c 2,55,-1
 441 364 l 1,56,-1
 441 347 l 1,57,-1
 207 56 l 2,58,59
 207 53 207 53 220.5 50.5 c 128,-1,60
 234 48 234 48 253 47 c 128,-1,61
 272 46 272 46 290 46 c 2,62,-1
 299 46 l 1,63,-1
 299 0 l 1,32,-1
378 0 m 1,64,-1
 378 46 l 1,65,-1
 387 46 l 2,66,67
 401 46 401 46 416.5 46.5 c 128,-1,68
 432 47 432 47 445 48.5 c 128,-1,69
 458 50 458 50 465.5 51.5 c 128,-1,70
 473 53 473 53 473 56 c 2,71,-1
 473 654 l 2,72,73
 473 657 473 657 465.5 658.5 c 128,-1,74
 458 660 458 660 445 661.5 c 128,-1,75
 432 663 432 663 416.5 663.5 c 128,-1,76
 401 664 401 664 387 664 c 2,77,-1
 378 664 l 1,78,-1
 378 710 l 1,79,-1
 662 710 l 1,80,-1
 662 664 l 1,81,-1
 653 664 l 2,82,83
 639 664 639 664 623.5 663.5 c 128,-1,84
 608 663 608 663 595 661.5 c 128,-1,85
 582 660 582 660 574 658.5 c 128,-1,86
 566 657 566 657 566 654 c 2,87,-1
 566 56 l 2,88,89
 566 53 566 53 574 51.5 c 128,-1,90
 582 50 582 50 595 48.5 c 128,-1,91
 608 47 608 47 623.5 46.5 c 128,-1,92
 639 46 639 46 653 46 c 2,93,-1
 662 46 l 1,94,-1
 662 0 l 1,95,-1
 378 0 l 1,64,-1
EndSplineSet
EndChar

StartChar: Zecyr
Encoding: 1047 1047 269
Width: 668
GlyphClass: 2
Flags: W
AnchorPoint: "Anchor-1" 364 0 basechar 0
AnchorPoint: "Anchor-0" 364 741 basechar 0
LayerCount: 2
Fore
SplineSet
357 -10 m 0,0,1
 297 -10 297 -10 250.5 11 c 128,-1,2
 204 32 204 32 172 69.5 c 128,-1,3
 140 107 140 107 123 158 c 1,4,-1
 157 157 l 1,5,-1
 141 0 l 1,6,-1
 81 0 l 1,7,-1
 81 214 l 1,8,-1
 147 214 l 1,9,10
 165 165 165 165 193 128.5 c 128,-1,11
 221 92 221 92 261.5 71.5 c 128,-1,12
 302 51 302 51 356 51 c 0,13,14
 413 51 413 51 449 69 c 128,-1,15
 485 87 485 87 502 120.5 c 128,-1,16
 519 154 519 154 519 200 c 0,17,18
 519 242 519 242 503.5 272.5 c 128,-1,19
 488 303 488 303 452.5 318.5 c 128,-1,20
 417 334 417 334 353 331 c 0,21,22
 340 331 340 331 326.5 330.5 c 128,-1,23
 313 330 313 330 299.5 329 c 128,-1,24
 286 328 286 328 273 328 c 1,25,-1
 273 399 l 1,26,27
 287 399 287 399 300.5 398.5 c 128,-1,28
 314 398 314 398 327.5 397 c 128,-1,29
 341 396 341 396 354 396 c 0,30,31
 408 393 408 393 440 410.5 c 128,-1,32
 472 428 472 428 486 459.5 c 128,-1,33
 500 491 500 491 500 529 c 0,34,35
 500 569 500 569 487 598 c 128,-1,36
 474 627 474 627 444 643 c 128,-1,37
 414 659 414 659 364 659 c 0,38,39
 306 659 306 659 266 638.5 c 128,-1,40
 226 618 226 618 200.5 582 c 128,-1,41
 175 546 175 546 157 496 c 1,42,-1
 91 496 l 1,43,-1
 91 710 l 1,44,-1
 151 710 l 1,45,-1
 167 553 l 1,46,-1
 133 552 l 1,47,48
 145 590 145 590 164.5 620.5 c 128,-1,49
 184 651 184 651 212.5 673.5 c 128,-1,50
 241 696 241 696 279 708 c 128,-1,51
 317 720 317 720 367 720 c 0,52,53
 444 720 444 720 494 695.5 c 128,-1,54
 544 671 544 671 569 628 c 128,-1,55
 594 585 594 585 594 530 c 0,56,57
 594 480 594 480 565 440.5 c 128,-1,58
 536 401 536 401 479 379 c 128,-1,59
 422 357 422 357 337 357 c 1,60,-1
 417 394 l 1,61,-1
 417 347 l 1,62,-1
 346 383 l 1,63,64
 438 383 438 383 497.5 361 c 128,-1,65
 557 339 557 339 586 297.5 c 128,-1,66
 615 256 615 256 615 199 c 0,67,68
 615 153 615 153 598 114.5 c 128,-1,69
 581 76 581 76 548 48 c 128,-1,70
 515 20 515 20 467 5 c 128,-1,71
 419 -10 419 -10 357 -10 c 0,0,1
EndSplineSet
EndChar

StartChar: Icyr
Encoding: 1048 1048 270
Width: 852
GlyphClass: 2
Flags: W
AnchorPoint: "Anchor-0" 428 741 basechar 0
LayerCount: 2
Fore
SplineSet
186 134 m 1,0,-1
 634 629 l 1,1,-1
 668 587 l 1,2,-1
 220 93 l 1,3,-1
 186 134 l 1,0,-1
45 0 m 1,4,-1
 45 46 l 1,5,-1
 56 46 l 2,6,7
 92 46 92 46 116 53 c 128,-1,8
 140 60 140 60 140 82 c 2,9,-1
 140 628 l 2,10,11
 140 650 140 650 116 657 c 128,-1,12
 92 664 92 664 56 664 c 2,13,-1
 45 664 l 1,14,-1
 45 710 l 1,15,-1
 329 710 l 1,16,-1
 329 664 l 1,17,-1
 320 664 l 2,18,19
 301 664 301 664 281 663 c 128,-1,20
 261 662 261 662 247 660 c 128,-1,21
 233 658 233 658 233 654 c 2,22,-1
 233 56 l 2,23,24
 233 53 233 53 247 50.5 c 128,-1,25
 261 48 261 48 281 47 c 128,-1,26
 301 46 301 46 320 46 c 2,27,-1
 329 46 l 1,28,-1
 329 0 l 1,29,-1
 45 0 l 1,4,-1
523 0 m 1,30,-1
 523 46 l 1,31,-1
 532 46 l 2,32,33
 551 46 551 46 570.5 47 c 128,-1,34
 590 48 590 48 604 50.5 c 128,-1,35
 618 53 618 53 618 56 c 2,36,-1
 618 654 l 2,37,38
 618 658 618 658 604 660 c 128,-1,39
 590 662 590 662 570.5 663 c 128,-1,40
 551 664 551 664 532 664 c 2,41,-1
 523 664 l 1,42,-1
 523 710 l 1,43,-1
 807 710 l 1,44,-1
 807 664 l 1,45,-1
 796 664 l 2,46,47
 759 664 759 664 735 657 c 128,-1,48
 711 650 711 650 711 628 c 2,49,-1
 711 82 l 2,50,51
 711 60 711 60 735 53 c 128,-1,52
 759 46 759 46 796 46 c 2,53,-1
 807 46 l 1,54,-1
 807 0 l 1,55,-1
 523 0 l 1,30,-1
EndSplineSet
EndChar

StartChar: Elcyr
Encoding: 1051 1051 276
Width: 792
GlyphClass: 2
Flags: W
AnchorPoint: "Anchor-0" 438 741 basechar 0
LayerCount: 2
Fore
SplineSet
247 710 m 1,0,-1
 610 710 l 1,1,-1
 610 653 l 1,2,-1
 247 653 l 1,3,-1
 247 710 l 1,0,-1
463 0 m 1,4,-1
 463 46 l 1,5,-1
 472 46 l 2,6,7
 491 46 491 46 511 47 c 128,-1,8
 531 48 531 48 544.5 50.5 c 128,-1,9
 558 53 558 53 558 56 c 2,10,-1
 558 710 l 1,11,-1
 747 710 l 1,12,-1
 747 664 l 1,13,-1
 736 664 l 2,14,15
 699 664 699 664 675 657 c 128,-1,16
 651 650 651 650 651 628 c 2,17,-1
 651 82 l 2,18,19
 651 60 651 60 675 53 c 128,-1,20
 699 46 699 46 736 46 c 2,21,-1
 747 46 l 1,22,-1
 747 0 l 1,23,-1
 463 0 l 1,4,-1
191 267 m 2,24,-1
 220 627 l 2,25,26
 222 649 222 649 197 656.5 c 128,-1,27
 172 664 172 664 135 664 c 2,28,-1
 124 664 l 1,29,-1
 124 710 l 1,30,-1
 299 710 l 1,31,-1
 263 266 l 2,32,33
 255 167 255 167 232.5 105 c 128,-1,34
 210 43 210 43 172 14 c 128,-1,35
 134 -15 134 -15 77 -15 c 0,36,37
 52 -15 52 -15 35 -10 c 128,-1,38
 18 -5 18 -5 8 0 c 1,39,-1
 8 86 l 1,40,41
 14 83 14 83 31.5 77 c 128,-1,42
 49 71 49 71 75 71 c 0,43,44
 112 71 112 71 135.5 91 c 128,-1,45
 159 111 159 111 172 154.5 c 128,-1,46
 185 198 185 198 191 267 c 2,24,-1
EndSplineSet
Substitution2: "'locl' Localized Forms in Cyrillic lookup 12 subtable" El.bgr
EndChar

StartChar: Pecyr
Encoding: 1055 1055 281
Width: 822
GlyphClass: 2
Flags: W
AnchorPoint: "Anchor-0" 413 741 basechar 0
LayerCount: 2
Fore
SplineSet
188 710 m 1,0,-1
 640 710 l 1,1,-1
 640 653 l 1,2,-1
 188 653 l 1,3,-1
 188 710 l 1,0,-1
45 0 m 1,4,-1
 45 46 l 1,5,-1
 56 46 l 2,6,7
 92 46 92 46 116 53 c 128,-1,8
 140 60 140 60 140 82 c 2,9,-1
 140 628 l 2,10,11
 140 650 140 650 116 657 c 128,-1,12
 92 664 92 664 56 664 c 2,13,-1
 45 664 l 1,14,-1
 45 710 l 1,15,-1
 233 710 l 1,16,-1
 233 56 l 2,17,18
 233 53 233 53 247 50.5 c 128,-1,19
 261 48 261 48 281 47 c 128,-1,20
 301 46 301 46 320 46 c 2,21,-1
 329 46 l 1,22,-1
 329 0 l 1,23,-1
 45 0 l 1,4,-1
493 0 m 1,24,-1
 493 46 l 1,25,-1
 502 46 l 2,26,27
 521 46 521 46 540.5 47 c 128,-1,28
 560 48 560 48 574 50.5 c 128,-1,29
 588 53 588 53 588 56 c 2,30,-1
 588 710 l 1,31,-1
 777 710 l 1,32,-1
 777 664 l 1,33,-1
 766 664 l 2,34,35
 729 664 729 664 705 657 c 128,-1,36
 681 650 681 650 681 628 c 2,37,-1
 681 82 l 2,38,39
 681 60 681 60 705 53 c 128,-1,40
 729 46 729 46 766 46 c 2,41,-1
 777 46 l 1,42,-1
 777 0 l 1,43,-1
 493 0 l 1,24,-1
EndSplineSet
EndChar

StartChar: Ucyr
Encoding: 1059 1059 285
Width: 682
GlyphClass: 2
Flags: W
AnchorPoint: "Anchor-1" 231 0 basechar 0
AnchorPoint: "Anchor-0" 350 741 basechar 0
LayerCount: 2
Fore
SplineSet
393 205 m 2,0,1
 369 152 369 152 347.5 110.5 c 128,-1,2
 326 69 326 69 304 40.5 c 128,-1,3
 282 12 282 12 256 -3 c 128,-1,4
 230 -18 230 -18 197 -18 c 0,5,6
 172 -18 172 -18 155.5 -12.5 c 128,-1,7
 139 -7 139 -7 128 0 c 1,8,-1
 128 84 l 1,9,10
 134 80 134 80 151 73 c 128,-1,11
 168 66 168 66 192 66 c 0,12,13
 228 66 228 66 252.5 82 c 128,-1,14
 277 98 277 98 297.5 132.5 c 128,-1,15
 318 167 318 167 342 223 c 2,16,-1
 526 645 l 2,17,18
 526 651 526 651 513.5 655 c 128,-1,19
 501 659 501 659 482 661.5 c 128,-1,20
 463 664 463 664 444 664 c 2,21,-1
 429 664 l 1,22,-1
 429 710 l 1,23,-1
 670 710 l 1,24,-1
 670 664 l 1,25,-1
 665 664 l 2,26,27
 648 664 648 664 631.5 661 c 128,-1,28
 615 658 615 658 602 649.5 c 128,-1,29
 589 641 589 641 580 622 c 2,30,-1
 393 205 l 2,0,1
375 220 m 1,31,-1
 327 135 l 1,32,-1
 93 637 l 2,33,34
 87 650 87 650 75.5 656 c 128,-1,35
 64 662 64 662 49 663 c 128,-1,36
 34 664 34 664 17 664 c 2,37,-1
 12 664 l 1,38,-1
 12 710 l 1,39,-1
 275 710 l 1,40,-1
 275 664 l 1,41,-1
 258 664 l 2,42,43
 240 664 240 664 221 663 c 128,-1,44
 202 662 202 662 189 659.5 c 128,-1,45
 176 657 176 657 176 653 c 2,46,-1
 375 220 l 1,31,-1
EndSplineSet
EndChar

StartChar: Efcyr
Encoding: 1060 1060 290
Width: 875
GlyphClass: 2
Flags: W
AnchorPoint: "Anchor-1" 439 0 basechar 0
AnchorPoint: "Anchor-0" 439 741 basechar 0
LayerCount: 2
Fore
SplineSet
391 62 m 2,0,-1
 391 648 l 2,1,2
 391 670 391 670 367 677 c 128,-1,3
 343 684 343 684 306 684 c 2,4,-1
 295 684 l 1,5,-1
 295 730 l 1,6,-1
 579 730 l 1,7,-1
 579 684 l 1,8,-1
 569 684 l 2,9,10
 532 684 532 684 508 677 c 128,-1,11
 484 670 484 670 484 648 c 2,12,-1
 484 62 l 2,13,14
 484 40 484 40 508 33 c 128,-1,15
 532 26 532 26 569 26 c 2,16,-1
 579 26 l 1,17,-1
 579 -20 l 1,18,-1
 295 -20 l 1,19,-1
 295 26 l 1,20,-1
 306 26 l 2,21,22
 343 26 343 26 367 33 c 128,-1,23
 391 40 391 40 391 62 c 2,0,-1
407 620 m 1,24,-1
 407 561 l 1,25,26
 313 561 313 561 253 537.5 c 128,-1,27
 193 514 193 514 165 469 c 128,-1,28
 137 424 137 424 137 360 c 256,29,30
 137 296 137 296 165 251 c 128,-1,31
 193 206 193 206 253 182.5 c 128,-1,32
 313 159 313 159 407 159 c 1,33,-1
 407 100 l 1,34,35
 287 100 287 100 204.5 131.5 c 128,-1,36
 122 163 122 163 79.5 221.5 c 128,-1,37
 37 280 37 280 37 360 c 256,38,39
 37 440 37 440 79.5 498.5 c 128,-1,40
 122 557 122 557 204.5 588.5 c 128,-1,41
 287 620 287 620 407 620 c 1,24,-1
468 100 m 1,42,-1
 468 159 l 1,43,44
 563 159 563 159 622.5 182.5 c 128,-1,45
 682 206 682 206 710 251 c 128,-1,46
 738 296 738 296 738 360 c 256,47,48
 738 424 738 424 710 469 c 128,-1,49
 682 514 682 514 622.5 537.5 c 128,-1,50
 563 561 563 561 468 561 c 1,51,-1
 468 620 l 1,52,53
 588 620 588 620 670.5 588.5 c 128,-1,54
 753 557 753 557 795.5 498.5 c 128,-1,55
 838 440 838 440 838 360 c 256,56,57
 838 280 838 280 795.5 221.5 c 128,-1,58
 753 163 753 163 670.5 131.5 c 128,-1,59
 588 100 588 100 468 100 c 1,42,-1
EndSplineSet
EndChar

StartChar: Tsecyr
Encoding: 1062 1062 292
Width: 822
GlyphClass: 2
Flags: W
AnchorPoint: "Anchor-0" 413 741 basechar 0
LayerCount: 2
Fore
SplineSet
188 0 m 1,0,-1
 188 57 l 1,1,-1
 640 57 l 1,2,-1
 640 0 l 1,3,-1
 188 0 l 1,0,-1
45 710 m 1,4,-1
 329 710 l 1,5,-1
 329 664 l 1,6,-1
 320 664 l 2,7,8
 301 664 301 664 281 663 c 128,-1,9
 261 662 261 662 247 660 c 128,-1,10
 233 658 233 658 233 654 c 2,11,-1
 233 0 l 1,12,-1
 45 0 l 1,13,-1
 45 46 l 1,14,-1
 56 46 l 2,15,16
 92 46 92 46 116 53 c 128,-1,17
 140 60 140 60 140 82 c 2,18,-1
 140 628 l 2,19,20
 140 650 140 650 116 657 c 128,-1,21
 92 664 92 664 56 664 c 2,22,-1
 45 664 l 1,23,-1
 45 710 l 1,4,-1
493 710 m 1,24,-1
 777 710 l 1,25,-1
 777 664 l 1,26,-1
 766 664 l 2,27,28
 729 664 729 664 705 657 c 128,-1,29
 681 650 681 650 681 628 c 2,30,-1
 681 0 l 1,31,-1
 588 0 l 1,32,-1
 588 654 l 2,33,34
 588 658 588 658 574 660 c 128,-1,35
 560 662 560 662 540.5 663 c 128,-1,36
 521 664 521 664 502 664 c 2,37,-1
 493 664 l 1,38,-1
 493 710 l 1,24,-1
588 0 m 1,39,-1
 588 57 l 1,40,-1
 787 57 l 1,41,-1
 787 -155 l 1,42,-1
 730 -155 l 1,43,-1
 717 -49 l 2,44,45
 715 -29 715 -29 705 -18 c 128,-1,46
 695 -7 695 -7 675 -3.5 c 128,-1,47
 655 0 655 0 622 0 c 2,48,-1
 588 0 l 1,39,-1
EndSplineSet
EndChar

StartChar: Checyr
Encoding: 1063 1063 293
Width: 781
GlyphClass: 2
Flags: W
AnchorPoint: "Anchor-0" 386 741 basechar 0
LayerCount: 2
Fore
SplineSet
452 0 m 1,0,-1
 452 46 l 1,1,-1
 461 46 l 2,2,3
 480 46 480 46 500 47 c 128,-1,4
 520 48 520 48 534 50.5 c 128,-1,5
 548 53 548 53 548 56 c 2,6,-1
 548 654 l 2,7,8
 548 658 548 658 534 660 c 128,-1,9
 520 662 520 662 500 663 c 128,-1,10
 480 664 480 664 461 664 c 2,11,-1
 452 664 l 1,12,-1
 452 710 l 1,13,-1
 737 710 l 1,14,-1
 737 664 l 1,15,-1
 726 664 l 2,16,17
 689 664 689 664 665 657 c 128,-1,18
 641 650 641 650 641 628 c 2,19,-1
 641 82 l 2,20,21
 641 60 641 60 665 53 c 128,-1,22
 689 46 689 46 726 46 c 2,23,-1
 737 46 l 1,24,-1
 737 0 l 1,25,-1
 452 0 l 1,0,-1
363 280 m 0,26,27
 277 280 277 280 226 302.5 c 128,-1,28
 175 325 175 325 152.5 374.5 c 128,-1,29
 130 424 130 424 130 502 c 2,30,-1
 130 628 l 2,31,32
 130 650 130 650 106 657 c 128,-1,33
 82 664 82 664 46 664 c 2,34,-1
 35 664 l 1,35,-1
 35 710 l 1,36,-1
 319 710 l 1,37,-1
 319 664 l 1,38,-1
 310 664 l 2,39,40
 291 664 291 664 271 663 c 128,-1,41
 251 662 251 662 237 660 c 128,-1,42
 223 658 223 658 223 654 c 2,43,-1
 223 507 l 2,44,45
 223 445 223 445 236 407.5 c 128,-1,46
 249 370 249 370 280 353.5 c 128,-1,47
 311 337 311 337 363 337 c 0,48,49
 420 337 420 337 480.5 350 c 128,-1,50
 541 363 541 363 595 397 c 1,51,-1
 595 340 l 1,52,53
 541 309 541 309 480 294.5 c 128,-1,54
 419 280 419 280 363 280 c 0,26,27
EndSplineSet
EndChar

StartChar: Shacyr
Encoding: 1064 1064 294
Width: 1143
GlyphClass: 2
Flags: W
AnchorPoint: "Anchor-0" 571 741 basechar 0
LayerCount: 2
Fore
SplineSet
955 0 m 1,0,-1
 182 0 l 1,1,-1
 182 57 l 1,2,-1
 955 57 l 1,3,-1
 955 0 l 1,0,-1
1098 710 m 1,4,-1
 1098 664 l 1,5,-1
 1087 664 l 2,6,7
 1050 664 1050 664 1026 657 c 128,-1,8
 1002 650 1002 650 1002 628 c 2,9,-1
 1002 82 l 2,10,11
 1002 60 1002 60 1026 53 c 128,-1,12
 1050 46 1050 46 1087 46 c 2,13,-1
 1098 46 l 1,14,-1
 1098 0 l 1,15,-1
 909 0 l 1,16,-1
 909 654 l 2,17,18
 909 658 909 658 895.5 660 c 128,-1,19
 882 662 882 662 862 663 c 128,-1,20
 842 664 842 664 823 664 c 2,21,-1
 814 664 l 1,22,-1
 814 710 l 1,23,-1
 1098 710 l 1,4,-1
329 710 m 1,24,-1
 329 664 l 1,25,-1
 320 664 l 2,26,27
 301 664 301 664 281 663 c 128,-1,28
 261 662 261 662 247 660 c 128,-1,29
 233 658 233 658 233 654 c 2,30,-1
 233 0 l 1,31,-1
 45 0 l 1,32,-1
 45 46 l 1,33,-1
 56 46 l 2,34,35
 92 46 92 46 116 53 c 128,-1,36
 140 60 140 60 140 82 c 2,37,-1
 140 628 l 2,38,39
 140 650 140 650 116 657 c 128,-1,40
 92 664 92 664 56 664 c 2,41,-1
 45 664 l 1,42,-1
 45 710 l 1,43,-1
 329 710 l 1,24,-1
429 710 m 1,44,-1
 714 710 l 1,45,-1
 714 664 l 1,46,-1
 705 664 l 2,47,48
 686 664 686 664 666 663 c 128,-1,49
 646 662 646 662 632 660 c 128,-1,50
 618 658 618 658 618 654 c 2,51,-1
 618 0 l 1,52,-1
 525 0 l 1,53,-1
 525 654 l 2,54,55
 525 658 525 658 511 660 c 128,-1,56
 497 662 497 662 477 663 c 128,-1,57
 457 664 457 664 438 664 c 2,58,-1
 429 664 l 1,59,-1
 429 710 l 1,44,-1
EndSplineSet
EndChar

StartChar: Shchacyr
Encoding: 1065 1065 295
Width: 1143
GlyphClass: 2
Flags: W
AnchorPoint: "Anchor-0" 571 741 basechar 0
LayerCount: 2
Fore
SplineSet
955 0 m 1,0,-1
 182 0 l 1,1,-1
 182 57 l 1,2,-1
 955 57 l 1,3,-1
 955 0 l 1,0,-1
329 710 m 1,4,-1
 329 664 l 1,5,-1
 320 664 l 2,6,7
 301 664 301 664 281 663 c 128,-1,8
 261 662 261 662 247 660 c 128,-1,9
 233 658 233 658 233 654 c 2,10,-1
 233 0 l 1,11,-1
 45 0 l 1,12,-1
 45 46 l 1,13,-1
 56 46 l 2,14,15
 92 46 92 46 116 53 c 128,-1,16
 140 60 140 60 140 82 c 2,17,-1
 140 628 l 2,18,19
 140 650 140 650 116 657 c 128,-1,20
 92 664 92 664 56 664 c 2,21,-1
 45 664 l 1,22,-1
 45 710 l 1,23,-1
 329 710 l 1,4,-1
814 710 m 1,24,-1
 1098 710 l 1,25,-1
 1098 664 l 1,26,-1
 1087 664 l 2,27,28
 1050 664 1050 664 1026 657 c 128,-1,29
 1002 650 1002 650 1002 628 c 2,30,-1
 1002 0 l 1,31,-1
 909 0 l 1,32,-1
 909 654 l 2,33,34
 909 658 909 658 895.5 660 c 128,-1,35
 882 662 882 662 862 663 c 128,-1,36
 842 664 842 664 823 664 c 2,37,-1
 814 664 l 1,38,-1
 814 710 l 1,24,-1
941 0 m 2,39,-1
 909 0 l 1,40,-1
 909 57 l 1,41,-1
 1108 57 l 1,42,-1
 1108 -155 l 1,43,-1
 1050 -155 l 1,44,-1
 1039 -50 l 2,45,46
 1036 -28 1036 -28 1026 -17.5 c 128,-1,47
 1016 -7 1016 -7 995.5 -3.5 c 128,-1,48
 975 0 975 0 941 0 c 2,39,-1
429 710 m 1,49,-1
 714 710 l 1,50,-1
 714 664 l 1,51,-1
 705 664 l 2,52,53
 686 664 686 664 666 663 c 128,-1,54
 646 662 646 662 632 660 c 128,-1,55
 618 658 618 658 618 654 c 2,56,-1
 618 0 l 1,57,-1
 525 0 l 1,58,-1
 525 654 l 2,59,60
 525 658 525 658 511 660 c 128,-1,61
 497 662 497 662 477 663 c 128,-1,62
 457 664 457 664 438 664 c 2,63,-1
 429 664 l 1,64,-1
 429 710 l 1,49,-1
EndSplineSet
EndChar

StartChar: Hardcyr
Encoding: 1066 1066 296
Width: 749
GlyphClass: 2
Flags: W
AnchorPoint: "Anchor-0" 265 741 basechar 0
LayerCount: 2
Fore
SplineSet
443 0 m 2,0,-1
 152 0 l 1,1,-1
 152 46 l 1,2,-1
 163 46 l 2,3,4
 199 46 199 46 223 53 c 128,-1,5
 247 60 247 60 247 82 c 2,6,-1
 247 655 l 1,7,-1
 229 655 l 2,8,9
 186 655 186 655 159 652 c 128,-1,10
 132 649 132 649 119 639 c 128,-1,11
 106 629 106 629 104 611 c 2,12,-1
 95 513 l 1,13,-1
 40 513 l 1,14,-1
 40 710 l 1,15,-1
 443 710 l 1,16,-1
 443 664 l 1,17,-1
 417 664 l 2,18,19
 400 664 400 664 382 663 c 128,-1,20
 364 662 364 662 352 660 c 128,-1,21
 340 658 340 658 340 654 c 2,22,-1
 340 58 l 1,23,-1
 441 58 l 2,24,25
 499 58 499 58 536.5 78 c 128,-1,26
 574 98 574 98 592.5 134.5 c 128,-1,27
 611 171 611 171 611 219 c 256,28,29
 611 267 611 267 593 300.5 c 128,-1,30
 575 334 575 334 538.5 352 c 128,-1,31
 502 370 502 370 446 370 c 2,32,-1
 309 370 l 1,33,-1
 309 429 l 1,34,-1
 448 429 l 2,35,36
 531 429 531 429 590 403 c 128,-1,37
 649 377 649 377 680 330.5 c 128,-1,38
 711 284 711 284 711 220 c 256,39,40
 711 156 711 156 678.5 106.5 c 128,-1,41
 646 57 646 57 586 28.5 c 128,-1,42
 526 0 526 0 443 0 c 2,0,-1
EndSplineSet
EndChar

StartChar: Ylongcyr
Encoding: 1067 1067 297
Width: 963
GlyphClass: 2
Flags: W
AnchorPoint: "Anchor-1" 480 0 basechar 0
AnchorPoint: "Anchor-0" 480 741 basechar 0
LayerCount: 2
Fore
SplineSet
730 56 m 2,0,-1
 730 654 l 2,1,2
 730 658 730 658 716 660 c 128,-1,3
 702 662 702 662 682 663 c 128,-1,4
 662 664 662 664 643 664 c 2,5,-1
 634 664 l 1,6,-1
 634 710 l 1,7,-1
 918 710 l 1,8,-1
 918 664 l 1,9,-1
 908 664 l 2,10,11
 871 664 871 664 847 657 c 128,-1,12
 823 650 823 650 823 628 c 2,13,-1
 823 82 l 2,14,15
 823 60 823 60 847 53 c 128,-1,16
 871 46 871 46 908 46 c 2,17,-1
 918 46 l 1,18,-1
 918 0 l 1,19,-1
 634 0 l 1,20,-1
 634 46 l 1,21,-1
 643 46 l 2,22,23
 662 46 662 46 682 47 c 128,-1,24
 702 48 702 48 716 50.5 c 128,-1,25
 730 53 730 53 730 56 c 2,0,-1
336 0 m 2,26,-1
 45 0 l 1,27,-1
 45 46 l 1,28,-1
 56 46 l 2,29,30
 92 46 92 46 116 53 c 128,-1,31
 140 60 140 60 140 82 c 2,32,-1
 140 628 l 2,33,34
 140 650 140 650 116 657 c 128,-1,35
 92 664 92 664 56 664 c 2,36,-1
 45 664 l 1,37,-1
 45 710 l 1,38,-1
 336 710 l 1,39,-1
 336 664 l 1,40,-1
 309 664 l 2,41,42
 292 664 292 664 274 663 c 128,-1,43
 256 662 256 662 244 660 c 128,-1,44
 232 658 232 658 232 654 c 2,45,-1
 232 58 l 1,46,-1
 334 58 l 2,47,48
 392 58 392 58 429.5 78 c 128,-1,49
 467 98 467 98 485.5 134.5 c 128,-1,50
 504 171 504 171 504 219 c 256,51,52
 504 267 504 267 486 300.5 c 128,-1,53
 468 334 468 334 431.5 352 c 128,-1,54
 395 370 395 370 339 370 c 2,55,-1
 202 370 l 1,56,-1
 202 429 l 1,57,-1
 341 429 l 2,58,59
 424 429 424 429 483 403 c 128,-1,60
 542 377 542 377 573 330.5 c 128,-1,61
 604 284 604 284 604 220 c 256,62,63
 604 156 604 156 571.5 106.5 c 128,-1,64
 539 57 539 57 479 28.5 c 128,-1,65
 419 0 419 0 336 0 c 2,26,-1
EndSplineSet
EndChar

StartChar: Softcyr
Encoding: 1068 1068 298
Width: 642
GlyphClass: 2
Flags: W
AnchorPoint: "Anchor-0" 192 741 basechar 0
LayerCount: 2
Fore
SplineSet
336 0 m 2,0,-1
 45 0 l 1,1,-1
 45 46 l 1,2,-1
 56 46 l 2,3,4
 92 46 92 46 116 53 c 128,-1,5
 140 60 140 60 140 82 c 2,6,-1
 140 628 l 2,7,8
 140 650 140 650 116 657 c 128,-1,9
 92 664 92 664 56 664 c 2,10,-1
 45 664 l 1,11,-1
 45 710 l 1,12,-1
 336 710 l 1,13,-1
 336 664 l 1,14,-1
 309 664 l 2,15,16
 292 664 292 664 274 663 c 128,-1,17
 256 662 256 662 244 660 c 128,-1,18
 232 658 232 658 232 654 c 2,19,-1
 232 58 l 1,20,-1
 334 58 l 2,21,22
 392 58 392 58 429.5 78 c 128,-1,23
 467 98 467 98 485.5 134.5 c 128,-1,24
 504 171 504 171 504 219 c 256,25,26
 504 267 504 267 486 300.5 c 128,-1,27
 468 334 468 334 431.5 352 c 128,-1,28
 395 370 395 370 339 370 c 2,29,-1
 202 370 l 1,30,-1
 202 429 l 1,31,-1
 341 429 l 2,32,33
 424 429 424 429 483 403 c 128,-1,34
 542 377 542 377 573 330.5 c 128,-1,35
 604 284 604 284 604 220 c 256,36,37
 604 156 604 156 571.5 106.5 c 128,-1,38
 539 57 539 57 479 28.5 c 128,-1,39
 419 0 419 0 336 0 c 2,0,-1
EndSplineSet
EndChar

StartChar: Ereversedcyr
Encoding: 1069 1069 299
Width: 747
GlyphClass: 2
Flags: W
AnchorPoint: "Anchor-1" 365 0 basechar 0
AnchorPoint: "Anchor-0" 365 741 basechar 0
LayerCount: 2
Fore
SplineSet
643 390 m 1,0,-1
 643 337 l 1,1,2
 598 336 598 336 553 334.5 c 128,-1,3
 508 333 508 333 463.5 332.5 c 128,-1,4
 419 332 419 332 374 331 c 128,-1,5
 329 330 329 330 285 328 c 1,6,-1
 285 398 l 1,7,8
 329 397 329 397 374 396 c 128,-1,9
 419 395 419 395 463.5 394 c 128,-1,10
 508 393 508 393 553 392.5 c 128,-1,11
 598 392 598 392 643 390 c 1,0,-1
367 -10 m 256,12,13
 299 -10 299 -10 249.5 10.5 c 128,-1,14
 200 31 200 31 168.5 68.5 c 128,-1,15
 137 106 137 106 120 158 c 1,16,-1
 157 157 l 1,17,-1
 141 0 l 1,18,-1
 81 0 l 1,19,-1
 81 214 l 1,20,-1
 147 214 l 1,21,22
 165 165 165 165 193.5 128.5 c 128,-1,23
 222 92 222 92 264.5 71.5 c 128,-1,24
 307 51 307 51 366 51 c 0,25,26
 414 51 414 51 457 72.5 c 128,-1,27
 500 94 500 94 532 134 c 128,-1,28
 564 174 564 174 582 230 c 128,-1,29
 600 286 600 286 600 355 c 256,30,31
 600 424 600 424 585 480 c 128,-1,32
 570 536 570 536 539.5 576 c 128,-1,33
 509 616 509 616 465 637.5 c 128,-1,34
 421 659 421 659 362 659 c 0,35,36
 305 659 305 659 263 638.5 c 128,-1,37
 221 618 221 618 193 582 c 128,-1,38
 165 546 165 546 148 496 c 1,39,-1
 82 496 l 1,40,-1
 82 710 l 1,41,-1
 141 710 l 1,42,-1
 157 553 l 1,43,-1
 120 552 l 1,44,45
 137 604 137 604 169 641.5 c 128,-1,46
 201 679 201 679 250.5 699.5 c 128,-1,47
 300 720 300 720 367 720 c 0,48,49
 442 720 442 720 503 693.5 c 128,-1,50
 564 667 564 667 608.5 618.5 c 128,-1,51
 653 570 653 570 676.5 503 c 128,-1,52
 700 436 700 436 700 355 c 0,53,54
 700 275 700 275 674 208 c 128,-1,55
 648 141 648 141 602 92 c 128,-1,56
 556 43 556 43 495.5 16.5 c 128,-1,57
 435 -10 435 -10 367 -10 c 256,12,13
EndSplineSet
Substitution2: "'ss01' Style Set 1 lookup 61 subtable" Ecyr.alt1
EndChar

StartChar: Yucyr
Encoding: 1070 1070 300
Width: 1103
GlyphClass: 2
Flags: W
AnchorPoint: "Anchor-1" 577 0 basechar 0
AnchorPoint: "Anchor-0" 577 741 basechar 0
LayerCount: 2
Fore
SplineSet
201 395 m 1,0,-1
 430 395 l 1,1,-1
 430 337 l 1,2,-1
 201 337 l 1,3,-1
 201 395 l 1,0,-1
45 0 m 1,4,-1
 45 46 l 1,5,-1
 56 46 l 2,6,7
 92 46 92 46 116 53 c 128,-1,8
 140 60 140 60 140 82 c 2,9,-1
 140 628 l 2,10,11
 140 650 140 650 116 657 c 128,-1,12
 92 664 92 664 56 664 c 2,13,-1
 45 664 l 1,14,-1
 45 710 l 1,15,-1
 329 710 l 1,16,-1
 329 664 l 1,17,-1
 320 664 l 2,18,19
 306 664 306 664 290.5 663.5 c 128,-1,20
 275 663 275 663 262 661.5 c 128,-1,21
 249 660 249 660 241 658.5 c 128,-1,22
 233 657 233 657 233 654 c 2,23,-1
 233 56 l 2,24,25
 233 53 233 53 241 51.5 c 128,-1,26
 249 50 249 50 262 48.5 c 128,-1,27
 275 47 275 47 290.5 46.5 c 128,-1,28
 306 46 306 46 320 46 c 2,29,-1
 329 46 l 1,30,-1
 329 0 l 1,31,-1
 45 0 l 1,4,-1
716 -10 m 256,32,33
 644 -10 644 -10 582.5 16.5 c 128,-1,34
 521 43 521 43 474.5 91.5 c 128,-1,35
 428 140 428 140 402 207 c 128,-1,36
 376 274 376 274 376 355 c 256,37,38
 376 436 376 436 402 503 c 128,-1,39
 428 570 428 570 474.5 618.5 c 128,-1,40
 521 667 521 667 582.5 693.5 c 128,-1,41
 644 720 644 720 716 720 c 256,42,43
 788 720 788 720 849.5 693.5 c 128,-1,44
 911 667 911 667 957.5 618.5 c 128,-1,45
 1004 570 1004 570 1030 503 c 128,-1,46
 1056 436 1056 436 1056 355 c 256,47,48
 1056 274 1056 274 1030 207 c 128,-1,49
 1004 140 1004 140 957.5 91.5 c 128,-1,50
 911 43 911 43 849.5 16.5 c 128,-1,51
 788 -10 788 -10 716 -10 c 256,32,33
716 49 m 256,52,53
 768 49 768 49 812 70 c 128,-1,54
 856 91 856 91 888 131.5 c 128,-1,55
 920 172 920 172 938 228.5 c 128,-1,56
 956 285 956 285 956 355 c 256,57,58
 956 425 956 425 938 481.5 c 128,-1,59
 920 538 920 538 888 578.5 c 128,-1,60
 856 619 856 619 812 640 c 128,-1,61
 768 661 768 661 716 661 c 256,62,63
 664 661 664 661 620 640 c 128,-1,64
 576 619 576 619 544 578.5 c 128,-1,65
 512 538 512 538 494 481.5 c 128,-1,66
 476 425 476 425 476 355 c 256,67,68
 476 285 476 285 494 228.5 c 128,-1,69
 512 172 512 172 544 131.5 c 128,-1,70
 576 91 576 91 620 70 c 128,-1,71
 664 49 664 49 716 49 c 256,52,53
EndSplineSet
EndChar

StartChar: Yacyr
Encoding: 1071 1071 301
Width: 694
GlyphClass: 2
Flags: W
AnchorPoint: "Anchor-1" 348 0 basechar 0
AnchorPoint: "Anchor-0" 387 741 basechar 0
LayerCount: 2
Fore
SplineSet
332 321 m 1,0,-1
 164 0 l 1,1,-1
 23 0 l 1,2,-1
 23 46 l 1,3,-1
 31 46 l 2,4,5
 48 46 48 46 61.5 48 c 128,-1,6
 75 50 75 50 85 56 c 128,-1,7
 95 62 95 62 101 75 c 2,8,-1
 248 336 l 1,9,-1
 332 321 l 1,0,-1
462 56 m 2,10,-1
 462 652 l 1,11,-1
 363 652 l 2,12,13
 310 652 310 652 274.5 634.5 c 128,-1,14
 239 617 239 617 221 584 c 128,-1,15
 203 551 203 551 203 506 c 0,16,17
 203 460 203 460 220.5 426.5 c 128,-1,18
 238 393 238 393 274.5 375 c 128,-1,19
 311 357 311 357 367 357 c 2,20,-1
 482 357 l 1,21,-1
 482 301 l 1,22,-1
 300 301 l 1,23,-1
 276 311 l 1,24,25
 223 324 223 324 184 351.5 c 128,-1,26
 145 379 145 379 124 418 c 128,-1,27
 103 457 103 457 103 506 c 0,28,29
 103 567 103 567 134 613 c 128,-1,30
 165 659 165 659 223 684.5 c 128,-1,31
 281 710 281 710 361 710 c 2,32,-1
 649 710 l 1,33,-1
 649 664 l 1,34,-1
 638 664 l 2,35,36
 602 664 602 664 578 657 c 128,-1,37
 554 650 554 650 554 628 c 2,38,-1
 554 82 l 2,39,40
 554 60 554 60 578 53 c 128,-1,41
 602 46 602 46 638 46 c 2,42,-1
 649 46 l 1,43,-1
 649 0 l 1,44,-1
 372 0 l 1,45,-1
 372 46 l 1,46,-1
 384 46 l 2,47,48
 397 46 397 46 411 46.5 c 128,-1,49
 425 47 425 47 436.5 48.5 c 128,-1,50
 448 50 448 50 455 51.5 c 128,-1,51
 462 53 462 53 462 56 c 2,10,-1
EndSplineSet
EndChar

StartChar: Geupcyr
Encoding: 1168 1168 302
Width: 589
GlyphClass: 2
Flags: W
AnchorPoint: "Anchor-0" 281 741 basechar 0
LayerCount: 2
Fore
SplineSet
232 652 m 1,0,-1
 232 82 l 2,1,2
 232 66 232 66 247 58 c 128,-1,3
 262 50 262 50 284 48 c 128,-1,4
 306 46 306 46 327 46 c 2,5,-1
 344 46 l 1,6,-1
 344 0 l 1,7,-1
 45 0 l 1,8,-1
 45 46 l 1,9,-1
 56 46 l 2,10,11
 92 46 92 46 116 53 c 128,-1,12
 140 60 140 60 140 82 c 2,13,-1
 140 628 l 2,14,15
 140 650 140 650 116 657 c 128,-1,16
 92 664 92 664 56 664 c 2,17,-1
 45 664 l 1,18,-1
 45 710 l 1,19,-1
 386 710 l 2,20,21
 417 710 417 710 436 713.5 c 128,-1,22
 455 717 455 717 465 727 c 128,-1,23
 475 737 475 737 477 758 c 2,24,-1
 488 864 l 1,25,-1
 546 864 l 1,26,-1
 546 652 l 1,27,-1
 232 652 l 1,0,-1
EndSplineSet
EndChar

StartChar: Gestrokecyr
Encoding: 1170 1170 303
Width: 589
GlyphClass: 2
Flags: W
AnchorPoint: "Anchor-0" 302 741 basechar 0
LayerCount: 2
Fore
SplineSet
45 381 m 1,0,-1
 395 381 l 1,1,-1
 395 329 l 1,2,-1
 45 329 l 1,3,-1
 45 381 l 1,0,-1
232 652 m 1,4,-1
 232 82 l 2,5,6
 232 66 232 66 247 58 c 128,-1,7
 262 50 262 50 284 48 c 128,-1,8
 306 46 306 46 327 46 c 2,9,-1
 344 46 l 1,10,-1
 344 0 l 1,11,-1
 45 0 l 1,12,-1
 45 46 l 1,13,-1
 56 46 l 2,14,15
 92 46 92 46 116 53 c 128,-1,16
 140 60 140 60 140 82 c 2,17,-1
 140 628 l 2,18,19
 140 650 140 650 116 657 c 128,-1,20
 92 664 92 664 56 664 c 2,21,-1
 45 664 l 1,22,-1
 45 710 l 1,23,-1
 547 710 l 1,24,-1
 547 518 l 1,25,-1
 491 518 l 1,26,-1
 482 608 l 2,27,28
 480 626 480 626 467 636 c 128,-1,29
 454 646 454 646 427 649 c 128,-1,30
 400 652 400 652 357 652 c 2,31,-1
 232 652 l 1,4,-1
EndSplineSet
EndChar

StartChar: Zhetailcyr
Encoding: 1174 1174 304
Width: 1045
GlyphClass: 2
Flags: W
AnchorPoint: "Anchor-0" 519 741 basechar 0
LayerCount: 2
Fore
SplineSet
740 0 m 1,0,-1
 740 46 l 1,1,-1
 750 46 l 2,2,3
 768 46 768 46 787 47 c 128,-1,4
 806 48 806 48 819.5 50.5 c 128,-1,5
 833 53 833 53 833 56 c 2,6,-1
 598 347 l 1,7,-1
 598 364 l 1,8,-1
 845 653 l 2,9,10
 844 657 844 657 832 659 c 128,-1,11
 820 661 820 661 802 662.5 c 128,-1,12
 784 664 784 664 765 664 c 2,13,-1
 756 664 l 1,14,-1
 756 710 l 1,15,-1
 1001 710 l 1,16,-1
 1001 664 l 1,17,-1
 985 664 l 2,18,19
 967 664 967 664 953 661.5 c 128,-1,20
 939 659 939 659 927.5 652.5 c 128,-1,21
 916 646 916 646 906 634 c 2,22,-1
 668 357 l 1,23,-1
 668 402 l 1,24,-1
 957 47 l 1,25,-1
 957 0 l 1,26,-1
 740 0 l 1,0,-1
299 0 m 1,27,-1
 15 0 l 1,28,-1
 15 46 l 1,29,-1
 26 46 l 2,30,31
 49 46 49 46 64 48 c 128,-1,32
 79 50 79 50 91 57.5 c 128,-1,33
 103 65 103 65 115 80 c 2,34,-1
 377 402 l 1,35,-1
 368 357 l 1,36,-1
 130 634 l 2,37,38
 120 646 120 646 108.5 652 c 128,-1,39
 97 658 97 658 83 661 c 128,-1,40
 69 664 69 664 51 664 c 2,41,-1
 35 664 l 1,42,-1
 35 710 l 1,43,-1
 284 710 l 1,44,-1
 284 664 l 1,45,-1
 275 664 l 2,46,47
 257 664 257 664 238.5 662.5 c 128,-1,48
 220 661 220 661 208 659 c 128,-1,49
 196 657 196 657 195 653 c 2,50,-1
 441 364 l 1,51,-1
 441 347 l 1,52,-1
 207 56 l 2,53,54
 207 53 207 53 220.5 50.5 c 128,-1,55
 234 48 234 48 253 47 c 128,-1,56
 272 46 272 46 290 46 c 2,57,-1
 299 46 l 1,58,-1
 299 0 l 1,27,-1
877 0 m 2,59,-1
 846 0 l 1,60,-1
 846 57 l 1,61,-1
 1044 57 l 1,62,-1
 1044 -155 l 1,63,-1
 986 -155 l 1,64,-1
 975 -50 l 2,65,66
 973 -28 973 -28 963 -17.5 c 128,-1,67
 953 -7 953 -7 932 -3.5 c 128,-1,68
 911 0 911 0 877 0 c 2,59,-1
378 0 m 1,69,-1
 378 46 l 1,70,-1
 387 46 l 2,71,72
 401 46 401 46 416.5 46.5 c 128,-1,73
 432 47 432 47 445 48.5 c 128,-1,74
 458 50 458 50 465.5 51.5 c 128,-1,75
 473 53 473 53 473 56 c 2,76,-1
 473 654 l 2,77,78
 473 657 473 657 465.5 658.5 c 128,-1,79
 458 660 458 660 445 661.5 c 128,-1,80
 432 663 432 663 416.5 663.5 c 128,-1,81
 401 664 401 664 387 664 c 2,82,-1
 378 664 l 1,83,-1
 378 710 l 1,84,-1
 662 710 l 1,85,-1
 662 664 l 1,86,-1
 653 664 l 2,87,88
 639 664 639 664 623.5 663.5 c 128,-1,89
 608 663 608 663 595 661.5 c 128,-1,90
 582 660 582 660 574 658.5 c 128,-1,91
 566 657 566 657 566 654 c 2,92,-1
 566 56 l 2,93,94
 566 53 566 53 574 51.5 c 128,-1,95
 582 50 582 50 595 48.5 c 128,-1,96
 608 47 608 47 623.5 46.5 c 128,-1,97
 639 46 639 46 653 46 c 2,98,-1
 662 46 l 1,99,-1
 662 0 l 1,100,-1
 378 0 l 1,69,-1
EndSplineSet
EndChar

StartChar: Katailcyr
Encoding: 1178 1178 306
Width: 727
GlyphClass: 2
Flags: W
AnchorPoint: "Anchor-0" 375 741 basechar 0
LayerCount: 2
Fore
SplineSet
45 0 m 1,0,-1
 45 46 l 1,1,-1
 56 46 l 2,2,3
 92 46 92 46 116 53 c 128,-1,4
 140 60 140 60 140 82 c 2,5,-1
 140 628 l 2,6,7
 140 650 140 650 116 657 c 128,-1,8
 92 664 92 664 56 664 c 2,9,-1
 45 664 l 1,10,-1
 45 710 l 1,11,-1
 329 710 l 1,12,-1
 329 664 l 1,13,-1
 320 664 l 2,14,15
 306 664 306 664 290.5 663.5 c 128,-1,16
 275 663 275 663 262 661.5 c 128,-1,17
 249 660 249 660 241 658.5 c 128,-1,18
 233 657 233 657 233 654 c 2,19,-1
 233 56 l 2,20,21
 233 53 233 53 241 51.5 c 128,-1,22
 249 50 249 50 262 48.5 c 128,-1,23
 275 47 275 47 290.5 46.5 c 128,-1,24
 306 46 306 46 320 46 c 2,25,-1
 329 46 l 1,26,-1
 329 0 l 1,27,-1
 45 0 l 1,0,-1
423 0 m 1,28,-1
 423 46 l 1,29,-1
 432 46 l 2,30,31
 451 46 451 46 470 47 c 128,-1,32
 489 48 489 48 502.5 50.5 c 128,-1,33
 516 53 516 53 516 56 c 2,34,-1
 265 347 l 1,35,-1
 265 364 l 1,36,-1
 527 653 l 2,37,38
 526 657 526 657 514 659 c 128,-1,39
 502 661 502 661 484.5 662.5 c 128,-1,40
 467 664 467 664 448 664 c 2,41,-1
 439 664 l 1,42,-1
 439 710 l 1,43,-1
 683 710 l 1,44,-1
 683 664 l 1,45,-1
 667 664 l 2,46,47
 649 664 649 664 635 661 c 128,-1,48
 621 658 621 658 610 652 c 128,-1,49
 599 646 599 646 588 634 c 2,50,-1
 335 357 l 1,51,-1
 335 402 l 1,52,-1
 642 47 l 1,53,-1
 642 0 l 1,54,-1
 423 0 l 1,28,-1
560 0 m 2,55,-1
 529 0 l 1,56,-1
 529 57 l 1,57,-1
 727 57 l 1,58,-1
 727 -155 l 1,59,-1
 669 -155 l 1,60,-1
 658 -50 l 2,61,62
 655 -28 655 -28 645 -17.5 c 128,-1,63
 635 -7 635 -7 614.5 -3.5 c 128,-1,64
 594 0 594 0 560 0 c 2,55,-1
EndSplineSet
EndChar

StartChar: Kaverticalstrokecyr
Encoding: 1180 1180 307
Width: 816
GlyphClass: 2
Flags: W
AnchorPoint: "Anchor-0" 431 741 basechar 0
LayerCount: 2
Fore
SplineSet
333 171 m 1,0,-1
 333 544 l 1,1,-1
 389 544 l 1,2,-1
 389 171 l 1,3,-1
 333 171 l 1,0,-1
45 0 m 1,4,-1
 45 46 l 1,5,-1
 56 46 l 2,6,7
 92 46 92 46 116 53 c 128,-1,8
 140 60 140 60 140 82 c 2,9,-1
 140 628 l 2,10,11
 140 650 140 650 116 657 c 128,-1,12
 92 664 92 664 56 664 c 2,13,-1
 45 664 l 1,14,-1
 45 710 l 1,15,-1
 329 710 l 1,16,-1
 329 664 l 1,17,-1
 320 664 l 2,18,19
 306 664 306 664 290.5 663.5 c 128,-1,20
 275 663 275 663 262 661.5 c 128,-1,21
 249 660 249 660 241 658.5 c 128,-1,22
 233 657 233 657 233 654 c 2,23,-1
 233 56 l 2,24,25
 233 53 233 53 241 51.5 c 128,-1,26
 249 50 249 50 262 48.5 c 128,-1,27
 275 47 275 47 290.5 46.5 c 128,-1,28
 306 46 306 46 320 46 c 2,29,-1
 329 46 l 1,30,-1
 329 0 l 1,31,-1
 45 0 l 1,4,-1
519 0 m 1,32,-1
 519 46 l 1,33,-1
 528 46 l 2,34,35
 547 46 547 46 566 47 c 128,-1,36
 585 48 585 48 598.5 50.5 c 128,-1,37
 612 53 612 53 612 56 c 2,38,-1
 421 347 l 1,39,-1
 421 364 l 1,40,-1
 624 653 l 2,41,42
 623 657 623 657 611 659 c 128,-1,43
 599 661 599 661 581 662.5 c 128,-1,44
 563 664 563 664 544 664 c 2,45,-1
 535 664 l 1,46,-1
 535 710 l 1,47,-1
 775 710 l 1,48,-1
 775 664 l 1,49,-1
 759 664 l 2,50,51
 731 664 731 664 712 658.5 c 128,-1,52
 693 653 693 653 679 634 c 2,53,-1
 486 357 l 1,54,-1
 486 402 l 1,55,-1
 701 80 l 2,56,57
 712 64 712 64 724 57 c 128,-1,58
 736 50 736 50 752 48 c 128,-1,59
 768 46 768 46 790 46 c 2,60,-1
 801 46 l 1,61,-1
 801 0 l 1,62,-1
 519 0 l 1,32,-1
EndSplineSet
EndChar

StartChar: Kabashkcyr
Encoding: 1184 1184 308
Width: 854
GlyphClass: 2
Flags: W
AnchorPoint: "Anchor-0" 508 741 basechar 0
LayerCount: 2
Fore
SplineSet
549 0 m 1,0,-1
 549 46 l 1,1,-1
 558 46 l 2,2,3
 577 46 577 46 596 47 c 128,-1,4
 615 48 615 48 628.5 50.5 c 128,-1,5
 642 53 642 53 642 56 c 2,6,-1
 392 347 l 1,7,-1
 392 364 l 1,8,-1
 654 653 l 2,9,10
 653 657 653 657 641 659 c 128,-1,11
 629 661 629 661 611 662.5 c 128,-1,12
 593 664 593 664 574 664 c 2,13,-1
 565 664 l 1,14,-1
 565 710 l 1,15,-1
 810 710 l 1,16,-1
 810 664 l 1,17,-1
 794 664 l 2,18,19
 776 664 776 664 762 661 c 128,-1,20
 748 658 748 658 737 652 c 128,-1,21
 726 646 726 646 714 634 c 2,22,-1
 461 357 l 1,23,-1
 462 402 l 1,24,-1
 739 80 l 2,25,26
 752 66 752 66 763.5 58 c 128,-1,27
 775 50 775 50 790.5 48 c 128,-1,28
 806 46 806 46 828 46 c 2,29,-1
 839 46 l 1,30,-1
 839 0 l 1,31,-1
 549 0 l 1,0,-1
171 0 m 1,32,-1
 171 46 l 1,33,-1
 182 46 l 2,34,35
 219 46 219 46 243 53 c 128,-1,36
 267 60 267 60 267 82 c 2,37,-1
 267 655 l 1,38,-1
 229 655 l 2,39,40
 186 655 186 655 159 652 c 128,-1,41
 132 649 132 649 119 639 c 128,-1,42
 106 629 106 629 104 611 c 2,43,-1
 95 513 l 1,44,-1
 40 513 l 1,45,-1
 40 710 l 1,46,-1
 456 710 l 1,47,-1
 456 664 l 1,48,-1
 447 664 l 2,49,50
 428 664 428 664 408 663 c 128,-1,51
 388 662 388 662 374 660 c 128,-1,52
 360 658 360 658 360 654 c 2,53,-1
 360 56 l 2,54,55
 360 53 360 53 374 50.5 c 128,-1,56
 388 48 388 48 408 47 c 128,-1,57
 428 46 428 46 447 46 c 2,58,-1
 456 46 l 1,59,-1
 456 0 l 1,60,-1
 171 0 l 1,32,-1
EndSplineSet
EndChar

StartChar: Entailcyr
Encoding: 1186 1186 309
Width: 832
GlyphClass: 2
Flags: W
AnchorPoint: "Anchor-0" 416 741 basechar 0
LayerCount: 2
Fore
SplineSet
201 395 m 1,0,-1
 630 395 l 1,1,-1
 630 337 l 1,2,-1
 201 337 l 1,3,-1
 201 395 l 1,0,-1
45 0 m 1,4,-1
 45 46 l 1,5,-1
 56 46 l 2,6,7
 92 46 92 46 116 53 c 128,-1,8
 140 60 140 60 140 82 c 2,9,-1
 140 628 l 2,10,11
 140 650 140 650 116 657 c 128,-1,12
 92 664 92 664 56 664 c 2,13,-1
 45 664 l 1,14,-1
 45 710 l 1,15,-1
 329 710 l 1,16,-1
 329 664 l 1,17,-1
 320 664 l 2,18,19
 306 664 306 664 290.5 663.5 c 128,-1,20
 275 663 275 663 262 661.5 c 128,-1,21
 249 660 249 660 241 658.5 c 128,-1,22
 233 657 233 657 233 654 c 2,23,-1
 233 56 l 2,24,25
 233 53 233 53 241 51.5 c 128,-1,26
 249 50 249 50 262 48.5 c 128,-1,27
 275 47 275 47 290.5 46.5 c 128,-1,28
 306 46 306 46 320 46 c 2,29,-1
 329 46 l 1,30,-1
 329 0 l 1,31,-1
 45 0 l 1,4,-1
503 0 m 1,32,-1
 503 46 l 1,33,-1
 512 46 l 2,34,35
 526 46 526 46 541 46.5 c 128,-1,36
 556 47 556 47 569 48.5 c 128,-1,37
 582 50 582 50 590 51.5 c 128,-1,38
 598 53 598 53 598 56 c 2,39,-1
 598 654 l 2,40,41
 598 657 598 657 590 658.5 c 128,-1,42
 582 660 582 660 569 661.5 c 128,-1,43
 556 663 556 663 541 663.5 c 128,-1,44
 526 664 526 664 512 664 c 2,45,-1
 503 664 l 1,46,-1
 503 710 l 1,47,-1
 787 710 l 1,48,-1
 787 664 l 1,49,-1
 776 664 l 2,50,51
 739 664 739 664 715 657 c 128,-1,52
 691 650 691 650 691 628 c 2,53,-1
 691 0 l 1,54,-1
 503 0 l 1,32,-1
630 0 m 2,55,-1
 598 0 l 1,56,-1
 598 57 l 1,57,-1
 797 57 l 1,58,-1
 797 -155 l 1,59,-1
 739 -155 l 1,60,-1
 727 -50 l 2,61,62
 725 -28 725 -28 715 -17.5 c 128,-1,63
 705 -7 705 -7 684.5 -3.5 c 128,-1,64
 664 0 664 0 630 0 c 2,55,-1
EndSplineSet
EndChar

StartChar: Tetailcyr
Encoding: 1196 1196 311
Width: 668
GlyphClass: 2
Flags: W
AnchorPoint: "Anchor-0" 331 741 basechar 0
LayerCount: 2
Fore
SplineSet
287 82 m 2,0,-1
 287 655 l 1,1,-1
 229 655 l 2,2,3
 186 655 186 655 159 652 c 128,-1,4
 132 649 132 649 119 639 c 128,-1,5
 106 629 106 629 104 611 c 2,6,-1
 95 513 l 1,7,-1
 40 513 l 1,8,-1
 40 710 l 1,9,-1
 628 710 l 1,10,-1
 628 513 l 1,11,-1
 573 513 l 1,12,-1
 564 611 l 2,13,14
 562 629 562 629 548.5 639 c 128,-1,15
 535 649 535 649 508 652 c 128,-1,16
 481 655 481 655 438 655 c 2,17,-1
 380 655 l 1,18,-1
 380 0 l 1,19,-1
 186 0 l 1,20,-1
 186 46 l 1,21,-1
 202 46 l 2,22,23
 239 46 239 46 263 53 c 128,-1,24
 287 60 287 60 287 82 c 2,0,-1
328 0 m 2,25,-1
 297 0 l 1,26,-1
 297 57 l 1,27,-1
 496 57 l 1,28,-1
 496 -155 l 1,29,-1
 438 -155 l 1,30,-1
 426 -50 l 2,31,32
 424 -28 424 -28 414 -17.5 c 128,-1,33
 404 -7 404 -7 383.5 -3.5 c 128,-1,34
 363 0 363 0 328 0 c 2,25,-1
EndSplineSet
EndChar

StartChar: Ustraightstrokecyr
Encoding: 1200 1200 313
Width: 681
GlyphClass: 2
Flags: W
AnchorPoint: "Anchor-1" 342 0 basechar 0
AnchorPoint: "Anchor-0" 346 741 basechar 0
LayerCount: 2
Fore
SplineSet
151 290 m 1,0,-1
 534 290 l 1,1,-1
 534 239 l 1,2,-1
 151 239 l 1,3,-1
 151 290 l 1,0,-1
296 316 m 1,4,-1
 310 272 l 1,5,-1
 93 637 l 2,6,7
 85 650 85 650 74 655.5 c 128,-1,8
 63 661 63 661 48.5 662.5 c 128,-1,9
 34 664 34 664 17 664 c 2,10,-1
 12 664 l 1,11,-1
 12 710 l 1,12,-1
 275 710 l 1,13,-1
 275 664 l 1,14,-1
 258 664 l 2,15,16
 240 664 240 664 221 663 c 128,-1,17
 202 662 202 662 189 659.5 c 128,-1,18
 176 657 176 657 176 653 c 2,19,-1
 370 321 l 1,20,-1
 344 324 l 1,21,-1
 525 645 l 2,22,23
 525 651 525 651 512.5 655 c 128,-1,24
 500 659 500 659 481 661.5 c 128,-1,25
 462 664 462 664 443 664 c 2,26,-1
 427 664 l 1,27,-1
 427 710 l 1,28,-1
 669 710 l 1,29,-1
 669 664 l 1,30,-1
 664 664 l 2,31,32
 647 664 647 664 631.5 661 c 128,-1,33
 616 658 616 658 603 649.5 c 128,-1,34
 590 641 590 641 579 622 c 2,35,-1
 377 270 l 1,36,-1
 389 316 l 1,37,-1
 389 82 l 2,38,39
 389 60 389 60 413 53 c 128,-1,40
 437 46 437 46 474 46 c 2,41,-1
 490 46 l 1,42,-1
 490 0 l 1,43,-1
 195 0 l 1,44,-1
 195 46 l 1,45,-1
 211 46 l 2,46,47
 248 46 248 46 272 53 c 128,-1,48
 296 60 296 60 296 82 c 2,49,-1
 296 316 l 1,4,-1
EndSplineSet
EndChar

StartChar: Xatailcyr
Encoding: 1202 1202 314
Width: 738
GlyphClass: 2
Flags: W
AnchorPoint: "Anchor-0" 377 741 basechar 0
LayerCount: 2
Fore
SplineSet
43 664 m 1,0,-1
 43 710 l 1,1,-1
 313 710 l 1,2,-1
 313 664 l 1,3,-1
 296 664 l 2,4,5
 278 664 278 664 259 663 c 128,-1,6
 240 662 240 662 227 659.5 c 128,-1,7
 214 657 214 657 214 653 c 2,8,-1
 399 389 l 1,9,-1
 405 386 l 1,10,-1
 646 47 l 1,11,-1
 646 0 l 1,12,-1
 436 0 l 1,13,-1
 436 46 l 1,14,-1
 453 46 l 2,15,16
 471 46 471 46 490 47 c 128,-1,17
 509 48 509 48 522 51 c 128,-1,18
 535 54 535 54 535 57 c 2,19,-1
 337 335 l 1,20,-1
 331 339 l 1,21,-1
 127 632 l 2,22,23
 111 655 111 655 93.5 659.5 c 128,-1,24
 76 664 76 664 48 664 c 2,25,-1
 43 664 l 1,0,-1
27 0 m 1,26,-1
 27 46 l 1,27,-1
 37 46 l 2,28,29
 64 46 64 46 83.5 55.5 c 128,-1,30
 103 65 103 65 123 93 c 2,31,-1
 330 382 l 1,32,-1
 368 337 l 1,33,-1
 174 65 l 2,34,35
 174 60 174 60 187.5 55.5 c 128,-1,36
 201 51 201 51 220.5 48.5 c 128,-1,37
 240 46 240 46 259 46 c 2,38,-1
 274 46 l 1,39,-1
 274 0 l 1,40,-1
 27 0 l 1,26,-1
405 354 m 1,41,-1
 366 396 l 1,42,-1
 542 645 l 2,43,44
 542 651 542 651 529.5 655 c 128,-1,45
 517 659 517 659 498 661.5 c 128,-1,46
 479 664 479 664 459 664 c 2,47,-1
 444 664 l 1,48,-1
 444 710 l 1,49,-1
 687 710 l 1,50,-1
 687 664 l 1,51,-1
 682 664 l 2,52,53
 654 664 654 664 633.5 654.5 c 128,-1,54
 613 645 613 645 593 618 c 2,55,-1
 405 354 l 1,41,-1
566 0 m 2,56,-1
 535 0 l 1,57,-1
 535 57 l 1,58,-1
 733 57 l 1,59,-1
 733 -155 l 1,60,-1
 675 -155 l 1,61,-1
 663 -50 l 2,62,63
 661 -28 661 -28 651 -17.5 c 128,-1,64
 641 -7 641 -7 620.5 -3.5 c 128,-1,65
 600 0 600 0 566 0 c 2,56,-1
EndSplineSet
EndChar

StartChar: Chetailcyr
Encoding: 1206 1206 315
Width: 781
GlyphClass: 2
Flags: W
AnchorPoint: "Anchor-0" 390 741 basechar 0
LayerCount: 2
Fore
SplineSet
363 280 m 0,0,1
 277 280 277 280 226 302.5 c 128,-1,2
 175 325 175 325 152.5 374.5 c 128,-1,3
 130 424 130 424 130 502 c 2,4,-1
 130 628 l 2,5,6
 130 650 130 650 106 657 c 128,-1,7
 82 664 82 664 46 664 c 2,8,-1
 35 664 l 1,9,-1
 35 710 l 1,10,-1
 319 710 l 1,11,-1
 319 664 l 1,12,-1
 310 664 l 2,13,14
 291 664 291 664 271 663 c 128,-1,15
 251 662 251 662 237 660 c 128,-1,16
 223 658 223 658 223 654 c 2,17,-1
 223 507 l 2,18,19
 223 445 223 445 236 407.5 c 128,-1,20
 249 370 249 370 280 353.5 c 128,-1,21
 311 337 311 337 363 337 c 0,22,23
 420 337 420 337 480.5 350 c 128,-1,24
 541 363 541 363 595 397 c 1,25,-1
 595 340 l 1,26,27
 541 309 541 309 480 294.5 c 128,-1,28
 419 280 419 280 363 280 c 0,0,1
452 0 m 1,29,-1
 452 46 l 1,30,-1
 461 46 l 2,31,32
 480 46 480 46 500 47 c 128,-1,33
 520 48 520 48 534 50.5 c 128,-1,34
 548 53 548 53 548 56 c 2,35,-1
 548 654 l 2,36,37
 548 658 548 658 534 660 c 128,-1,38
 520 662 520 662 500 663 c 128,-1,39
 480 664 480 664 461 664 c 2,40,-1
 452 664 l 1,41,-1
 452 710 l 1,42,-1
 737 710 l 1,43,-1
 737 664 l 1,44,-1
 726 664 l 2,45,46
 689 664 689 664 665 657 c 128,-1,47
 641 650 641 650 641 628 c 2,48,-1
 641 0 l 1,49,-1
 452 0 l 1,29,-1
579 0 m 2,50,-1
 548 0 l 1,51,-1
 548 57 l 1,52,-1
 746 57 l 1,53,-1
 746 -155 l 1,54,-1
 688 -155 l 1,55,-1
 677 -50 l 2,56,57
 675 -28 675 -28 665 -17.5 c 128,-1,58
 655 -7 655 -7 634 -3.5 c 128,-1,59
 613 0 613 0 579 0 c 2,50,-1
EndSplineSet
EndChar

StartChar: Chevertcyr
Encoding: 1208 1208 316
Width: 801
GlyphClass: 2
Flags: W
AnchorPoint: "Anchor-0" 396 741 basechar 0
LayerCount: 2
Fore
SplineSet
472 0 m 1,0,-1
 472 46 l 1,1,-1
 481 46 l 2,2,3
 500 46 500 46 520 47 c 128,-1,4
 540 48 540 48 554 50.5 c 128,-1,5
 568 53 568 53 568 56 c 2,6,-1
 568 654 l 2,7,8
 568 658 568 658 554 660 c 128,-1,9
 540 662 540 662 520 663 c 128,-1,10
 500 664 500 664 481 664 c 2,11,-1
 472 664 l 1,12,-1
 472 710 l 1,13,-1
 757 710 l 1,14,-1
 757 664 l 1,15,-1
 746 664 l 2,16,17
 709 664 709 664 685 657 c 128,-1,18
 661 650 661 650 661 628 c 2,19,-1
 661 82 l 2,20,21
 661 60 661 60 685 53 c 128,-1,22
 709 46 709 46 746 46 c 2,23,-1
 757 46 l 1,24,-1
 757 0 l 1,25,-1
 472 0 l 1,0,-1
373 280 m 0,26,27
 284 280 284 280 230.5 302.5 c 128,-1,28
 177 325 177 325 153.5 374.5 c 128,-1,29
 130 424 130 424 130 502 c 2,30,-1
 130 628 l 2,31,32
 130 650 130 650 106 657 c 128,-1,33
 82 664 82 664 46 664 c 2,34,-1
 35 664 l 1,35,-1
 35 710 l 1,36,-1
 319 710 l 1,37,-1
 319 664 l 1,38,-1
 310 664 l 2,39,40
 291 664 291 664 271 663 c 128,-1,41
 251 662 251 662 237 660 c 128,-1,42
 223 658 223 658 223 654 c 2,43,-1
 223 507 l 2,44,45
 223 445 223 445 237 407.5 c 128,-1,46
 251 370 251 370 284.5 353.5 c 128,-1,47
 318 337 318 337 373 337 c 0,48,49
 432 337 432 337 496 350 c 128,-1,50
 560 363 560 363 615 397 c 1,51,-1
 615 340 l 1,52,53
 560 308 560 308 495.5 294 c 128,-1,54
 431 280 431 280 373 280 c 0,26,27
367 157 m 1,55,-1
 367 530 l 1,56,-1
 423 530 l 1,57,-1
 423 157 l 1,58,-1
 367 157 l 1,55,-1
EndSplineSet
EndChar

StartChar: Shhacyr
Encoding: 1210 1210 317
Width: 776
GlyphClass: 1
Flags: W
LayerCount: 2
Fore
SplineSet
330 710 m 1,0,-1
 330 664 l 1,1,-1
 320 664 l 2,2,3
 301 664 301 664 281 663 c 128,-1,4
 261 662 261 662 247 660 c 128,-1,5
 233 658 233 658 233 654 c 2,6,-1
 233 56 l 2,7,8
 233 53 233 53 247 50.5 c 128,-1,9
 261 48 261 48 281 47 c 128,-1,10
 301 46 301 46 320 46 c 2,11,-1
 329 46 l 1,12,-1
 329 0 l 1,13,-1
 45 0 l 1,14,-1
 45 46 l 1,15,-1
 56 46 l 2,16,17
 92 46 92 46 116 53 c 128,-1,18
 140 60 140 60 140 82 c 2,19,-1
 140 628 l 2,20,21
 140 650 140 650 116 657 c 128,-1,22
 92 664 92 664 56 664 c 2,23,-1
 45 664 l 1,24,-1
 45 710 l 1,25,-1
 330 710 l 1,0,-1
419 430 m 0,26,27
 504 430 504 430 555.5 407.5 c 128,-1,28
 607 385 607 385 629 336 c 128,-1,29
 651 287 651 287 651 208 c 2,30,-1
 651 82 l 2,31,32
 651 60 651 60 675 53 c 128,-1,33
 699 46 699 46 736 46 c 2,34,-1
 747 46 l 1,35,-1
 747 0 l 1,36,-1
 462 0 l 1,37,-1
 462 46 l 1,38,-1
 471 46 l 2,39,40
 490 46 490 46 510 47 c 128,-1,41
 530 48 530 48 544 50.5 c 128,-1,42
 558 53 558 53 558 56 c 2,43,-1
 558 203 l 2,44,45
 558 265 558 265 545 302.5 c 128,-1,46
 532 340 532 340 501.5 356.5 c 128,-1,47
 471 373 471 373 419 373 c 0,48,49
 361 373 361 373 300.5 360 c 128,-1,50
 240 347 240 347 187 313 c 1,51,-1
 187 370 l 1,52,53
 240 402 240 402 301 416 c 128,-1,54
 362 430 362 430 419 430 c 0,26,27
EndSplineSet
EndChar

StartChar: Obarcyr
Encoding: 1256 1256 320
Width: 794
GlyphClass: 2
Flags: W
AnchorPoint: "Anchor-1" 395 0 basechar 0
AnchorPoint: "Anchor-0" 395 741 basechar 0
LayerCount: 2
Fore
SplineSet
95 395 m 1,0,-1
 701 395 l 1,1,-1
 701 337 l 1,2,-1
 95 337 l 1,3,-1
 95 395 l 1,0,-1
397 -10 m 256,4,5
 323 -10 323 -10 259.5 16.5 c 128,-1,6
 196 43 196 43 148 91.5 c 128,-1,7
 100 140 100 140 73.5 207 c 128,-1,8
 47 274 47 274 47 355 c 256,9,10
 47 436 47 436 73.5 503 c 128,-1,11
 100 570 100 570 148 618.5 c 128,-1,12
 196 667 196 667 259.5 693.5 c 128,-1,13
 323 720 323 720 397 720 c 256,14,15
 471 720 471 720 534.5 693.5 c 128,-1,16
 598 667 598 667 646 618.5 c 128,-1,17
 694 570 694 570 720.5 503 c 128,-1,18
 747 436 747 436 747 355 c 256,19,20
 747 274 747 274 720.5 207 c 128,-1,21
 694 140 694 140 646 91.5 c 128,-1,22
 598 43 598 43 534.5 16.5 c 128,-1,23
 471 -10 471 -10 397 -10 c 256,4,5
397 49 m 256,24,25
 451 49 451 49 497 70 c 128,-1,26
 543 91 543 91 576.5 131.5 c 128,-1,27
 610 172 610 172 628.5 228.5 c 128,-1,28
 647 285 647 285 647 355 c 256,29,30
 647 425 647 425 628.5 481.5 c 128,-1,31
 610 538 610 538 576.5 578.5 c 128,-1,32
 543 619 543 619 497 640 c 128,-1,33
 451 661 451 661 397 661 c 256,34,35
 343 661 343 661 297 640 c 128,-1,36
 251 619 251 619 217.5 578.5 c 128,-1,37
 184 538 184 538 165.5 481.5 c 128,-1,38
 147 425 147 425 147 355 c 256,39,40
 147 285 147 285 165.5 228.5 c 128,-1,41
 184 172 184 172 217.5 131.5 c 128,-1,42
 251 91 251 91 297 70 c 128,-1,43
 343 49 343 49 397 49 c 256,24,25
EndSplineSet
EndChar

StartChar: Hastrokecyr
Encoding: 1278 1278 321
Width: 738
GlyphClass: 2
Flags: W
AnchorPoint: "Anchor-1" 354 0 basechar 0
AnchorPoint: "Anchor-0" 377 741 basechar 0
LayerCount: 2
Fore
SplineSet
171 394 m 1,0,-1
 562 394 l 1,1,-1
 562 342 l 1,2,-1
 171 342 l 1,3,-1
 171 394 l 1,0,-1
43 664 m 1,4,-1
 43 710 l 1,5,-1
 313 710 l 1,6,-1
 313 664 l 1,7,-1
 296 664 l 2,8,9
 278 664 278 664 259 663 c 128,-1,10
 240 662 240 662 227 659.5 c 128,-1,11
 214 657 214 657 214 653 c 2,12,-1
 399 389 l 1,13,-1
 401 386 l 1,14,-1
 622 80 l 2,15,16
 639 57 639 57 656.5 51.5 c 128,-1,17
 674 46 674 46 702 46 c 2,18,-1
 712 46 l 1,19,-1
 712 0 l 1,20,-1
 436 0 l 1,21,-1
 436 46 l 1,22,-1
 453 46 l 2,23,24
 471 46 471 46 490 47 c 128,-1,25
 509 48 509 48 522 51 c 128,-1,26
 535 54 535 54 535 57 c 2,27,-1
 337 335 l 1,28,-1
 335 339 l 1,29,-1
 127 632 l 2,30,31
 111 655 111 655 93.5 659.5 c 128,-1,32
 76 664 76 664 48 664 c 2,33,-1
 43 664 l 1,4,-1
27 0 m 1,34,-1
 27 46 l 1,35,-1
 37 46 l 2,36,37
 64 46 64 46 83.5 55.5 c 128,-1,38
 103 65 103 65 123 93 c 2,39,-1
 334 382 l 1,40,-1
 368 337 l 1,41,-1
 174 65 l 2,42,43
 174 60 174 60 187.5 55.5 c 128,-1,44
 201 51 201 51 220.5 48.5 c 128,-1,45
 240 46 240 46 259 46 c 2,46,-1
 274 46 l 1,47,-1
 274 0 l 1,48,-1
 27 0 l 1,34,-1
401 354 m 1,49,-1
 366 396 l 1,50,-1
 542 645 l 2,51,52
 542 651 542 651 529.5 655 c 128,-1,53
 517 659 517 659 498 661.5 c 128,-1,54
 479 664 479 664 459 664 c 2,55,-1
 444 664 l 1,56,-1
 444 710 l 1,57,-1
 687 710 l 1,58,-1
 687 664 l 1,59,-1
 682 664 l 2,60,61
 654 664 654 664 633.5 654.5 c 128,-1,62
 613 645 613 645 593 618 c 2,63,-1
 401 354 l 1,49,-1
EndSplineSet
EndChar

StartChar: a
Encoding: 97 97 322
Width: 542
GlyphClass: 2
Flags: W
AnchorPoint: "Anchor-2" 407 0 basechar 0
AnchorPoint: "Anchor-1" 279 0 basechar 0
AnchorPoint: "Anchor-0" 251 508 basechar 0
LayerCount: 2
Fore
SplineSet
385 308 m 1,0,-1
 385 258 l 1,1,2
 335 253 335 253 296 245 c 128,-1,3
 257 237 257 237 228.5 226 c 128,-1,4
 200 215 200 215 182 200.5 c 128,-1,5
 164 186 164 186 155 167 c 128,-1,6
 146 148 146 148 146 125 c 0,7,8
 146 101 146 101 157 82.5 c 128,-1,9
 168 64 168 64 188 54 c 128,-1,10
 208 44 208 44 234 44 c 0,11,12
 269 44 269 44 296.5 61 c 128,-1,13
 324 78 324 78 345 109 c 128,-1,14
 366 140 366 140 382 182 c 1,15,-1
 383 113 l 1,16,17
 368 75 368 75 343 47.5 c 128,-1,18
 318 20 318 20 285 5 c 128,-1,19
 252 -10 252 -10 210 -10 c 0,20,21
 167 -10 167 -10 131.5 6 c 128,-1,22
 96 22 96 22 74.5 52.5 c 128,-1,23
 53 83 53 83 53 124 c 256,24,25
 53 165 53 165 74 195.5 c 128,-1,26
 95 226 95 226 137 248 c 128,-1,27
 179 270 179 270 241 284.5 c 128,-1,28
 303 299 303 299 385 308 c 1,0,-1
368 0 m 1,29,-1
 368 107 l 1,30,-1
 358 110 l 1,31,-1
 358 350 l 2,32,33
 358 393 358 393 346.5 417.5 c 128,-1,34
 335 442 335 442 313 452 c 128,-1,35
 291 462 291 462 259 462 c 0,36,37
 209 462 209 462 177.5 442 c 128,-1,38
 146 422 146 422 127 395 c 1,39,40
 125 407 125 407 128 417 c 128,-1,41
 131 427 131 427 137 435 c 128,-1,42
 143 443 143 443 152 449 c 128,-1,43
 161 455 161 455 171 459 c 1,44,-1
 171 356 l 1,45,-1
 84 356 l 1,46,-1
 84 458 l 1,47,48
 99 470 99 470 124.5 484 c 128,-1,49
 150 498 150 498 186 508 c 128,-1,50
 222 518 222 518 265 518 c 0,51,52
 300 518 300 518 332 510 c 128,-1,53
 364 502 364 502 390 483.5 c 128,-1,54
 416 465 416 465 431 434.5 c 128,-1,55
 446 404 446 404 446 359 c 2,56,-1
 446 81 l 2,57,58
 446 67 446 67 457 59 c 128,-1,59
 468 51 468 51 486.5 48 c 128,-1,60
 505 45 505 45 529 45 c 1,61,-1
 529 45 l 1,62,-1
 529 0 l 1,63,-1
 368 0 l 1,29,-1
EndSplineSet
Substitution2: "'ss06' Style Set 6 lookup 66 subtable" a.alt
EndChar

StartChar: aogonek
Encoding: 261 261 331
Width: 542
GlyphClass: 1
Flags: W
LayerCount: 2
Fore
SplineSet
246 -145 m 0,0,1
 246 -119 246 -119 258.5 -96 c 128,-1,2
 271 -73 271 -73 294.5 -51 c 128,-1,3
 318 -29 318 -29 351 -7.5 c 128,-1,4
 384 14 384 14 424 35 c 1,5,-1
 454 8 l 1,6,7
 419 -12 419 -12 396 -31 c 128,-1,8
 373 -50 373 -50 360 -68.5 c 128,-1,9
 347 -87 347 -87 341.5 -104 c 128,-1,10
 336 -121 336 -121 336 -136 c 0,11,12
 336 -161 336 -161 347.5 -173 c 128,-1,13
 359 -185 359 -185 377 -185 c 0,14,15
 394 -185 394 -185 407 -175.5 c 128,-1,16
 420 -166 420 -166 430 -156 c 1,17,-1
 458 -190 l 1,18,19
 439 -210 439 -210 416 -223 c 128,-1,20
 393 -236 393 -236 354 -236 c 0,21,22
 307 -236 307 -236 276.5 -212 c 128,-1,23
 246 -188 246 -188 246 -145 c 0,0,1
529 0 m 1,24,-1
 368 0 l 1,25,-1
 368 107 l 1,26,-1
 358 110 l 1,27,-1
 358 350 l 2,28,29
 358 393 358 393 346.5 417.5 c 128,-1,30
 335 442 335 442 313 452 c 128,-1,31
 291 462 291 462 259 462 c 0,32,33
 209 462 209 462 177.5 442 c 128,-1,34
 146 422 146 422 127 395 c 1,35,36
 125 407 125 407 128 417 c 128,-1,37
 131 427 131 427 137 435 c 128,-1,38
 143 443 143 443 152 449 c 128,-1,39
 161 455 161 455 171 459 c 1,40,-1
 171 356 l 1,41,-1
 84 356 l 1,42,-1
 84 458 l 1,43,44
 99 470 99 470 124.5 484 c 128,-1,45
 150 498 150 498 186 508 c 128,-1,46
 222 518 222 518 265 518 c 0,47,48
 300 518 300 518 332 510 c 128,-1,49
 364 502 364 502 390 483.5 c 128,-1,50
 416 465 416 465 431 434.5 c 128,-1,51
 446 404 446 404 446 359 c 2,52,-1
 446 81 l 2,53,54
 446 67 446 67 457 59 c 128,-1,55
 468 51 468 51 486.5 48 c 128,-1,56
 505 45 505 45 529 45 c 1,57,-1
 529 45 l 1,58,-1
 529 0 l 1,24,-1
53 124 m 256,59,60
 53 165 53 165 74 195.5 c 128,-1,61
 95 226 95 226 137 248 c 128,-1,62
 179 270 179 270 241 284.5 c 128,-1,63
 303 299 303 299 385 308 c 1,64,-1
 385 258 l 1,65,66
 335 253 335 253 296 245 c 128,-1,67
 257 237 257 237 228.5 226 c 128,-1,68
 200 215 200 215 182 200.5 c 128,-1,69
 164 186 164 186 155 167 c 128,-1,70
 146 148 146 148 146 125 c 0,71,72
 146 101 146 101 157 82.5 c 128,-1,73
 168 64 168 64 188 54 c 128,-1,74
 208 44 208 44 234 44 c 0,75,76
 269 44 269 44 296.5 61 c 128,-1,77
 324 78 324 78 345 109 c 128,-1,78
 366 140 366 140 382 182 c 1,79,-1
 383 113 l 1,80,81
 368 75 368 75 343 47.5 c 128,-1,82
 318 20 318 20 285 5 c 128,-1,83
 252 -10 252 -10 210 -10 c 0,84,85
 167 -10 167 -10 131.5 6 c 128,-1,86
 96 22 96 22 74.5 52.5 c 128,-1,87
 53 83 53 83 53 124 c 256,59,60
EndSplineSet
Substitution2: "'ss06' Style Set 6 lookup 66 subtable" aogonek.alt
EndChar

StartChar: acaron
Encoding: 462 462 332
Width: 542
GlyphClass: 1
Flags: W
LayerCount: 2
Fore
SplineSet
231 571 m 1,0,-1
 307 571 l 1,1,-1
 416 728 l 1,2,-1
 416 738 l 1,3,-1
 382 738 l 1,4,-1
 264 624 l 1,5,-1
 284 624 l 1,6,-1
 167 738 l 1,7,-1
 122 738 l 1,8,-1
 122 728 l 1,9,-1
 231 571 l 1,0,-1
385 308 m 1,10,-1
 385 258 l 1,11,12
 335 253 335 253 296 245 c 128,-1,13
 257 237 257 237 228.5 226 c 128,-1,14
 200 215 200 215 182 200.5 c 128,-1,15
 164 186 164 186 155 167 c 128,-1,16
 146 148 146 148 146 125 c 0,17,18
 146 101 146 101 157 82.5 c 128,-1,19
 168 64 168 64 188 54 c 128,-1,20
 208 44 208 44 234 44 c 0,21,22
 269 44 269 44 296.5 61 c 128,-1,23
 324 78 324 78 345 109 c 128,-1,24
 366 140 366 140 382 182 c 1,25,-1
 383 113 l 1,26,27
 368 75 368 75 343 47.5 c 128,-1,28
 318 20 318 20 285 5 c 128,-1,29
 252 -10 252 -10 210 -10 c 0,30,31
 167 -10 167 -10 131.5 6 c 128,-1,32
 96 22 96 22 74.5 52.5 c 128,-1,33
 53 83 53 83 53 124 c 256,34,35
 53 165 53 165 74 195.5 c 128,-1,36
 95 226 95 226 137 248 c 128,-1,37
 179 270 179 270 241 284.5 c 128,-1,38
 303 299 303 299 385 308 c 1,10,-1
368 0 m 1,39,-1
 368 107 l 1,40,-1
 358 110 l 1,41,-1
 358 350 l 2,42,43
 358 393 358 393 346.5 417.5 c 128,-1,44
 335 442 335 442 313 452 c 128,-1,45
 291 462 291 462 259 462 c 0,46,47
 209 462 209 462 177.5 442 c 128,-1,48
 146 422 146 422 127 395 c 1,49,50
 125 407 125 407 128 417 c 128,-1,51
 131 427 131 427 137 435 c 128,-1,52
 143 443 143 443 152 449 c 128,-1,53
 161 455 161 455 171 459 c 1,54,-1
 171 356 l 1,55,-1
 84 356 l 1,56,-1
 84 458 l 1,57,58
 99 470 99 470 124.5 484 c 128,-1,59
 150 498 150 498 186 508 c 128,-1,60
 222 518 222 518 265 518 c 0,61,62
 300 518 300 518 332 510 c 128,-1,63
 364 502 364 502 390 483.5 c 128,-1,64
 416 465 416 465 431 434.5 c 128,-1,65
 446 404 446 404 446 359 c 2,66,-1
 446 81 l 2,67,68
 446 67 446 67 457 59 c 128,-1,69
 468 51 468 51 486.5 48 c 128,-1,70
 505 45 505 45 529 45 c 1,71,-1
 529 45 l 1,72,-1
 529 0 l 1,73,-1
 368 0 l 1,39,-1
EndSplineSet
Substitution2: "'ss06' Style Set 6 lookup 66 subtable" acaron.alt
EndChar

StartChar: adblgrave
Encoding: 513 513 334
Width: 542
GlyphClass: 1
Flags: W
LayerCount: 2
Fore
SplineSet
348 710 m 2,0,-1
 372 589 l 1,1,-1
 372 569 l 1,2,-1
 342 569 l 1,3,-1
 279 664 l 2,4,5
 268 681 268 681 262 695.5 c 128,-1,6
 256 710 256 710 256 723 c 0,7,8
 256 740 256 740 267.5 751 c 128,-1,9
 279 762 279 762 298 762 c 256,10,11
 317 762 317 762 329.5 750.5 c 128,-1,12
 342 739 342 739 348 710 c 2,0,-1
195 710 m 2,13,-1
 219 589 l 1,14,-1
 219 569 l 1,15,-1
 189 569 l 1,16,-1
 126 664 l 2,17,18
 115 681 115 681 109 695.5 c 128,-1,19
 103 710 103 710 103 723 c 0,20,21
 103 740 103 740 114.5 751 c 128,-1,22
 126 762 126 762 145 762 c 256,23,24
 164 762 164 762 176.5 750.5 c 128,-1,25
 189 739 189 739 195 710 c 2,13,-1
385 308 m 1,26,-1
 385 258 l 1,27,28
 335 253 335 253 296 245 c 128,-1,29
 257 237 257 237 228.5 226 c 128,-1,30
 200 215 200 215 182 200.5 c 128,-1,31
 164 186 164 186 155 167 c 128,-1,32
 146 148 146 148 146 125 c 0,33,34
 146 101 146 101 157 82.5 c 128,-1,35
 168 64 168 64 188 54 c 128,-1,36
 208 44 208 44 234 44 c 0,37,38
 269 44 269 44 296.5 61 c 128,-1,39
 324 78 324 78 345 109 c 128,-1,40
 366 140 366 140 382 182 c 1,41,-1
 383 113 l 1,42,43
 368 75 368 75 343 47.5 c 128,-1,44
 318 20 318 20 285 5 c 128,-1,45
 252 -10 252 -10 210 -10 c 0,46,47
 167 -10 167 -10 131.5 6 c 128,-1,48
 96 22 96 22 74.5 52.5 c 128,-1,49
 53 83 53 83 53 124 c 256,50,51
 53 165 53 165 74 195.5 c 128,-1,52
 95 226 95 226 137 248 c 128,-1,53
 179 270 179 270 241 284.5 c 128,-1,54
 303 299 303 299 385 308 c 1,26,-1
368 0 m 1,55,-1
 368 107 l 1,56,-1
 358 110 l 1,57,-1
 358 350 l 2,58,59
 358 393 358 393 346.5 417.5 c 128,-1,60
 335 442 335 442 313 452 c 128,-1,61
 291 462 291 462 259 462 c 0,62,63
 209 462 209 462 177.5 442 c 128,-1,64
 146 422 146 422 127 395 c 1,65,66
 125 407 125 407 128 417 c 128,-1,67
 131 427 131 427 137 435 c 128,-1,68
 143 443 143 443 152 449 c 128,-1,69
 161 455 161 455 171 459 c 1,70,-1
 171 356 l 1,71,-1
 84 356 l 1,72,-1
 84 458 l 1,73,74
 99 470 99 470 124.5 484 c 128,-1,75
 150 498 150 498 186 508 c 128,-1,76
 222 518 222 518 265 518 c 0,77,78
 300 518 300 518 332 510 c 128,-1,79
 364 502 364 502 390 483.5 c 128,-1,80
 416 465 416 465 431 434.5 c 128,-1,81
 446 404 446 404 446 359 c 2,82,-1
 446 81 l 2,83,84
 446 67 446 67 457 59 c 128,-1,85
 468 51 468 51 486.5 48 c 128,-1,86
 505 45 505 45 529 45 c 1,87,-1
 529 45 l 1,88,-1
 529 0 l 1,89,-1
 368 0 l 1,55,-1
EndSplineSet
Substitution2: "'ss06' Style Set 6 lookup 66 subtable" adblgrave.alt
EndChar

StartChar: ainvertedbreve
Encoding: 515 515 335
Width: 542
GlyphClass: 1
Flags: W
LayerCount: 2
Fore
SplineSet
268 739 m 0,0,1
 230 739 230 739 199.5 722.5 c 128,-1,2
 169 706 169 706 151 671 c 128,-1,3
 133 636 133 636 130 582 c 1,4,-1
 184 582 l 1,5,6
 188 616 188 616 198 635 c 128,-1,7
 208 654 208 654 225 662 c 128,-1,8
 242 670 242 670 265 670 c 256,9,10
 288 670 288 670 305.5 662 c 128,-1,11
 323 654 323 654 333.5 635 c 128,-1,12
 344 616 344 616 347 582 c 1,13,-1
 406 582 l 1,14,15
 404 636 404 636 385.5 671 c 128,-1,16
 367 706 367 706 337 722.5 c 128,-1,17
 307 739 307 739 268 739 c 0,0,1
385 308 m 1,18,-1
 385 258 l 1,19,20
 335 253 335 253 296 245 c 128,-1,21
 257 237 257 237 228.5 226 c 128,-1,22
 200 215 200 215 182 200.5 c 128,-1,23
 164 186 164 186 155 167 c 128,-1,24
 146 148 146 148 146 125 c 0,25,26
 146 101 146 101 157 82.5 c 128,-1,27
 168 64 168 64 188 54 c 128,-1,28
 208 44 208 44 234 44 c 0,29,30
 269 44 269 44 296.5 61 c 128,-1,31
 324 78 324 78 345 109 c 128,-1,32
 366 140 366 140 382 182 c 1,33,-1
 383 113 l 1,34,35
 368 75 368 75 343 47.5 c 128,-1,36
 318 20 318 20 285 5 c 128,-1,37
 252 -10 252 -10 210 -10 c 0,38,39
 167 -10 167 -10 131.5 6 c 128,-1,40
 96 22 96 22 74.5 52.5 c 128,-1,41
 53 83 53 83 53 124 c 256,42,43
 53 165 53 165 74 195.5 c 128,-1,44
 95 226 95 226 137 248 c 128,-1,45
 179 270 179 270 241 284.5 c 128,-1,46
 303 299 303 299 385 308 c 1,18,-1
368 0 m 1,47,-1
 368 107 l 1,48,-1
 358 110 l 1,49,-1
 358 350 l 2,50,51
 358 393 358 393 346.5 417.5 c 128,-1,52
 335 442 335 442 313 452 c 128,-1,53
 291 462 291 462 259 462 c 0,54,55
 209 462 209 462 177.5 442 c 128,-1,56
 146 422 146 422 127 395 c 1,57,58
 125 407 125 407 128 417 c 128,-1,59
 131 427 131 427 137 435 c 128,-1,60
 143 443 143 443 152 449 c 128,-1,61
 161 455 161 455 171 459 c 1,62,-1
 171 356 l 1,63,-1
 84 356 l 1,64,-1
 84 458 l 1,65,66
 99 470 99 470 124.5 484 c 128,-1,67
 150 498 150 498 186 508 c 128,-1,68
 222 518 222 518 265 518 c 0,69,70
 300 518 300 518 332 510 c 128,-1,71
 364 502 364 502 390 483.5 c 128,-1,72
 416 465 416 465 431 434.5 c 128,-1,73
 446 404 446 404 446 359 c 2,74,-1
 446 81 l 2,75,76
 446 67 446 67 457 59 c 128,-1,77
 468 51 468 51 486.5 48 c 128,-1,78
 505 45 505 45 529 45 c 1,79,-1
 529 45 l 1,80,-1
 529 0 l 1,81,-1
 368 0 l 1,47,-1
EndSplineSet
Substitution2: "'ss06' Style Set 6 lookup 66 subtable" ainvertedbreve.alt
EndChar

StartChar: b
Encoding: 98 98 348
Width: 644
GlyphClass: 2
Flags: W
AnchorPoint: "Anchor-1" 349 0 basechar 0
AnchorPoint: "Anchor-0" 329 755 basechar 0
LayerCount: 2
Fore
SplineSet
360 -10 m 0,0,1
 320 -10 320 -10 288.5 1.5 c 128,-1,2
 257 13 257 13 230 37 c 128,-1,3
 203 61 203 61 178 99 c 1,4,-1
 179 184 l 1,5,6
 202 138 202 138 229 107 c 128,-1,7
 256 76 256 76 288 61 c 128,-1,8
 320 46 320 46 357 46 c 0,9,10
 393 46 393 46 421 61 c 128,-1,11
 449 76 449 76 467.5 104.5 c 128,-1,12
 486 133 486 133 495.5 171.5 c 128,-1,13
 505 210 505 210 505 257 c 256,14,15
 505 304 505 304 495.5 342 c 128,-1,16
 486 380 486 380 468 407 c 128,-1,17
 450 434 450 434 423 448 c 128,-1,18
 396 462 396 462 361 462 c 0,19,20
 322 462 322 462 289 445.5 c 128,-1,21
 256 429 256 429 229 397 c 128,-1,22
 202 365 202 365 179 316 c 1,23,-1
 178 397 l 1,24,25
 206 438 206 438 233.5 465 c 128,-1,26
 261 492 261 492 293 505 c 128,-1,27
 325 518 325 518 368 518 c 0,28,29
 437 518 437 518 489 485.5 c 128,-1,30
 541 453 541 453 570 394.5 c 128,-1,31
 599 336 599 336 599 257 c 256,32,33
 599 178 599 178 569 118 c 128,-1,34
 539 58 539 58 485.5 24 c 128,-1,35
 432 -10 432 -10 360 -10 c 0,0,1
107 643 m 2,36,37
 107 658 107 658 99.5 666 c 128,-1,38
 92 674 92 674 76 679 c 128,-1,39
 60 684 60 684 34 688 c 2,40,-1
 23 690 l 1,41,-1
 23 735 l 1,42,-1
 196 735 l 1,43,-1
 196 120 l 1,44,-1
 187 106 l 1,45,-1
 167 -3 l 1,46,-1
 107 -3 l 1,47,-1
 107 643 l 2,36,37
EndSplineSet
EndChar

StartChar: c
Encoding: 99 99 349
Width: 558
GlyphClass: 2
Flags: W
AnchorPoint: "Anchor-1" 308 0 basechar 0
AnchorPoint: "Anchor-0" 298 508 basechar 0
LayerCount: 2
Fore
SplineSet
312 46 m 0,0,1
 357 46 357 46 389 63 c 128,-1,2
 421 80 421 80 443.5 105 c 128,-1,3
 466 130 466 130 482 153 c 1,4,-1
 525 112 l 1,5,6
 503 79 503 79 473.5 51 c 128,-1,7
 444 23 444 23 403.5 6.5 c 128,-1,8
 363 -10 363 -10 309 -10 c 0,9,10
 230 -10 230 -10 170.5 24 c 128,-1,11
 111 58 111 58 78.5 117.5 c 128,-1,12
 46 177 46 177 46 254 c 0,13,14
 46 333 46 333 80.5 392 c 128,-1,15
 115 451 115 451 176.5 484.5 c 128,-1,16
 238 518 238 518 319 518 c 0,17,18
 368 518 368 518 407.5 507 c 128,-1,19
 447 496 447 496 474.5 481 c 128,-1,20
 502 466 502 466 515 453 c 1,21,-1
 515 329 l 1,22,-1
 427 329 l 1,23,-1
 427 442 l 1,24,25
 438 440 438 440 447 435.5 c 128,-1,26
 456 431 456 431 462.5 423.5 c 128,-1,27
 469 416 469 416 471.5 406 c 128,-1,28
 474 396 474 396 472 383 c 1,29,30
 454 417 454 417 411.5 439.5 c 128,-1,31
 369 462 369 462 319 462 c 0,32,33
 260 462 260 462 220 435.5 c 128,-1,34
 180 409 180 409 160 362 c 128,-1,35
 140 315 140 315 140 254 c 0,36,37
 140 208 140 208 151.5 170 c 128,-1,38
 163 132 163 132 185 104 c 128,-1,39
 207 76 207 76 239 61 c 128,-1,40
 271 46 271 46 312 46 c 0,0,1
EndSplineSet
EndChar

StartChar: ccaron
Encoding: 269 269 354
Width: 558
GlyphClass: 1
Flags: W
LayerCount: 2
Fore
SplineSet
264 574 m 1,0,-1
 340 574 l 1,1,-1
 449 731 l 1,2,-1
 449 741 l 1,3,-1
 414 741 l 1,4,-1
 297 627 l 1,5,-1
 317 627 l 1,6,-1
 200 741 l 1,7,-1
 155 741 l 1,8,-1
 155 731 l 1,9,-1
 264 574 l 1,0,-1
312 46 m 0,10,11
 357 46 357 46 389 63 c 128,-1,12
 421 80 421 80 443.5 105 c 128,-1,13
 466 130 466 130 482 153 c 1,14,-1
 525 112 l 1,15,16
 503 79 503 79 473.5 51 c 128,-1,17
 444 23 444 23 403.5 6.5 c 128,-1,18
 363 -10 363 -10 309 -10 c 0,19,20
 230 -10 230 -10 170.5 24 c 128,-1,21
 111 58 111 58 78.5 117.5 c 128,-1,22
 46 177 46 177 46 254 c 0,23,24
 46 333 46 333 80.5 392 c 128,-1,25
 115 451 115 451 176.5 484.5 c 128,-1,26
 238 518 238 518 319 518 c 0,27,28
 368 518 368 518 407.5 507 c 128,-1,29
 447 496 447 496 474.5 481 c 128,-1,30
 502 466 502 466 515 453 c 1,31,-1
 515 329 l 1,32,-1
 427 329 l 1,33,-1
 427 442 l 1,34,35
 438 440 438 440 447 435.5 c 128,-1,36
 456 431 456 431 462.5 423.5 c 128,-1,37
 469 416 469 416 471.5 406 c 128,-1,38
 474 396 474 396 472 383 c 1,39,40
 454 417 454 417 411.5 439.5 c 128,-1,41
 369 462 369 462 319 462 c 0,42,43
 260 462 260 462 220 435.5 c 128,-1,44
 180 409 180 409 160 362 c 128,-1,45
 140 315 140 315 140 254 c 0,46,47
 140 208 140 208 151.5 170 c 128,-1,48
 163 132 163 132 185 104 c 128,-1,49
 207 76 207 76 239 61 c 128,-1,50
 271 46 271 46 312 46 c 0,10,11
EndSplineSet
EndChar

StartChar: d
Encoding: 100 100 356
Width: 641
GlyphClass: 2
Flags: W
AnchorPoint: "Anchor-2" 607 735 basechar 0
AnchorPoint: "Anchor-1" 299 0 basechar 0
LayerCount: 2
Fore
SplineSet
537 81 m 2,0,1
 537 59 537 59 560.5 52 c 128,-1,2
 584 45 584 45 620 45 c 2,3,-1
 621 45 l 1,4,-1
 621 0 l 1,5,-1
 456 0 l 1,6,-1
 456 112 l 1,7,-1
 448 115 l 1,8,-1
 448 643 l 2,9,10
 448 658 448 658 440 666 c 128,-1,11
 432 674 432 674 415 679 c 128,-1,12
 398 684 398 684 372 688 c 2,13,-1
 361 690 l 1,14,-1
 361 735 l 1,15,-1
 537 735 l 1,16,-1
 537 81 l 2,0,1
286 518 m 0,17,18
 326 518 326 518 357.5 507 c 128,-1,19
 389 496 389 496 415.5 472 c 128,-1,20
 442 448 442 448 466 410 c 1,21,-1
 465 323 l 1,22,23
 444 371 444 371 417.5 402 c 128,-1,24
 391 433 391 433 359 447.5 c 128,-1,25
 327 462 327 462 289 462 c 0,26,27
 253 462 253 462 225 447 c 128,-1,28
 197 432 197 432 178 404.5 c 128,-1,29
 159 377 159 377 149.5 337.5 c 128,-1,30
 140 298 140 298 140 250 c 0,31,32
 140 204 140 204 149.5 166.5 c 128,-1,33
 159 129 159 129 177.5 101.5 c 128,-1,34
 196 74 196 74 223.5 60 c 128,-1,35
 251 46 251 46 286 46 c 0,36,37
 326 46 326 46 358 63 c 128,-1,38
 390 80 390 80 416.5 112 c 128,-1,39
 443 144 443 144 465 191 c 1,40,-1
 466 109 l 1,41,42
 440 69 440 69 413 42.5 c 128,-1,43
 386 16 386 16 353.5 3 c 128,-1,44
 321 -10 321 -10 280 -10 c 0,45,46
 210 -10 210 -10 157.5 22.5 c 128,-1,47
 105 55 105 55 75.5 113.5 c 128,-1,48
 46 172 46 172 46 250 c 0,49,50
 46 330 46 330 76 390 c 128,-1,51
 106 450 106 450 160.5 484 c 128,-1,52
 215 518 215 518 286 518 c 0,17,18
EndSplineSet
EndChar

StartChar: e
Encoding: 101 101 360
Width: 549
GlyphClass: 2
Flags: W
AnchorPoint: "Anchor-2" 434 1 basechar 0
AnchorPoint: "Anchor-1" 301 0 basechar 0
AnchorPoint: "Anchor-0" 280 508 basechar 0
LayerCount: 2
Fore
SplineSet
137 250 m 0,0,1
 137 202 137 202 149.5 164 c 128,-1,2
 162 126 162 126 185 99.5 c 128,-1,3
 208 73 208 73 239 59.5 c 128,-1,4
 270 46 270 46 306 46 c 0,5,6
 347 46 347 46 376.5 62 c 128,-1,7
 406 78 406 78 426.5 101.5 c 128,-1,8
 447 125 447 125 461 148 c 1,9,-1
 508 107 l 1,10,11
 489 75 489 75 461 48 c 128,-1,12
 433 21 433 21 394.5 5.5 c 128,-1,13
 356 -10 356 -10 304 -10 c 0,14,15
 231 -10 231 -10 172.5 22 c 128,-1,16
 114 54 114 54 80 113 c 128,-1,17
 46 172 46 172 46 252 c 0,18,19
 46 331 46 331 78 390.5 c 128,-1,20
 110 450 110 450 164.5 484 c 128,-1,21
 219 518 219 518 286 518 c 0,22,23
 341 518 341 518 382.5 500 c 128,-1,24
 424 482 424 482 452.5 447 c 128,-1,25
 481 412 481 412 496 358 c 128,-1,26
 511 304 511 304 511 232 c 1,27,-1
 118 232 l 1,28,-1
 118 287 l 1,29,-1
 444 287 l 1,30,-1
 416 266 l 1,31,32
 415 316 415 316 407 353 c 128,-1,33
 399 390 399 390 383 414 c 128,-1,34
 367 438 367 438 343 450 c 128,-1,35
 319 462 319 462 286 462 c 0,36,37
 255 462 255 462 228 447.5 c 128,-1,38
 201 433 201 433 180.5 405.5 c 128,-1,39
 160 378 160 378 148.5 338.5 c 128,-1,40
 137 299 137 299 137 250 c 0,0,1
EndSplineSet
EndChar

StartChar: eogonek
Encoding: 281 281 368
Width: 549
GlyphClass: 1
Flags: W
LayerCount: 2
Fore
SplineSet
392 37 m 1,0,-1
 403 10 l 1,1,2
 382 1 382 1 357.5 -4.5 c 128,-1,3
 333 -10 333 -10 304 -10 c 0,4,5
 231 -10 231 -10 172.5 22 c 128,-1,6
 114 54 114 54 80 113 c 128,-1,7
 46 172 46 172 46 252 c 0,8,9
 46 331 46 331 78 390.5 c 128,-1,10
 110 450 110 450 164.5 484 c 128,-1,11
 219 518 219 518 286 518 c 0,12,13
 341 518 341 518 382.5 500 c 128,-1,14
 424 482 424 482 452.5 447 c 128,-1,15
 481 412 481 412 496 358 c 128,-1,16
 511 304 511 304 511 232 c 1,17,-1
 107 232 l 1,18,-1
 106 287 l 1,19,-1
 444 287 l 1,20,-1
 416 266 l 1,21,22
 415 316 415 316 407 353 c 128,-1,23
 399 390 399 390 383 414 c 128,-1,24
 367 438 367 438 343 450 c 128,-1,25
 319 462 319 462 286 462 c 0,26,27
 255 462 255 462 228 447.5 c 128,-1,28
 201 433 201 433 180.5 405.5 c 128,-1,29
 160 378 160 378 148.5 338.5 c 128,-1,30
 137 299 137 299 137 250 c 0,31,32
 137 202 137 202 149.5 164 c 128,-1,33
 162 126 162 126 185 99.5 c 128,-1,34
 208 73 208 73 239 59.5 c 128,-1,35
 270 46 270 46 306 46 c 0,36,37
 347 46 347 46 376.5 62 c 128,-1,38
 406 78 406 78 426.5 101.5 c 128,-1,39
 447 125 447 125 461 148 c 1,40,-1
 508 107 l 1,41,42
 496 86 496 86 480.5 67.5 c 128,-1,43
 465 49 465 49 436 28 c 0,44,45
 402 3 402 3 377 -18 c 128,-1,46
 352 -39 352 -39 335.5 -57.5 c 128,-1,47
 319 -76 319 -76 311.5 -95 c 128,-1,48
 304 -114 304 -114 304 -136 c 0,49,50
 304 -161 304 -161 315.5 -173 c 128,-1,51
 327 -185 327 -185 345 -185 c 0,52,53
 362 -185 362 -185 375 -175.5 c 128,-1,54
 388 -166 388 -166 398 -156 c 1,55,-1
 426 -190 l 1,56,57
 407 -210 407 -210 384 -223 c 128,-1,58
 361 -236 361 -236 322 -236 c 0,59,60
 291 -236 291 -236 266.5 -225 c 128,-1,61
 242 -214 242 -214 228 -193.5 c 128,-1,62
 214 -173 214 -173 214 -145 c 0,63,64
 214 -119 214 -119 227 -95.5 c 128,-1,65
 240 -72 240 -72 263 -50 c 128,-1,66
 286 -28 286 -28 319 -6 c 128,-1,67
 352 16 352 16 392 37 c 1,0,-1
EndSplineSet
EndChar

StartChar: ecaron
Encoding: 283 283 369
Width: 549
GlyphClass: 1
Flags: W
LayerCount: 2
Fore
SplineSet
246 574 m 1,0,-1
 322 574 l 1,1,-1
 431 731 l 1,2,-1
 431 741 l 1,3,-1
 396 741 l 1,4,-1
 279 627 l 1,5,-1
 299 627 l 1,6,-1
 182 741 l 1,7,-1
 137 741 l 1,8,-1
 137 731 l 1,9,-1
 246 574 l 1,0,-1
137 250 m 0,10,11
 137 202 137 202 149.5 164 c 128,-1,12
 162 126 162 126 185 99.5 c 128,-1,13
 208 73 208 73 239 59.5 c 128,-1,14
 270 46 270 46 306 46 c 0,15,16
 347 46 347 46 376.5 62 c 128,-1,17
 406 78 406 78 426.5 101.5 c 128,-1,18
 447 125 447 125 461 148 c 1,19,-1
 508 107 l 1,20,21
 489 75 489 75 461 48 c 128,-1,22
 433 21 433 21 394.5 5.5 c 128,-1,23
 356 -10 356 -10 304 -10 c 0,24,25
 231 -10 231 -10 172.5 22 c 128,-1,26
 114 54 114 54 80 113 c 128,-1,27
 46 172 46 172 46 252 c 0,28,29
 46 331 46 331 78 390.5 c 128,-1,30
 110 450 110 450 164.5 484 c 128,-1,31
 219 518 219 518 286 518 c 0,32,33
 341 518 341 518 382.5 500 c 128,-1,34
 424 482 424 482 452.5 447 c 128,-1,35
 481 412 481 412 496 358 c 128,-1,36
 511 304 511 304 511 232 c 1,37,-1
 118 232 l 1,38,-1
 118 287 l 1,39,-1
 444 287 l 1,40,-1
 416 266 l 1,41,42
 415 316 415 316 407 353 c 128,-1,43
 399 390 399 390 383 414 c 128,-1,44
 367 438 367 438 343 450 c 128,-1,45
 319 462 319 462 286 462 c 0,46,47
 255 462 255 462 228 447.5 c 128,-1,48
 201 433 201 433 180.5 405.5 c 128,-1,49
 160 378 160 378 148.5 338.5 c 128,-1,50
 137 299 137 299 137 250 c 0,10,11
EndSplineSet
EndChar

